<?xml version="1.0" encoding="utf-8"?><svg viewBox="0 0 800 800" xmlns="http://www.w3.org/2000/svg" xmlns:xlink="http://www.w3.org/1999/xlink"><style>:root>svg{display:none}:root>svg:target{display:block}</style><svg viewBox="0 0 384 512" id="calc" xmlns="http://www.w3.org/2000/svg"><!--!Font Awesome Free 6.6.0 by @fontawesome - https://fontawesome.com License - https://fontawesome.com/license/free Copyright 2024 Fonticons, Inc.--><path d="M48 448V64c0-8.8 7.2-16 16-16h160v80c0 17.7 14.3 32 32 32h80v288c0 8.8-7.2 16-16 16H64c-8.8 0-16-7.2-16-16zM64 0C28.7 0 0 28.7 0 64v384c0 35.3 28.7 64 64 64h256c35.3 0 64-28.7 64-64V154.5c0-17-6.7-33.3-18.7-45.3l-90.6-90.5C262.7 6.7 246.5 0 229.5 0H64zm90.9 233.3c-8.1-10.5-23.2-12.3-33.7-4.2s-12.3 23.2-4.2 33.7l44.6 57.2-44.5 57.3c-8.1 10.5-6.3 25.5 4.2 33.7s25.5 6.3 33.7-4.2l37-47.7 37.1 47.6c8.1 10.5 23.2 12.3 33.7 4.2s12.3-23.2 4.2-33.7L222.4 320l44.5-57.3c8.1-10.5 6.3-25.5-4.2-33.7s-25.5-6.3-33.7 4.2l-37 47.7-37.1-47.6z"/></svg><svg viewBox="0 0 384 512" id="doc" xmlns="http://www.w3.org/2000/svg"><!--!Font Awesome Free 6.6.0 by @fontawesome - https://fontawesome.com License - https://fontawesome.com/license/free Copyright 2024 Fonticons, Inc.--><path d="M64 464c-8.8 0-16-7.2-16-16V64c0-8.8 7.2-16 16-16h160v80c0 17.7 14.3 32 32 32h80v288c0 8.8-7.2 16-16 16H64zM64 0C28.7 0 0 28.7 0 64v384c0 35.3 28.7 64 64 64h256c35.3 0 64-28.7 64-64V154.5c0-17-6.7-33.3-18.7-45.3l-90.6-90.5C262.7 6.7 246.5 0 229.5 0H64zm56 256c-13.3 0-24 10.7-24 24s10.7 24 24 24h144c13.3 0 24-10.7 24-24s-10.7-24-24-24H120zm0 96c-13.3 0-24 10.7-24 24s10.7 24 24 24h144c13.3 0 24-10.7 24-24s-10.7-24-24-24H120z"/></svg><svg viewBox="0 0 320 512" id="facebook" xmlns="http://www.w3.org/2000/svg"><!--!Font Awesome Free 6.6.0 by @fontawesome - https://fontawesome.com License - https://fontawesome.com/license/free Copyright 2024 Fonticons, Inc.--><path d="M80 299.3V512h116V299.3h86.5l18-97.8H196v-34.6c0-51.7 20.3-71.5 72.7-71.5 16.3 0 29.4.4 37 1.2V7.9C291.4 4 256.4 0 236.2 0 129.3 0 80 50.5 80 159.4v42.1H14v97.8h66z"/></svg><svg viewBox="0 0 448 512" id="flickr" xmlns="http://www.w3.org/2000/svg"><!--!Font Awesome Free 6.6.0 by @fontawesome - https://fontawesome.com License - https://fontawesome.com/license/free Copyright 2024 Fonticons, Inc.--><path d="M400 32H48C21.5 32 0 53.5 0 80v352c0 26.5 21.5 48 48 48h352c26.5 0 48-21.5 48-48V80c0-26.5-21.5-48-48-48zM144.5 319c-35.1 0-63.5-28.4-63.5-63.5s28.4-63.5 63.5-63.5 63.5 28.4 63.5 63.5-28.4 63.5-63.5 63.5zm159 0c-35.1 0-63.5-28.4-63.5-63.5s28.4-63.5 63.5-63.5 63.5 28.4 63.5 63.5-28.4 63.5-63.5 63.5z"/></svg><svg viewBox="0 0 384 512" id="image" xmlns="http://www.w3.org/2000/svg"><!--!Font Awesome Free 6.6.0 by @fontawesome - https://fontawesome.com License - https://fontawesome.com/license/free Copyright 2024 Fonticons, Inc.--><path d="M64 464c-8.8 0-16-7.2-16-16V64c0-8.8 7.2-16 16-16h160v80c0 17.7 14.3 32 32 32h80v288c0 8.8-7.2 16-16 16H64zM64 0C28.7 0 0 28.7 0 64v384c0 35.3 28.7 64 64 64h256c35.3 0 64-28.7 64-64V154.5c0-17-6.7-33.3-18.7-45.3l-90.6-90.5C262.7 6.7 246.5 0 229.5 0H64zm96 256a32 32 0 1 0-64 0 32 32 0 1 0 64 0zm69.2 46.9c-3-4.3-7.9-6.9-13.2-6.9s-10.2 2.6-13.2 6.9l-41.3 59.7-11.9-19.1c-2.9-4.7-8.1-7.5-13.6-7.5s-10.6 2.8-13.6 7.5l-40 64c-3.1 4.9-3.2 11.1-.4 16.2s8.2 8.2 14 8.2h192c6 0 11.4-3.3 14.2-8.6s2.4-11.6-1-16.5l-72-104z"/></svg><svg viewBox="0 0 448 512" id="instagram" xmlns="http://www.w3.org/2000/svg"><!--!Font Awesome Free 6.6.0 by @fontawesome - https://fontawesome.com License - https://fontawesome.com/license/free Copyright 2024 Fonticons, Inc.--><path d="M224.1 141c-63.6 0-114.9 51.3-114.9 114.9s51.3 114.9 114.9 114.9S339 319.5 339 255.9 287.7 141 224.1 141zm0 189.6c-41.1 0-74.7-33.5-74.7-74.7s33.5-74.7 74.7-74.7 74.7 33.5 74.7 74.7-33.6 74.7-74.7 74.7zm146.4-194.3c0 14.9-12 26.8-26.8 26.8-14.9 0-26.8-12-26.8-26.8s12-26.8 26.8-26.8 26.8 12 26.8 26.8zm76.1 27.2c-1.7-35.9-9.9-67.7-36.2-93.9-26.2-26.2-58-34.4-93.9-36.2-37-2.1-147.9-2.1-184.9 0-35.8 1.7-67.6 9.9-93.9 36.1s-34.4 58-36.2 93.9c-2.1 37-2.1 147.9 0 184.9 1.7 35.9 9.9 67.7 36.2 93.9s58 34.4 93.9 36.2c37 2.1 147.9 2.1 184.9 0 35.9-1.7 67.7-9.9 93.9-36.2 26.2-26.2 34.4-58 36.2-93.9 2.1-37 2.1-147.8 0-184.8zM398.8 388c-7.8 19.6-22.9 34.7-42.6 42.6-29.5 11.7-99.5 9-132.1 9s-102.7 2.6-132.1-9c-19.6-7.8-34.7-22.9-42.6-42.6-11.7-29.5-9-99.5-9-132.1s-2.6-102.7 9-132.1c7.8-19.6 22.9-34.7 42.6-42.6 29.5-11.7 99.5-9 132.1-9s102.7-2.6 132.1 9c19.6 7.8 34.7 22.9 42.6 42.6 11.7 29.5 9 99.5 9 132.1s2.7 102.7-9 132.1z"/></svg><svg viewBox="0 0 16 16" fill="none" id="link" xmlns="http://www.w3.org/2000/svg"><path d="M7.05 1.536a5.243 5.243 0 0 1 7.414 7.414L12.415 11 11 9.586l2.05-2.05A3.243 3.243 0 0 0 8.464 2.95L6.414 5 5 3.586l2.05-2.05ZM7.536 13.05 9.586 11 11 12.414l-2.05 2.05A5.243 5.243 0 0 1 1.536 7.05L3.586 5 5 6.414l-2.05 2.05a3.243 3.243 0 0 0 4.586 4.586Z" fill="#000"/><path d="m5.707 11.707 6-6-1.414-1.414-6 6 1.414 1.414Z" fill="#000"/></svg><svg viewBox="0 0 448 512" id="linkedin" xmlns="http://www.w3.org/2000/svg"><!--!Font Awesome Free 6.6.0 by @fontawesome - https://fontawesome.com License - https://fontawesome.com/license/free Copyright 2024 Fonticons, Inc.--><path d="M100.3 448H7.4V148.9h92.9zM53.8 108.1C24.1 108.1 0 83.5 0 53.8a53.8 53.8 0 0 1 107.6 0c0 29.7-24.1 54.3-53.8 54.3zM447.9 448h-92.7V302.4c0-34.7-.7-79.2-48.3-79.2-48.3 0-55.7 37.7-55.7 76.7V448h-92.8V148.9h89.1v40.8h1.3c12.4-23.5 42.7-48.3 87.9-48.3 94 0 111.3 61.9 111.3 142.3V448z"/></svg><svg viewBox="0 0 512 512" id="pdf" xmlns="http://www.w3.org/2000/svg"><!--!Font Awesome Free 6.6.0 by @fontawesome - https://fontawesome.com License - https://fontawesome.com/license/free Copyright 2024 Fonticons, Inc.--><path d="M64 464h48v48H64c-35.3 0-64-28.7-64-64V64C0 28.7 28.7 0 64 0h165.5c17 0 33.3 6.7 45.3 18.7l90.5 90.5c12 12 18.7 28.3 18.7 45.3V304h-48V160h-80c-17.7 0-32-14.3-32-32V48H64c-8.8 0-16 7.2-16 16v384c0 8.8 7.2 16 16 16zm112-112h32c30.9 0 56 25.1 56 56s-25.1 56-56 56h-16v32c0 8.8-7.2 16-16 16s-16-7.2-16-16V368c0-8.8 7.2-16 16-16zm32 80c13.3 0 24-10.7 24-24s-10.7-24-24-24h-16v48h16zm96-80h32c26.5 0 48 21.5 48 48v64c0 26.5-21.5 48-48 48h-32c-8.8 0-16-7.2-16-16V368c0-8.8 7.2-16 16-16zm32 128c8.8 0 16-7.2 16-16v-64c0-8.8-7.2-16-16-16h-16v96h16zm80-112c0-8.8 7.2-16 16-16h48c8.8 0 16 7.2 16 16s-7.2 16-16 16h-32v32h32c8.8 0 16 7.2 16 16s-7.2 16-16 16h-32v48c0 8.8-7.2 16-16 16s-16-7.2-16-16V368z"/></svg><svg viewBox="0 0 496 512" id="pinterest" xmlns="http://www.w3.org/2000/svg"><!--!Font Awesome Free 6.6.0 by @fontawesome - https://fontawesome.com License - https://fontawesome.com/license/free Copyright 2024 Fonticons, Inc.--><path d="M496 256c0 137-111 248-248 248-25.6 0-50.2-3.9-73.4-11.1 10.1-16.5 25.2-43.5 30.8-65 3-11.6 15.4-59 15.4-59 8.1 15.4 31.7 28.5 56.8 28.5 74.8 0 128.7-68.8 128.7-154.3 0-81.9-66.9-143.2-152.9-143.2-107 0-163.9 71.8-163.9 150.1 0 36.4 19.4 81.7 50.3 96.1 4.7 2.2 7.2 1.2 8.3-3.3.8-3.4 5-20.3 6.9-28.1.6-2.5.3-4.7-1.7-7.1-10.1-12.5-18.3-35.3-18.3-56.6 0-54.7 41.4-107.6 112-107.6 60.9 0 103.6 41.5 103.6 100.9 0 67.1-33.9 113.6-78 113.6-24.3 0-42.6-20.1-36.7-44.8 7-29.5 20.5-61.3 20.5-82.6 0-19-10.2-34.9-31.4-34.9-24.9 0-44.9 25.7-44.9 60.2 0 22 7.4 36.8 7.4 36.8s-24.5 103.8-29 123.2c-5 21.4-3 51.6-.9 71.2C65.4 450.9 0 361.1 0 256 0 119 111 8 248 8s248 111 248 248z"/></svg><svg viewBox="0 0 384 512" id="ppt" xmlns="http://www.w3.org/2000/svg"><!--!Font Awesome Free 6.6.0 by @fontawesome - https://fontawesome.com License - https://fontawesome.com/license/free Copyright 2024 Fonticons, Inc.--><path d="M64 464c-8.8 0-16-7.2-16-16V64c0-8.8 7.2-16 16-16h160v80c0 17.7 14.3 32 32 32h80v288c0 8.8-7.2 16-16 16H64zM64 0C28.7 0 0 28.7 0 64v384c0 35.3 28.7 64 64 64h256c35.3 0 64-28.7 64-64V154.5c0-17-6.7-33.3-18.7-45.3l-90.6-90.5C262.7 6.7 246.5 0 229.5 0H64zm72 208c-13.3 0-24 10.7-24 24v160c0 13.3 10.7 24 24 24s24-10.7 24-24v-32h44c42 0 76-34 76-76s-34-76-76-76h-68zm68 104h-44v-56h44c15.5 0 28 12.5 28 28s-12.5 28-28 28z"/></svg><svg viewBox="0 0 448 512" id="tiktok" xmlns="http://www.w3.org/2000/svg"><!--!Font Awesome Free 6.6.0 by @fontawesome - https://fontawesome.com License - https://fontawesome.com/license/free Copyright 2024 Fonticons, Inc.--><path d="M448 209.9a210.1 210.1 0 0 1-122.8-39.3v178.8A162.6 162.6 0 1 1 185 188.3v89.9a74.6 74.6 0 1 0 52.2 71.2V0h88a121.2 121.2 0 0 0 1.9 22.2 122.2 122.2 0 0 0 53.9 80.2 121.4 121.4 0 0 0 67 20.1z"/></svg><svg viewBox="0 0 448 512" id="whatsapp" xmlns="http://www.w3.org/2000/svg"><!--!Font Awesome Free 6.6.0 by @fontawesome - https://fontawesome.com License - https://fontawesome.com/license/free Copyright 2024 Fonticons, Inc.--><path d="M380.9 97.1C339 55.1 283.2 32 223.9 32c-122.4 0-222 99.6-222 222 0 39.1 10.2 77.3 29.6 111L0 480l117.7-30.9c32.4 17.7 68.9 27 106.1 27h.1c122.3 0 224.1-99.6 224.1-222 0-59.3-25.2-115-67.1-157zm-157 341.6c-33.2 0-65.7-8.9-94-25.7l-6.7-4-69.8 18.3L72 359.2l-4.4-7c-18.5-29.4-28.2-63.3-28.2-98.2 0-101.7 82.8-184.5 184.6-184.5 49.3 0 95.6 19.2 130.4 54.1 34.8 34.9 56.2 81.2 56.1 130.5 0 101.8-84.9 184.6-186.6 184.6zm101.2-138.2c-5.5-2.8-32.8-16.2-37.9-18-5.1-1.9-8.8-2.8-12.5 2.8-3.7 5.6-14.3 18-17.6 21.8-3.2 3.7-6.5 4.2-12 1.4-32.6-16.3-54-29.1-75.5-66-5.7-9.8 5.7-9.1 16.3-30.3 1.8-3.7.9-6.9-.5-9.7-1.4-2.8-12.5-30.1-17.1-41.2-4.5-10.8-9.1-9.3-12.5-9.5-3.2-.2-6.9-.2-10.6-.2-3.7 0-9.7 1.4-14.8 6.9-5.1 5.6-19.4 19-19.4 46.3 0 27.3 19.9 53.7 22.6 57.4 2.8 3.7 39.1 59.7 94.8 83.8 35.2 15.2 49 16.5 66.6 13.9 10.7-1.6 32.8-13.4 37.4-26.4 4.6-13 4.6-24.1 3.2-26.4-1.3-2.5-5-3.9-10.5-6.6z"/></svg><svg viewBox="0 0 512 512" id="x-twitter" xmlns="http://www.w3.org/2000/svg"><!--!Font Awesome Free 6.6.0 by @fontawesome - https://fontawesome.com License - https://fontawesome.com/license/free Copyright 2024 Fonticons, Inc.--><path d="M389.2 48h70.6L305.6 224.2 487 464H345L233.7 318.6 106.5 464H35.8l164.9-188.5L26.8 48h145.6l100.5 132.9L389.2 48zm-24.8 373.8h39.1L151.1 88h-42l255.3 333.8z"/></svg><svg viewBox="0 0 384 512" id="zip" xmlns="http://www.w3.org/2000/svg"><!--!Font Awesome Free 6.6.0 by @fontawesome - https://fontawesome.com License - https://fontawesome.com/license/free Copyright 2024 Fonticons, Inc.--><path d="M64 464c-8.8 0-16-7.2-16-16V64c0-8.8 7.2-16 16-16h48c0 8.8 7.2 16 16 16h32c8.8 0 16-7.2 16-16h48v80c0 17.7 14.3 32 32 32h80v288c0 8.8-7.2 16-16 16H64zM64 0C28.7 0 0 28.7 0 64v384c0 35.3 28.7 64 64 64h256c35.3 0 64-28.7 64-64V154.5c0-17-6.7-33.3-18.7-45.3l-90.6-90.5C262.7 6.7 246.5 0 229.5 0H64zm48 112c0 8.8 7.2 16 16 16h32c8.8 0 16-7.2 16-16s-7.2-16-16-16h-32c-8.8 0-16 7.2-16 16zm0 64c0 8.8 7.2 16 16 16h32c8.8 0 16-7.2 16-16s-7.2-16-16-16h-32c-8.8 0-16 7.2-16 16zm-6.3 71.8-23.6 88.1c-1.4 5.4-2.1 10.9-2.1 16.4 0 35.2 28.8 63.7 64 63.7s64-28.5 64-63.7c0-5.5-.7-11.1-2.1-16.4l-23.5-88.2c-3.7-14-16.4-23.8-30.9-23.8h-14.8c-14.5 0-27.2 9.7-30.9 23.8zM128 336h32c8.8 0 16 7.2 16 16s-7.2 16-16 16h-32c-8.8 0-16-7.2-16-16s7.2-16 16-16z"/></svg></svg>