<svg width="299" height="108" viewBox="0 0 299 108" fill="none" xmlns="http://www.w3.org/2000/svg">
<g clip-path="url(#clip0_7205_293)">
<path d="M82.1245 87.5749C82.1245 84.4606 84.4356 82.335 87.3231 82.335C89.3145 82.335 90.5606 83.2918 91.3511 84.4766L90.0588 85.16C89.5268 84.3097 88.5231 83.6867 87.3231 83.6867C85.2714 83.6867 83.6904 85.2966 83.6904 87.5749C83.6904 89.8531 85.2714 91.463 87.3231 91.463C88.524 91.463 89.5268 90.84 90.0588 89.9898L91.3511 90.6732C90.5464 91.8571 89.3145 92.8147 87.3231 92.8147C84.4347 92.8147 82.1245 90.6882 82.1245 87.5749Z" fill="white"/>
<path d="M96.0622 85.1139C98.2659 85.1139 99.6337 86.8303 99.6337 89.0784V89.4121H93.8275C93.9341 90.6581 94.8463 91.6903 96.3207 91.6903C97.0961 91.6903 97.947 91.3859 98.4941 90.8241L99.1318 91.7205C98.4026 92.4349 97.3688 92.8139 96.183 92.8139C93.9945 92.8139 92.3833 91.2643 92.3833 88.9559C92.3833 86.8294 93.919 85.113 96.0622 85.113V85.1139ZM93.8124 88.4252H98.2969C98.2667 87.4533 97.613 86.2374 96.0622 86.2374C94.5114 86.2374 93.8879 87.4223 93.8124 88.4252Z" fill="white"/>
<path d="M106.305 87.9388C106.305 86.7247 105.682 86.3288 104.739 86.3288C103.888 86.3288 103.113 86.8445 102.717 87.3921V92.6319H101.349V85.2958H102.717V86.3288C103.203 85.736 104.176 85.1138 105.316 85.1138C106.867 85.1138 107.673 85.9339 107.673 87.4835V92.6319H106.305V87.9388Z" fill="white"/>
<path d="M110.119 91.0069V86.4957H108.903V85.2958H110.119V83.2909H111.487V85.2958H112.977V86.4957H111.487V90.7025C111.487 91.219 111.73 91.5989 112.202 91.5989C112.52 91.5989 112.809 91.4622 112.947 91.3104L113.296 92.3435C113.007 92.6168 112.581 92.8148 111.867 92.8148C110.711 92.8148 110.12 92.1615 110.12 91.0069H110.119Z" fill="white"/>
<path d="M114.494 85.2958H115.862V86.4202C116.424 85.6916 117.291 85.1289 118.264 85.1289V86.5108C118.127 86.4806 117.975 86.4646 117.792 86.4646C117.108 86.4646 116.181 86.9811 115.861 87.5278V92.631H114.493V85.2949L114.494 85.2958Z" fill="white"/>
<path d="M119.175 88.9567C119.175 86.8454 120.604 85.1138 122.884 85.1138C125.164 85.1138 126.593 86.8454 126.593 88.9567C126.593 91.0681 125.179 92.8147 122.884 92.8147C120.589 92.8147 119.175 91.0832 119.175 88.9567ZM125.164 88.9567C125.164 87.5749 124.359 86.3288 122.885 86.3288C121.411 86.3288 120.605 87.5749 120.605 88.9567C120.605 90.3386 121.426 91.5997 122.885 91.5997C124.344 91.5997 125.164 90.3537 125.164 88.9567Z" fill="white"/>
<path d="M132.518 90.0351C133.202 90.7939 134.297 91.4631 135.71 91.4631C137.352 91.4631 137.929 90.6271 137.929 89.8984C137.929 88.8352 136.774 88.5308 135.482 88.1971C133.856 87.7711 131.971 87.3007 131.971 85.2346C131.971 83.5643 133.446 82.3484 135.559 82.3484C137.125 82.3484 138.357 82.8498 139.253 83.7613L138.371 84.8858C137.595 84.0657 136.531 83.701 135.437 83.701C134.343 83.701 133.536 84.2787 133.536 85.129C133.536 86.0404 134.631 86.3289 135.893 86.6475C137.55 87.0877 139.48 87.6051 139.48 89.7609C139.48 91.3406 138.387 92.8139 135.649 92.8139C133.841 92.8139 132.518 92.1607 131.652 91.2031L132.518 90.0333V90.0351Z" fill="white"/>
<path d="M140.998 83.2004C140.998 82.7149 141.408 82.3191 141.88 82.3191C142.352 82.3191 142.762 82.714 142.762 83.2004C142.762 83.6867 142.368 84.0666 141.88 84.0666C141.392 84.0666 140.998 83.6867 140.998 83.2004ZM141.211 85.2958H142.579V92.6319H141.211V85.2958Z" fill="white"/>
<path d="M149.707 87.9388C149.707 86.7247 149.083 86.3288 148.141 86.3288C147.29 86.3288 146.515 86.8445 146.119 87.3921V92.6319H144.751V85.2958H146.119V86.3288C146.605 85.736 147.578 85.1138 148.718 85.1138C150.269 85.1138 151.075 85.9339 151.075 87.4835V92.6319H149.707V87.9388Z" fill="white"/>
<path d="M153.84 93.5132C154.447 94.2117 155.192 94.4851 156.196 94.4851C157.336 94.4851 158.476 93.9384 158.476 92.3888V91.432C157.914 92.1607 157.047 92.6923 156.058 92.6923C154.159 92.6923 152.791 91.2945 152.791 88.8955C152.791 86.4966 154.159 85.113 156.058 85.113C157.017 85.113 157.883 85.5692 158.476 86.359V85.2958H159.844V92.3435C159.844 94.8649 158.005 95.6087 156.196 95.6087C154.965 95.6087 154.068 95.3504 153.186 94.5152L153.84 93.5124V93.5132ZM158.476 87.4072C158.095 86.8143 157.26 86.3289 156.44 86.3289C155.071 86.3289 154.22 87.3921 154.22 88.8955C154.22 90.399 155.071 91.4773 156.44 91.4773C157.26 91.4773 158.096 90.9759 158.476 90.3839V87.4072Z" fill="white"/>
<path d="M166.971 91.6299C166.409 92.237 165.48 92.8147 164.356 92.8147C162.791 92.8147 162.016 92.0249 162.016 90.4753V85.2958H163.383V90.02C163.383 91.2341 163.992 91.5997 164.934 91.5997C165.785 91.5997 166.561 91.1143 166.971 90.5667V85.2967H168.339V92.6328H166.971V91.6299Z" fill="white"/>
<path d="M170.51 82.5019H171.878V92.6328H170.51V82.5019Z" fill="white"/>
<path d="M178.58 91.827C178.003 92.4651 177.166 92.8148 176.179 92.8148C174.963 92.8148 173.624 91.9947 173.624 90.3839C173.624 88.7731 174.947 87.9841 176.179 87.9841C177.166 87.9841 178.017 88.3027 178.58 88.9559V87.7409C178.58 86.8294 177.835 86.2836 176.787 86.2836C175.95 86.2836 175.237 86.6022 174.584 87.2554L173.99 86.3129C174.811 85.5088 175.815 85.113 177 85.113C178.596 85.113 179.949 85.8123 179.949 87.6796V92.6311H178.58V91.8261V91.827ZM178.58 89.7768C178.17 89.2301 177.455 88.9408 176.696 88.9408C175.708 88.9408 175.008 89.5337 175.008 90.399C175.008 91.2643 175.708 91.8563 176.696 91.8563C177.455 91.8563 178.17 91.5678 178.58 91.0211V89.7751V89.7768Z" fill="white"/>
<path d="M182.136 85.2958H183.504V86.4202C184.066 85.6916 184.933 85.1289 185.905 85.1289V86.5108C185.769 86.4806 185.617 86.4646 185.434 86.4646C184.75 86.4646 183.823 86.9811 183.503 87.5278V92.631H182.135V85.2949L182.136 85.2958Z" fill="white"/>
<path d="M196.422 91.5847C195.875 92.3133 194.993 92.8147 194.02 92.8147C192.105 92.8147 190.736 91.3716 190.736 88.9718C190.736 86.572 192.105 85.1138 194.02 85.1138C194.962 85.1138 195.829 85.57 196.422 86.3599V82.5019H197.79V92.6328H196.422V91.5855V91.5847ZM196.422 87.4071C196.042 86.8143 195.221 86.3288 194.386 86.3288C193.017 86.3288 192.166 87.4373 192.166 88.9718C192.166 90.5063 193.017 91.5997 194.386 91.5997C195.222 91.5997 196.042 91.1285 196.422 90.5365V87.4071Z" fill="white"/>
<path d="M203.199 85.1139C205.403 85.1139 206.771 86.8303 206.771 89.0784V89.4121H200.965C201.071 90.6581 201.983 91.6903 203.458 91.6903C204.232 91.6903 205.084 91.3859 205.631 90.8241L206.269 91.7205C205.54 92.4349 204.506 92.8139 203.32 92.8139C201.132 92.8139 199.521 91.2643 199.521 88.9559C199.521 86.8294 201.056 85.113 203.199 85.113V85.1139ZM200.95 88.4252H205.434C205.404 87.4533 204.75 86.2374 203.199 86.2374C201.649 86.2374 201.025 87.4223 200.95 88.4252Z" fill="white"/>
<path d="M212.438 82.5019H213.958V92.6328H212.438V82.5019Z" fill="white"/>
<path d="M221.147 87.9388C221.147 86.7247 220.524 86.3288 219.581 86.3288C218.731 86.3288 217.955 86.8445 217.559 87.3921V92.6319H216.191V85.2958H217.559V86.3288C218.046 85.736 219.018 85.1138 220.159 85.1138C221.71 85.1138 222.515 85.9339 222.515 87.4835V92.6319H221.147V87.9388Z" fill="white"/>
<path d="M223.607 85.2958H225.066L227.361 91.0522L229.656 85.2958H231.131L228.107 92.6319H226.632L223.607 85.2958Z" fill="white"/>
<path d="M235.463 85.1139C237.666 85.1139 239.034 86.8303 239.034 89.0784V89.4121H233.228C233.334 90.6581 234.247 91.6903 235.721 91.6903C236.496 91.6903 237.347 91.3859 237.894 90.8241L238.532 91.7205C237.803 92.4349 236.769 92.8139 235.583 92.8139C233.395 92.8139 231.784 91.2643 231.784 88.9559C231.784 86.8294 233.319 85.113 235.463 85.113V85.1139ZM233.213 88.4252H237.697C237.667 87.4533 237.013 86.2374 235.463 86.2374C233.912 86.2374 233.288 87.4223 233.213 88.4252Z" fill="white"/>
<path d="M240.765 90.6732C241.267 91.2199 242.239 91.7204 243.228 91.7204C244.217 91.7204 244.809 91.2944 244.809 90.6732C244.809 89.9436 243.973 89.7014 243.031 89.4884C241.784 89.1999 240.324 88.8653 240.324 87.2864C240.324 86.1167 241.328 85.1138 243.121 85.1138C244.383 85.1138 245.296 85.57 245.919 86.162L245.311 87.1187C244.885 86.6031 244.064 86.2232 243.137 86.2232C242.211 86.2232 241.633 86.5871 241.633 87.1799C241.633 87.8172 242.423 88.0302 243.335 88.2432C244.613 88.5316 246.132 88.8804 246.132 90.5667C246.132 91.8269 245.098 92.8147 243.168 92.8147C241.937 92.8147 240.857 92.4349 240.113 91.6752L240.766 90.6732H240.765Z" fill="white"/>
<path d="M248.136 91.0069V86.4957H246.92V85.2958H248.136V83.2909H249.504V85.2958H250.995V86.4957H249.504V90.7025C249.504 91.219 249.748 91.5989 250.219 91.5989C250.538 91.5989 250.827 91.4622 250.964 91.3104L251.313 92.3435C251.025 92.6168 250.598 92.8148 249.884 92.8148C248.729 92.8148 248.137 92.1615 248.137 91.0069H248.136Z" fill="white"/>
<path d="M252.299 83.2004C252.299 82.7149 252.71 82.3191 253.181 82.3191C253.653 82.3191 254.063 82.714 254.063 83.2004C254.063 83.6867 253.669 84.0666 253.181 84.0666C252.694 84.0666 252.299 83.6867 252.299 83.2004ZM252.512 85.2958H253.88V92.6319H252.512V85.2958Z" fill="white"/>
<path d="M256.646 93.5132C257.254 94.2117 257.999 94.4851 259.003 94.4851C260.142 94.4851 261.283 93.9384 261.283 92.3888V91.432C260.72 92.1607 259.853 92.6923 258.865 92.6923C256.965 92.6923 255.597 91.2945 255.597 88.8955C255.597 86.4966 256.966 85.113 258.865 85.113C259.823 85.113 260.689 85.5692 261.283 86.359V85.2958H262.65V92.3435C262.65 94.8649 260.811 95.6087 259.003 95.6087C257.771 95.6087 256.874 95.3504 255.992 94.5152L256.646 93.5124V93.5132ZM261.283 87.4072C260.901 86.8143 260.067 86.3289 259.246 86.3289C257.877 86.3289 257.026 87.3921 257.026 88.8955C257.026 90.399 257.877 91.4773 259.246 91.4773C260.067 91.4773 260.902 90.9759 261.283 90.3839V87.4072Z" fill="white"/>
<path d="M269.351 91.827C268.774 92.4651 267.937 92.8148 266.949 92.8148C265.733 92.8148 264.395 91.9947 264.395 90.3839C264.395 88.7731 265.717 87.9841 266.949 87.9841C267.937 87.9841 268.788 88.3027 269.351 88.9559V87.7409C269.351 86.8294 268.606 86.2836 267.558 86.2836C266.721 86.2836 266.008 86.6022 265.354 87.2554L264.761 86.3129C265.581 85.5088 266.585 85.113 267.771 85.113C269.367 85.113 270.72 85.8123 270.72 87.6796V92.6311H269.351V91.8261V91.827ZM269.351 89.7768C268.941 89.2301 268.226 88.9408 267.466 88.9408C266.478 88.9408 265.779 89.5337 265.779 90.399C265.779 91.2643 266.478 91.8563 267.466 91.8563C268.226 91.8563 268.941 91.5678 269.351 91.0211V89.7751V89.7768Z" fill="white"/>
<path d="M276.19 85.1138C277.574 85.1138 278.41 85.6916 278.942 86.4052L278.029 87.2412C277.589 86.6182 276.996 86.3297 276.25 86.3297C274.806 86.3297 273.88 87.4382 273.88 88.9576C273.88 90.477 274.806 91.6006 276.25 91.6006C276.996 91.6006 277.588 91.2962 278.029 90.6892L278.942 91.5252C278.41 92.2387 277.574 92.8165 276.19 92.8165C273.971 92.8165 272.451 91.1604 272.451 88.9585C272.451 86.7566 273.971 85.1156 276.19 85.1156V85.1138Z" fill="white"/>
<path d="M280.231 83.2004C280.231 82.7149 280.642 82.3191 281.113 82.3191C281.585 82.3191 281.995 82.714 281.995 83.2004C281.995 83.6867 281.601 84.0666 281.113 84.0666C280.626 84.0666 280.231 83.6867 280.231 83.2004ZM280.444 85.2958H281.812V92.6319H280.444V85.2958Z" fill="white"/>
<path d="M283.528 88.9568C283.528 86.8454 284.957 85.1138 287.237 85.1138C289.517 85.1138 290.947 86.8454 290.947 88.9568C290.947 91.0681 289.533 92.8148 287.237 92.8148C284.942 92.8148 283.528 91.0832 283.528 88.9568ZM289.517 88.9568C289.517 87.5749 288.713 86.3288 287.238 86.3288C285.764 86.3288 284.958 87.5749 284.958 88.9568C284.958 90.3386 285.779 91.5997 287.238 91.5997C288.698 91.5997 289.517 90.3537 289.517 88.9568ZM286.69 84.1873L288.88 81.9996H290.232L287.694 84.1873H286.69Z" fill="white"/>
<path d="M297.633 87.9388C297.633 86.7247 297.009 86.3288 296.067 86.3288C295.216 86.3288 294.441 86.8445 294.045 87.3921V92.6319H292.677V85.2958H294.045V86.3288C294.531 85.736 295.504 85.1138 296.644 85.1138C298.195 85.1138 299.001 85.9339 299.001 87.4835V92.6319H297.633V87.9388Z" fill="white"/>
<path d="M85.7431 100.299C87.9468 100.299 89.3146 102.016 89.3146 104.264V104.597H83.5084C83.615 105.843 84.5272 106.876 86.0016 106.876C86.777 106.876 87.6279 106.571 88.175 106.009L88.8127 106.906C88.0835 107.62 87.0497 107.999 85.8639 107.999C83.6754 107.999 82.0642 106.45 82.0642 104.141C82.0642 102.015 83.5999 100.298 85.7431 100.298V100.299ZM83.4933 103.61H87.9778C87.9476 102.639 87.2939 101.423 85.7431 101.423C84.1923 101.423 83.5688 102.608 83.4933 103.61Z" fill="white"/>
<path d="M95.9867 103.124C95.9867 101.91 95.3632 101.514 94.4208 101.514C93.5699 101.514 92.7945 102.03 92.3983 102.577V107.817H91.0305V100.481H92.3983V101.514C92.8851 100.921 93.8577 100.299 94.9981 100.299C96.5489 100.299 97.3545 101.119 97.3545 102.669V107.817H95.9867V103.124Z" fill="white"/>
<path d="M105.697 107.817V99.5847H102.732V97.6863H110.819V99.5847H107.87V107.817H105.697Z" fill="white"/>
<path d="M110.194 104.142C110.194 102.016 111.76 100.299 113.994 100.299C116.229 100.299 117.672 101.94 117.672 104.339V104.765H112.215C112.337 105.691 113.082 106.466 114.328 106.466C114.952 106.466 115.819 106.193 116.289 105.738L117.14 106.983C116.411 107.652 115.255 108.001 114.115 108.001C111.88 108.001 110.194 106.497 110.194 104.143L110.194 104.142ZM113.994 101.833C112.792 101.833 112.276 102.729 112.185 103.458H115.803C115.757 102.759 115.271 101.833 113.994 101.833Z" fill="white"/>
<path d="M118.598 104.142C118.598 101.894 120.224 100.299 122.489 100.299C123.993 100.299 124.907 100.952 125.392 101.621L124.131 102.805C123.782 102.29 123.249 102.016 122.58 102.016C121.41 102.016 120.589 102.866 120.589 104.142C120.589 105.418 121.41 106.284 122.58 106.284C123.25 106.284 123.782 105.979 124.131 105.494L125.392 106.663C124.907 107.347 123.993 108 122.489 108C120.224 108 118.598 106.405 118.598 104.142Z" fill="white"/>
<path d="M131.607 107.817V103.382C131.607 102.364 131.075 102.015 130.254 102.015C129.495 102.015 128.902 102.441 128.583 102.881V107.817H126.653V100.481H128.583V101.439C129.055 100.877 129.952 100.299 131.152 100.299C132.763 100.299 133.538 101.211 133.538 102.639V107.818H131.607V107.817Z" fill="white"/>
<path d="M134.98 104.142C134.98 102.061 136.439 100.299 138.857 100.299C141.274 100.299 142.748 102.061 142.748 104.142C142.748 106.223 141.289 108 138.857 108C136.424 108 134.98 106.238 134.98 104.142ZM140.74 104.142C140.74 103.002 140.057 102.016 138.856 102.016C137.655 102.016 136.986 103.002 136.986 104.142C136.986 105.282 137.656 106.284 138.856 106.284C140.056 106.284 140.74 105.297 140.74 104.142Z" fill="white"/>
<path d="M144.175 107.817V97.6863H146.105V107.817H144.175Z" fill="white"/>
<path d="M147.548 104.142C147.548 102.061 149.007 100.299 151.424 100.299C153.841 100.299 155.315 102.061 155.315 104.142C155.315 106.223 153.856 108 151.424 108C148.991 108 147.548 106.238 147.548 104.142ZM153.308 104.142C153.308 103.002 152.625 102.016 151.424 102.016C150.223 102.016 149.554 103.002 149.554 104.142C149.554 105.282 150.224 106.284 151.424 106.284C152.624 106.284 153.308 105.297 153.308 104.142Z" fill="white"/>
<path d="M160.77 107.817L159.099 105.341L157.411 107.817H155.268L157.868 104.051L155.421 100.481H157.579L159.099 102.744L160.603 100.481H162.762L160.299 104.051L162.929 107.817H160.77Z" fill="white"/>
<path d="M165.238 99.3725H163.885L165.921 97.1848H167.7L165.238 99.3725ZM163.885 107.817V100.481H165.815V107.817H163.885Z" fill="white"/>
<path d="M172.137 107.817V107.058C171.636 107.651 170.769 108 169.812 108C168.641 108 167.258 107.21 167.258 105.569C167.258 103.928 168.641 103.2 169.812 103.2C170.785 103.2 171.651 103.519 172.137 104.096V103.109C172.137 102.364 171.5 101.879 170.526 101.879C169.735 101.879 169.006 102.167 168.382 102.744L167.653 101.453C168.55 100.663 169.705 100.298 170.86 100.298C172.533 100.298 174.068 100.967 174.068 103.078V107.816H172.137V107.817ZM172.137 106.055V105.144C171.818 104.718 171.21 104.506 170.587 104.506C169.827 104.506 169.204 104.901 169.204 105.615C169.204 106.33 169.827 106.694 170.587 106.694C171.21 106.694 171.818 106.481 172.137 106.056V106.055Z" fill="white"/>
<path d="M175.343 106.86L176.18 105.509C176.712 106.01 177.806 106.512 178.718 106.512C179.554 106.512 179.949 106.178 179.949 105.722C179.949 104.507 175.586 105.495 175.586 102.608C175.586 101.378 176.666 100.299 178.596 100.299C179.844 100.299 180.831 100.725 181.56 101.302L180.786 102.623C180.345 102.152 179.509 101.773 178.612 101.773C177.913 101.773 177.457 102.092 177.457 102.502C177.457 103.595 181.804 102.685 181.804 105.646C181.804 106.982 180.664 108.001 178.627 108.001C177.349 108.001 176.118 107.575 175.343 106.861V106.86Z" fill="white"/>
<path d="M187.166 107.817V97.6863H189.324V107.817H187.166Z" fill="white"/>
<path d="M196.239 107.817V103.382C196.239 102.364 195.707 102.015 194.886 102.015C194.127 102.015 193.533 102.441 193.214 102.881V107.817H191.284V100.481H193.214V101.439C193.686 100.877 194.583 100.299 195.783 100.299C197.394 100.299 198.17 101.211 198.17 102.639V107.818H196.239V107.817Z" fill="white"/>
<path d="M200.463 105.995V102.167H199.247V100.481H200.463V98.4761H202.409V100.481H203.899V102.167H202.409V105.478C202.409 105.934 202.652 106.283 203.078 106.283C203.367 106.283 203.64 106.177 203.747 106.07L204.157 107.528C203.868 107.786 203.352 107.999 202.546 107.999C201.193 107.999 200.464 107.301 200.464 105.994L200.463 105.995Z" fill="white"/>
<path d="M204.748 104.142C204.748 102.016 206.313 100.299 208.548 100.299C210.783 100.299 212.226 101.94 212.226 104.339V104.765H206.769C206.891 105.691 207.636 106.466 208.882 106.466C209.506 106.466 210.373 106.193 210.843 105.738L211.694 106.983C210.965 107.652 209.809 108.001 208.669 108.001C206.434 108.001 204.748 106.497 204.748 104.143L204.748 104.142ZM208.548 101.833C207.346 101.833 206.83 102.729 206.739 103.458H210.357C210.311 102.759 209.825 101.833 208.548 101.833Z" fill="white"/>
<path d="M213.624 107.817V97.6863H215.554V107.817H213.624Z" fill="white"/>
<path d="M217.271 98.5374C217.271 97.9002 217.803 97.3987 218.426 97.3987C219.05 97.3987 219.582 97.9002 219.582 98.5374C219.582 99.1747 219.065 99.6921 218.426 99.6921C217.787 99.6921 217.271 99.1755 217.271 98.5374ZM217.469 107.817V100.481H219.399V107.817H217.469Z" fill="white"/>
<path d="M225.858 107.817L224.186 105.341L222.498 107.817H220.355L222.955 104.051L220.508 100.481H222.666L224.186 102.744L225.691 100.481H227.849L225.386 104.051L228.016 107.817H225.858Z" fill="white"/>
<path d="M227.985 104.142C227.985 102.016 229.55 100.299 231.784 100.299C234.019 100.299 235.463 101.94 235.463 104.339V104.765H230.005C230.127 105.691 230.872 106.466 232.118 106.466C232.742 106.466 233.609 106.193 234.08 105.738L234.93 106.983C234.201 107.652 233.046 108.001 231.905 108.001C229.671 108.001 227.984 106.497 227.984 104.143L227.985 104.142ZM231.785 101.833C230.584 101.833 230.068 102.729 229.976 103.458H233.594C233.548 102.759 233.062 101.833 231.785 101.833Z" fill="white"/>
<path d="M241.815 107.817V103.382C241.815 102.364 241.283 102.015 240.462 102.015C239.703 102.015 239.11 102.441 238.791 102.881V107.817H236.861V100.481H238.791V101.439C239.262 100.877 240.159 100.299 241.359 100.299C242.971 100.299 243.746 101.211 243.746 102.639V107.818H241.815V107.817Z" fill="white"/>
<path d="M246.039 105.995V102.167H244.823V100.481H246.039V98.4761H247.985V100.481H249.475V102.167H247.985V105.478C247.985 105.934 248.228 106.283 248.654 106.283C248.943 106.283 249.216 106.177 249.323 106.07L249.733 107.528C249.445 107.786 248.929 107.999 248.122 107.999C246.769 107.999 246.04 107.301 246.04 105.994L246.039 105.995Z" fill="white"/>
<path d="M250.324 104.142C250.324 102.016 251.89 100.299 254.125 100.299C256.359 100.299 257.803 101.94 257.803 104.339V104.765H252.346C252.467 105.691 253.212 106.466 254.459 106.466C255.082 106.466 255.949 106.193 256.42 105.738L257.271 106.983C256.541 107.652 255.386 108.001 254.245 108.001C252.011 108.001 250.324 106.497 250.324 104.143V104.142ZM254.125 101.833C252.923 101.833 252.407 102.729 252.315 103.458H255.933C255.888 102.759 255.401 101.833 254.125 101.833Z" fill="white"/>
<path d="M258.561 106.86L259.398 105.509C259.93 106.01 261.024 106.512 261.936 106.512C262.772 106.512 263.167 106.178 263.167 105.722C263.167 104.507 258.804 105.495 258.804 102.608C258.804 101.378 259.884 100.299 261.815 100.299C263.062 100.299 264.049 100.725 264.778 101.302L264.004 102.623C263.563 102.152 262.727 101.773 261.83 101.773C261.131 101.773 260.674 102.092 260.674 102.502C260.674 103.595 265.022 102.685 265.022 105.646C265.022 106.982 263.882 108.001 261.845 108.001C260.567 108.001 259.336 107.575 258.561 106.861V106.86Z" fill="white"/>
<path d="M109.419 41.0002V54.667V68.3337H123.097V54.667V41.0002V27.3335H109.419V41.0002Z" fill="white"/>
<path d="M54.7095 54.667V68.3337H68.3869V54.667V41.0002H54.7095V54.667Z" fill="white"/>
<path d="M109.419 0H95.7417V13.6667H109.419V0Z" fill="white"/>
<path d="M177.806 27.3335V41.0002V54.667H164.129H150.451V41.0002V27.3335V13.6667H136.774V27.3335V41.0002V54.667V68.3337H150.451H164.129H177.806H191.483V54.667V41.0002V27.3335V13.6667H177.806V27.3335Z" fill="white"/>
<path d="M54.7095 13.6667V27.3335H68.3869H82.0642V41.0002V54.667V68.3337H95.7416V54.667V41.0002V27.3335V13.6667H82.0642H54.7095Z" fill="white"/>
<path d="M0 13.6667V27.3335V41.0002V54.667V68.3337H13.6774H27.3548H41.0322V54.667H27.3548H13.6774V41.0002V27.3335H27.3548H41.0322V13.6667H27.3548H0Z" fill="white"/>
<path d="M246.193 41.0002V54.667H232.516H218.838H205.161V68.3337H218.838H232.516H246.193H259.87V54.667V41.0002H246.193Z" fill="white"/>
<path d="M218.492 27.4054H232.169H245.847H259.524V13.7386H245.847H232.169H218.492H204.814V27.4036V27.4054V41.0704H218.492V27.4054Z" fill="white"/>
</g>
<defs>
<clipPath id="clip0_7205_293">
<rect width="299" height="108" fill="white"/>
</clipPath>
</defs>
</svg>
