<svg width="502" height="70" viewBox="0 0 502 70" fill="none" xmlns="http://www.w3.org/2000/svg">
<g clip-path="url(#clip0_7205_553)">
<path d="M280.032 33.7104C280.032 30.5202 282.398 28.3428 285.353 28.3428C287.391 28.3428 288.667 29.3228 289.476 30.5366L288.153 31.2366C287.609 30.3656 286.581 29.7274 285.353 29.7274C283.253 29.7274 281.635 31.3766 281.635 33.7104C281.635 36.0442 283.253 37.6934 285.353 37.6934C286.582 37.6934 287.609 37.0552 288.153 36.1842L289.476 36.8842C288.652 38.097 287.391 39.078 285.353 39.078C282.397 39.078 280.032 36.8997 280.032 33.7104Z" fill="currentColor"/>
<path d="M294.298 31.1893C296.553 31.1893 297.953 32.9476 297.953 35.2505V35.5923H292.01C292.119 36.8688 293.053 37.9261 294.562 37.9261C295.356 37.9261 296.227 37.6143 296.787 37.0388L297.439 37.957C296.693 38.6889 295.635 39.0771 294.421 39.0771C292.181 39.0771 290.532 37.4897 290.532 35.125C290.532 32.9467 292.104 31.1884 294.298 31.1884V31.1893ZM291.995 34.5814H296.585C296.554 33.5858 295.885 32.3403 294.298 32.3403C292.71 32.3403 292.072 33.554 291.995 34.5814Z" fill="currentColor"/>
<path d="M304.78 34.0831C304.78 32.8394 304.142 32.4339 303.177 32.4339C302.306 32.4339 301.513 32.9621 301.107 33.5231V38.8907H299.707V31.3756H301.107V32.4339C301.605 31.8266 302.601 31.1893 303.768 31.1893C305.355 31.1893 306.18 32.0293 306.18 33.6167V38.8907H304.78V34.0831Z" fill="currentColor"/>
<path d="M308.684 37.226V32.6048H307.44V31.3757H308.684V29.3219H310.084V31.3757H311.61V32.6048H310.084V36.9142C310.084 37.4433 310.333 37.8325 310.816 37.8325C311.142 37.8325 311.438 37.6924 311.579 37.537L311.936 38.5952C311.64 38.8752 311.204 39.078 310.473 39.078C309.291 39.078 308.685 38.4089 308.685 37.226H308.684Z" fill="currentColor"/>
<path d="M313.162 31.3766H314.562V32.5285C315.137 31.7821 316.025 31.2057 317.02 31.2057V32.6212C316.88 32.5903 316.725 32.574 316.537 32.574C315.837 32.574 314.888 33.1031 314.561 33.6631V38.8907H313.161V31.3757L313.162 31.3766Z" fill="currentColor"/>
<path d="M317.953 35.1259C317.953 32.963 319.416 31.1893 321.749 31.1893C324.083 31.1893 325.545 32.963 325.545 35.1259C325.545 37.2888 324.098 39.078 321.749 39.078C319.4 39.078 317.953 37.3042 317.953 35.1259ZM324.083 35.1259C324.083 33.7103 323.259 32.4339 321.75 32.4339C320.241 32.4339 319.416 33.7103 319.416 35.1259C319.416 36.5414 320.256 37.8333 321.75 37.8333C323.244 37.8333 324.083 36.5569 324.083 35.1259Z" fill="currentColor"/>
<path d="M331.61 36.2305C332.309 37.0079 333.43 37.6934 334.876 37.6934C336.557 37.6934 337.148 36.8369 337.148 36.0905C337.148 35.0014 335.965 34.6895 334.643 34.3477C332.979 33.9113 331.05 33.4294 331.05 31.3129C331.05 29.6019 332.559 28.3564 334.721 28.3564C336.324 28.3564 337.585 28.8701 338.502 29.8038L337.599 30.9556C336.806 30.1156 335.717 29.7419 334.597 29.7419C333.477 29.7419 332.651 30.3338 332.651 31.2048C332.651 32.1384 333.771 32.4339 335.063 32.7603C336.759 33.2112 338.735 33.7413 338.735 35.9496C338.735 37.5679 337.616 39.0771 334.814 39.0771C332.963 39.0771 331.61 38.4079 330.722 37.427L331.61 36.2287V36.2305Z" fill="currentColor"/>
<path d="M340.288 29.2291C340.288 28.7318 340.708 28.3264 341.191 28.3264C341.674 28.3264 342.094 28.7309 342.094 29.2291C342.094 29.7274 341.69 30.1165 341.191 30.1165C340.692 30.1165 340.288 29.7274 340.288 29.2291ZM340.506 31.3766H341.906V38.8916H340.506V31.3766Z" fill="currentColor"/>
<path d="M349.202 34.0831C349.202 32.8394 348.564 32.4339 347.599 32.4339C346.728 32.4339 345.935 32.9621 345.529 33.5231V38.8907H344.129V31.3756H345.529V32.4339C346.027 31.8266 347.023 31.1893 348.19 31.1893C349.777 31.1893 350.602 32.0293 350.602 33.6167V38.8907H349.202V34.0831Z" fill="currentColor"/>
<path d="M353.431 39.7935C354.053 40.509 354.816 40.789 355.843 40.789C357.01 40.789 358.177 40.229 358.177 38.6416V37.6616C357.601 38.408 356.714 38.9526 355.702 38.9526C353.758 38.9526 352.358 37.5206 352.358 35.0632C352.358 32.6058 353.759 31.1884 355.702 31.1884C356.683 31.1884 357.57 31.6557 358.177 32.4649V31.3757H359.577V38.5953C359.577 41.1782 357.694 41.94 355.843 41.94C354.583 41.94 353.665 41.6755 352.762 40.82L353.431 39.7926V39.7935ZM358.177 33.5386C357.787 32.9313 356.932 32.434 356.092 32.434C354.691 32.434 353.821 33.5231 353.821 35.0632C353.821 36.6033 354.691 37.7079 356.092 37.7079C356.932 37.7079 357.788 37.1943 358.177 36.5879V33.5386Z" fill="currentColor"/>
<path d="M366.87 37.8643C366.295 38.4861 365.345 39.078 364.194 39.078C362.592 39.078 361.798 38.2688 361.798 36.6815V31.3757H363.198V36.2151C363.198 37.4588 363.821 37.8334 364.786 37.8334C365.656 37.8334 366.45 37.3361 366.87 36.7751V31.3766H368.27V38.8916H366.87V37.8643Z" fill="currentColor"/>
<path d="M370.493 28.5137H371.893V38.8916H370.493V28.5137Z" fill="currentColor"/>
<path d="M378.753 38.0661C378.162 38.7198 377.306 39.078 376.295 39.078C375.051 39.078 373.681 38.238 373.681 36.5879C373.681 34.9378 375.034 34.1295 376.295 34.1295C377.306 34.1295 378.177 34.4559 378.753 35.125V33.8804C378.753 32.9467 377.99 32.3876 376.918 32.3876C376.061 32.3876 375.332 32.714 374.662 33.3831L374.055 32.4176C374.895 31.5939 375.922 31.1884 377.136 31.1884C378.77 31.1884 380.154 31.9048 380.154 33.8177V38.8898H378.753V38.0652V38.0661ZM378.753 35.966C378.333 35.406 377.601 35.1096 376.824 35.1096C375.813 35.1096 375.097 35.7169 375.097 36.6033C375.097 37.4897 375.813 38.0961 376.824 38.0961C377.601 38.0961 378.333 37.8007 378.753 37.2406V35.9642V35.966Z" fill="currentColor"/>
<path d="M382.391 31.3766H383.791V32.5285C384.366 31.7821 385.254 31.2057 386.249 31.2057V32.6212C386.109 32.5903 385.954 32.574 385.766 32.574C385.066 32.574 384.117 33.1031 383.79 33.6631V38.8907H382.39V31.3757L382.391 31.3766Z" fill="currentColor"/>
<path d="M397.012 37.8179C396.453 38.5643 395.551 39.078 394.554 39.078C392.594 39.078 391.194 37.5997 391.194 35.1414C391.194 32.683 392.594 31.1893 394.554 31.1893C395.519 31.1893 396.406 31.6566 397.012 32.4657V28.5137H398.413V38.8916H397.012V37.8188V37.8179ZM397.012 33.5385C396.623 32.9312 395.783 32.4339 394.929 32.4339C393.528 32.4339 392.657 33.5695 392.657 35.1414C392.657 36.7133 393.528 37.8334 394.929 37.8334C395.784 37.8334 396.624 37.3506 397.012 36.7442V33.5385Z" fill="currentColor"/>
<path d="M403.949 31.1893C406.205 31.1893 407.605 32.9476 407.605 35.2505V35.5923H401.662C401.771 36.8688 402.705 37.9261 404.214 37.9261C405.007 37.9261 405.878 37.6143 406.438 37.0388L407.091 37.957C406.345 38.6889 405.287 39.0771 404.073 39.0771C401.833 39.0771 400.184 37.4897 400.184 35.125C400.184 32.9467 401.756 31.1884 403.949 31.1884V31.1893ZM401.647 34.5814H406.237C406.206 33.5858 405.537 32.3403 403.949 32.3403C402.362 32.3403 401.724 33.554 401.647 34.5814Z" fill="currentColor"/>
<path d="M413.406 28.5137H414.962V38.8916H413.406V28.5137Z" fill="currentColor"/>
<path d="M422.319 34.0831C422.319 32.8394 421.68 32.4339 420.716 32.4339C419.845 32.4339 419.051 32.9621 418.646 33.5231V38.8907H417.246V31.3756H418.646V32.4339C419.144 31.8266 420.14 31.1893 421.307 31.1893C422.894 31.1893 423.719 32.0293 423.719 33.6167V38.8907H422.319V34.0831Z" fill="currentColor"/>
<path d="M424.837 31.3766H426.33L428.679 37.2733L431.028 31.3766H432.537L429.442 38.8916H427.933L424.837 31.3766Z" fill="currentColor"/>
<path d="M436.971 31.1893C439.226 31.1893 440.626 32.9476 440.626 35.2505V35.5923H434.684C434.793 36.8688 435.726 37.9261 437.235 37.9261C438.029 37.9261 438.9 37.6143 439.46 37.0388L440.113 37.957C439.366 38.6889 438.308 39.0771 437.094 39.0771C434.855 39.0771 433.206 37.4897 433.206 35.125C433.206 32.9467 434.777 31.1884 436.971 31.1884V31.1893ZM434.668 34.5814H439.258C439.227 33.5858 438.558 32.3403 436.971 32.3403C435.384 32.3403 434.745 33.554 434.668 34.5814Z" fill="currentColor"/>
<path d="M442.398 36.8842C442.912 37.4442 443.907 37.957 444.919 37.957C445.931 37.957 446.537 37.5206 446.537 36.8842C446.537 36.1369 445.681 35.8887 444.717 35.6705C443.441 35.375 441.947 35.0322 441.947 33.4149C441.947 32.2166 442.974 31.1893 444.81 31.1893C446.101 31.1893 447.035 31.6566 447.673 32.263L447.051 33.243C446.615 32.7148 445.774 32.3257 444.826 32.3257C443.878 32.3257 443.286 32.6985 443.286 33.3058C443.286 33.9585 444.095 34.1767 445.029 34.3949C446.336 34.6904 447.891 35.0477 447.891 36.7751C447.891 38.0661 446.833 39.078 444.858 39.078C443.598 39.078 442.493 38.6888 441.731 37.9106L442.399 36.8842H442.398Z" fill="currentColor"/>
<path d="M449.942 37.226V32.6048H448.698V31.3757H449.942V29.3219H451.342V31.3757H452.868V32.6048H451.342V36.9142C451.342 37.4433 451.591 37.8325 452.074 37.8325C452.4 37.8325 452.696 37.6924 452.837 37.537L453.194 38.5952C452.898 38.8752 452.462 39.078 451.731 39.078C450.549 39.078 449.943 38.4089 449.943 37.226H449.942Z" fill="currentColor"/>
<path d="M454.203 29.2291C454.203 28.7318 454.623 28.3264 455.106 28.3264C455.588 28.3264 456.008 28.7309 456.008 29.2291C456.008 29.7274 455.605 30.1165 455.106 30.1165C454.606 30.1165 454.203 29.7274 454.203 29.2291ZM454.421 31.3766H455.821V38.8916H454.421V31.3766Z" fill="currentColor"/>
<path d="M458.651 39.7935C459.273 40.509 460.035 40.789 461.062 40.789C462.229 40.789 463.396 40.229 463.396 38.6416V37.6616C462.821 38.408 461.933 38.9526 460.922 38.9526C458.977 38.9526 457.577 37.5206 457.577 35.0632C457.577 32.6058 458.978 31.1884 460.922 31.1884C461.902 31.1884 462.789 31.6557 463.396 32.4649V31.3757H464.796V38.5953C464.796 41.1782 462.913 41.94 461.062 41.94C459.803 41.94 458.884 41.6755 457.982 40.82L458.651 39.7926V39.7935ZM463.396 33.5386C463.006 32.9313 462.152 32.434 461.312 32.434C459.911 32.434 459.04 33.5231 459.04 35.0632C459.04 36.6033 459.911 37.7079 461.312 37.7079C462.152 37.7079 463.007 37.1943 463.396 36.5879V33.5386Z" fill="currentColor"/>
<path d="M471.655 38.0661C471.064 38.7198 470.208 39.078 469.197 39.078C467.952 39.078 466.582 38.238 466.582 36.5879C466.582 34.9378 467.936 34.1295 469.197 34.1295C470.208 34.1295 471.078 34.4559 471.655 35.125V33.8804C471.655 32.9467 470.892 32.3876 469.819 32.3876C468.963 32.3876 468.233 32.714 467.564 33.3831L466.957 32.4176C467.797 31.5939 468.824 31.1884 470.038 31.1884C471.671 31.1884 473.056 31.9048 473.056 33.8177V38.8898H471.655V38.0652V38.0661ZM471.655 35.966C471.235 35.406 470.503 35.1096 469.726 35.1096C468.715 35.1096 467.999 35.7169 467.999 36.6033C467.999 37.4897 468.715 38.0961 469.726 38.0961C470.503 38.0961 471.235 37.8007 471.655 37.2406V35.9642V35.966Z" fill="currentColor"/>
<path d="M478.655 31.1893C480.071 31.1893 480.926 31.7811 481.471 32.5121L480.537 33.3685C480.086 32.7303 479.479 32.4348 478.716 32.4348C477.238 32.4348 476.29 33.5703 476.29 35.1268C476.29 36.6833 477.238 37.8342 478.716 37.8342C479.479 37.8342 480.085 37.5224 480.537 36.9006L481.471 37.757C480.926 38.4879 480.071 39.0798 478.655 39.0798C476.384 39.0798 474.827 37.3833 474.827 35.1277C474.827 32.8721 476.384 31.1911 478.655 31.1911V31.1893Z" fill="currentColor"/>
<path d="M482.79 29.2291C482.79 28.7318 483.21 28.3264 483.693 28.3264C484.175 28.3264 484.595 28.7309 484.595 29.2291C484.595 29.7274 484.192 30.1165 483.693 30.1165C483.193 30.1165 482.79 29.7274 482.79 29.2291ZM483.008 31.3766H484.408V38.8916H483.008V31.3766Z" fill="currentColor"/>
<path d="M486.165 35.1259C486.165 32.963 487.628 31.1893 489.962 31.1893C492.295 31.1893 493.758 32.963 493.758 35.1259C493.758 37.2888 492.311 39.078 489.962 39.078C487.613 39.078 486.165 37.3042 486.165 35.1259ZM492.295 35.1259C492.295 33.7104 491.471 32.4339 489.962 32.4339C488.453 32.4339 487.629 33.7104 487.629 35.1259C487.629 36.5415 488.469 37.8334 489.962 37.8334C491.456 37.8334 492.295 36.5569 492.295 35.1259ZM489.402 30.2411L491.642 28H493.027L490.429 30.2411H489.402Z" fill="currentColor"/>
<path d="M500.6 34.0831C500.6 32.8394 499.962 32.4339 498.997 32.4339C498.127 32.4339 497.333 32.9621 496.928 33.5231V38.8907H495.528V31.3756H496.928V32.4339C497.426 31.8266 498.421 31.1893 499.588 31.1893C501.176 31.1893 502 32.0293 502 33.6167V38.8907H500.6V34.0831Z" fill="currentColor"/>
<path d="M283.736 46.7449C285.991 46.7449 287.391 48.5032 287.391 50.806V51.1479H281.449C281.558 52.4243 282.491 53.4817 284.001 53.4817C284.794 53.4817 285.665 53.1698 286.225 52.5943L286.878 53.5126C286.131 54.2444 285.073 54.6326 283.86 54.6326C281.62 54.6326 279.971 53.0453 279.971 50.6806C279.971 48.5023 281.542 46.744 283.736 46.744V46.7449ZM281.433 50.1369H286.023C285.992 49.1414 285.323 47.8958 283.736 47.8958C282.149 47.8958 281.511 49.1096 281.433 50.1369Z" fill="currentColor"/>
<path d="M294.219 49.6387C294.219 48.395 293.581 47.9895 292.617 47.9895C291.746 47.9895 290.952 48.5177 290.547 49.0787V54.4463H289.147V46.9313H290.547V47.9895C291.045 47.3822 292.04 46.7449 293.207 46.7449C294.795 46.7449 295.619 47.5849 295.619 49.1723V54.4463H294.219V49.6387Z" fill="currentColor"/>
<path d="M304.158 54.4462V46.013H301.124V44.0683H309.4V46.013H306.382V54.4462H304.158Z" fill="currentColor"/>
<path d="M308.761 50.6815C308.761 48.5032 310.363 46.7449 312.65 46.7449C314.938 46.7449 316.415 48.4259 316.415 50.8833V51.3197H310.83C310.954 52.268 311.717 53.0626 312.992 53.0626C313.63 53.0626 314.518 52.7825 314.999 52.3161L315.87 53.5917C315.124 54.2772 313.941 54.6345 312.774 54.6345C310.487 54.6345 308.76 53.0944 308.76 50.6824L308.761 50.6815ZM312.65 48.3168C311.42 48.3168 310.892 49.235 310.799 49.9814H314.501C314.455 49.2659 313.957 48.3168 312.65 48.3168Z" fill="currentColor"/>
<path d="M317.361 50.6815C317.361 48.3786 319.026 46.7449 321.344 46.7449C322.884 46.7449 323.818 47.414 324.315 48.0986L323.024 49.3123C322.667 48.7841 322.122 48.5032 321.437 48.5032C320.239 48.5032 319.399 49.3741 319.399 50.6815C319.399 51.9889 320.239 52.8753 321.437 52.8753C322.123 52.8753 322.667 52.5634 323.024 52.0661L324.315 53.2644C323.818 53.9644 322.884 54.6336 321.344 54.6336C319.026 54.6336 317.361 52.9998 317.361 50.6815Z" fill="currentColor"/>
<path d="M330.676 54.4463V49.9033C330.676 48.8605 330.131 48.5023 329.291 48.5023C328.514 48.5023 327.907 48.9387 327.581 49.3896V54.4463H325.605V46.9313H327.581V47.9122C328.063 47.3367 328.981 46.7449 330.21 46.7449C331.859 46.7449 332.652 47.6786 332.652 49.1414V54.4472H330.676V54.4463Z" fill="currentColor"/>
<path d="M334.129 50.6815C334.129 48.5495 335.621 46.7449 338.096 46.7449C340.57 46.7449 342.078 48.5495 342.078 50.6815C342.078 52.8135 340.586 54.6336 338.096 54.6336C335.606 54.6336 334.129 52.8289 334.129 50.6815ZM340.025 50.6815C340.025 49.5141 339.325 48.5032 338.096 48.5032C336.867 48.5032 336.182 49.5141 336.182 50.6815C336.182 51.8488 336.868 52.8753 338.096 52.8753C339.324 52.8753 340.025 51.8643 340.025 50.6815Z" fill="currentColor"/>
<path d="M343.539 54.4462V44.0683H345.514V54.4462H343.539Z" fill="currentColor"/>
<path d="M346.992 50.6815C346.992 48.5495 348.485 46.7449 350.959 46.7449C353.432 46.7449 354.941 48.5495 354.941 50.6815C354.941 52.8135 353.449 54.6336 350.959 54.6336C348.469 54.6336 346.992 52.8289 346.992 50.6815ZM352.888 50.6815C352.888 49.5141 352.188 48.5032 350.959 48.5032C349.73 48.5032 349.045 49.5141 349.045 50.6815C349.045 51.8488 349.731 52.8753 350.959 52.8753C352.187 52.8753 352.888 51.8643 352.888 50.6815Z" fill="currentColor"/>
<path d="M360.524 54.4462L358.813 51.9097L357.086 54.4462H354.892L357.553 50.5878L355.049 46.9312H357.258L358.813 49.2495L360.353 46.9312H362.562L360.041 50.5878L362.733 54.4462H360.524Z" fill="currentColor"/>
<path d="M365.097 45.7966H363.713L365.796 43.5555H367.617L365.097 45.7966ZM363.713 54.4463V46.9312H365.688V54.4463H363.713Z" fill="currentColor"/>
<path d="M372.159 54.4463V53.669C371.645 54.2763 370.758 54.6336 369.779 54.6336C368.581 54.6336 367.165 53.8244 367.165 52.1434C367.165 50.4624 368.581 49.7169 369.779 49.7169C370.774 49.7169 371.661 50.0433 372.159 50.6342V49.6232C372.159 48.8605 371.506 48.3632 370.51 48.3632C369.7 48.3632 368.954 48.6586 368.315 49.2496L367.569 47.9268C368.487 47.1176 369.669 46.744 370.852 46.744C372.563 46.744 374.135 47.4295 374.135 49.5914V54.4454H372.159V54.4463ZM372.159 52.6416V51.7079C371.833 51.2715 371.21 51.0542 370.573 51.0542C369.794 51.0542 369.156 51.4588 369.156 52.1907C369.156 52.9225 369.794 53.2953 370.573 53.2953C371.21 53.2953 371.833 53.0771 372.159 52.6425V52.6416Z" fill="currentColor"/>
<path d="M375.44 53.4662L376.296 52.0816C376.841 52.5953 377.961 53.1089 378.894 53.1089C379.75 53.1089 380.154 52.7671 380.154 52.2998C380.154 51.0552 375.689 52.067 375.689 49.1105C375.689 47.8504 376.793 46.7449 378.77 46.7449C380.046 46.7449 381.057 47.1813 381.803 47.7722L381.01 49.1259C380.559 48.6432 379.703 48.255 378.785 48.255C378.07 48.255 377.603 48.5814 377.603 49.0014C377.603 50.1215 382.052 49.1887 382.052 52.2225C382.052 53.5908 380.886 54.6345 378.8 54.6345C377.493 54.6345 376.233 54.1981 375.44 53.4671V53.4662Z" fill="currentColor"/>
<path d="M387.54 54.4462V44.0683H389.749V54.4462H387.54Z" fill="currentColor"/>
<path d="M396.826 54.4463V49.9033C396.826 48.8605 396.282 48.5023 395.442 48.5023C394.664 48.5023 394.057 48.9387 393.731 49.3896V54.4463H391.755V46.9313H393.731V47.9122C394.213 47.3367 395.132 46.7449 396.36 46.7449C398.009 46.7449 398.802 47.6786 398.802 49.1414V54.4472H396.826V54.4463Z" fill="currentColor"/>
<path d="M401.15 52.5798V48.6586H399.905V46.9312H401.15V44.8774H403.141V46.9312H404.666V48.6586H403.141V52.0497C403.141 52.517 403.389 52.8743 403.826 52.8743C404.121 52.8743 404.401 52.7661 404.51 52.6561L404.93 54.1499C404.635 54.4144 404.107 54.6326 403.281 54.6326C401.897 54.6326 401.15 53.9171 401.15 52.5789L401.15 52.5798Z" fill="currentColor"/>
<path d="M405.536 50.6815C405.536 48.5032 407.138 46.7449 409.425 46.7449C411.712 46.7449 413.189 48.4259 413.189 50.8833V51.3197H407.604C407.728 52.268 408.491 53.0626 409.767 53.0626C410.405 53.0626 411.292 52.7825 411.774 52.3161L412.645 53.5917C411.898 54.2772 410.716 54.6345 409.548 54.6345C407.261 54.6345 405.535 53.0944 405.535 50.6824L405.536 50.6815ZM409.425 48.3168C408.195 48.3168 407.667 49.235 407.573 49.9814H411.276C411.229 49.2659 410.731 48.3168 409.425 48.3168Z" fill="currentColor"/>
<path d="M414.62 54.4462V44.0683H416.595V54.4462H414.62Z" fill="currentColor"/>
<path d="M418.352 44.9402C418.352 44.2874 418.896 43.7737 419.534 43.7737C420.172 43.7737 420.717 44.2874 420.717 44.9402C420.717 45.593 420.188 46.123 419.534 46.123C418.881 46.123 418.352 45.5939 418.352 44.9402ZM418.554 54.4463V46.9312H420.53V54.4463H418.554Z" fill="currentColor"/>
<path d="M427.14 54.4462L425.43 51.9097L423.702 54.4462H421.509L424.17 50.5878L421.665 46.9312H423.874L425.43 49.2495L426.97 46.9312H429.178L426.658 50.5878L429.349 54.4462H427.14Z" fill="currentColor"/>
<path d="M429.318 50.6815C429.318 48.5032 430.919 46.7449 433.206 46.7449C435.494 46.7449 436.971 48.4259 436.971 50.8833V51.3197H431.386C431.51 52.268 432.273 53.0626 433.548 53.0626C434.186 53.0626 435.074 52.7825 435.555 52.3161L436.426 53.5917C435.68 54.2772 434.497 54.6345 433.33 54.6345C431.043 54.6345 429.317 53.0944 429.317 50.6824L429.318 50.6815ZM433.206 48.3168C431.977 48.3168 431.448 49.235 431.355 49.9814H435.057C435.011 49.2659 434.513 48.3168 433.206 48.3168Z" fill="currentColor"/>
<path d="M443.472 54.4463V49.9033C443.472 48.8605 442.927 48.5023 442.087 48.5023C441.31 48.5023 440.703 48.9387 440.376 49.3896V54.4463H438.401V46.9313H440.376V47.9122C440.859 47.3367 441.777 46.7449 443.005 46.7449C444.654 46.7449 445.448 47.6786 445.448 49.1414V54.4472H443.472V54.4463Z" fill="currentColor"/>
<path d="M447.796 52.5798V48.6586H446.551V46.9312H447.796V44.8774H449.788V46.9312H451.312V48.6586H449.788V52.0497C449.788 52.517 450.036 52.8743 450.472 52.8743C450.767 52.8743 451.047 52.7661 451.157 52.6561L451.577 54.1499C451.281 54.4144 450.753 54.6326 449.928 54.6326C448.543 54.6326 447.797 53.9171 447.797 52.5789L447.796 52.5798Z" fill="currentColor"/>
<path d="M452.18 50.6815C452.18 48.5032 453.783 46.7449 456.07 46.7449C458.357 46.7449 459.834 48.4259 459.834 50.8833V51.3197H454.249C454.374 52.268 455.136 53.0626 456.412 53.0626C457.05 53.0626 457.937 52.7825 458.419 52.3161L459.29 53.5917C458.544 54.2772 457.361 54.6345 456.194 54.6345C453.906 54.6345 452.18 53.0944 452.18 50.6824V50.6815ZM456.071 48.3168C454.841 48.3168 454.313 49.235 454.219 49.9814H457.922C457.875 49.2659 457.377 48.3168 456.071 48.3168Z" fill="currentColor"/>
<path d="M460.612 53.4662L461.468 52.0816C462.013 52.5953 463.133 53.1089 464.066 53.1089C464.922 53.1089 465.326 52.7671 465.326 52.2998C465.326 51.0552 460.861 52.067 460.861 49.1105C460.861 47.8504 461.965 46.7449 463.942 46.7449C465.218 46.7449 466.229 47.1813 466.975 47.7722L466.182 49.1259C465.732 48.6432 464.875 48.255 463.957 48.255C463.242 48.255 462.774 48.5814 462.774 49.0014C462.774 50.1215 467.224 49.1887 467.224 52.2225C467.224 53.5908 466.058 54.6345 463.973 54.6345C462.665 54.6345 461.405 54.1981 460.612 53.4671V53.4662Z" fill="currentColor"/>
<path d="M111.988 42V56V70H125.987V56V42V28H111.988V42Z" fill="currentColor"/>
<path d="M55.9941 56V70H69.9927V56V42H55.9941V56Z" fill="currentColor"/>
<path d="M111.988 0H97.9897V14H111.988V0Z" fill="currentColor"/>
<path d="M181.981 28V42V56H167.982H153.984V42V28V14H139.985V28V42V56V70H153.984H167.982H181.981H195.979V56V42V28V14H181.981V28Z" fill="currentColor"/>
<path d="M55.9941 14V28H69.9927H83.9912V42V56V70H97.9897V56V42V28V14H83.9912H55.9941Z" fill="currentColor"/>
<path d="M0 14V28V42V56V70H13.9985H27.9971H41.9956V56H27.9971H13.9985V42V28H27.9971H41.9956V14H27.9971H0Z" fill="currentColor"/>
<path d="M251.974 42V56H237.975H223.977H209.978V70H223.977H237.975H251.974H265.972V56V42H251.974Z" fill="currentColor"/>
<path d="M223.977 28.0737H237.975H251.974H265.972V14.0737H251.974H237.975H223.977H209.978V28.0718V28.0737V42.0719H223.977V28.0737Z" fill="currentColor"/>
</g>
<defs>
<clipPath id="clip0_7205_553">
<rect width="502" height="70" fill="white"/>
</clipPath>
</defs>
</svg>
