<svg width="260" height="68" viewBox="0 0 260 68" fill="none" xmlns="http://www.w3.org/2000/svg">
<g clip-path="url(#clip0_7205_423)">
<path d="M109.419 41.0002V54.667V68.3337H123.097V54.667V41.0002V27.3335H109.419V41.0002Z" fill="white"/>
<path d="M54.7095 54.667V68.3337H68.3869V54.667V41.0002H54.7095V54.667Z" fill="white"/>
<path d="M109.419 0H95.7417V13.6667H109.419V0Z" fill="white"/>
<path d="M177.806 27.3335V41.0002V54.667H164.129H150.451V41.0002V27.3335V13.6667H136.774V27.3335V41.0002V54.667V68.3337H150.451H164.129H177.806H191.483V54.667V41.0002V27.3335V13.6667H177.806V27.3335Z" fill="white"/>
<path d="M54.7095 13.6667V27.3335H68.3869H82.0642V41.0002V54.667V68.3337H95.7416V54.667V41.0002V27.3335V13.6667H82.0642H54.7095Z" fill="white"/>
<path d="M0 13.6667V27.3335V41.0002V54.667V68.3337H13.6774H27.3548H41.0322V54.667H27.3548H13.6774V41.0002V27.3335H27.3548H41.0322V13.6667H27.3548H0Z" fill="white"/>
<path d="M246.193 41.0002V54.667H232.516H218.838H205.161V68.3337H218.838H232.516H246.193H259.87V54.667V41.0002H246.193Z" fill="white"/>
<path d="M218.492 27.4054H232.169H245.847H259.524V13.7386H245.847H232.169H218.492H204.814V27.4036V27.4054V41.0704H218.492V27.4054Z" fill="white"/>
</g>
<defs>
<clipPath id="clip0_7205_423">
<rect width="260" height="68" fill="white"/>
</clipPath>
</defs>
</svg>
