<svg width="24" height="24" viewBox="0 0 24 24" fill="none" xmlns="http://www.w3.org/2000/svg">
<path d="M2.5862 15.4079L6.8852 19.7069C6.97791 19.7999 7.0881 19.8737 7.20944 19.924C7.33078 19.9743 7.46086 20.0001 7.5922 19.9999H19.5932V17.9999H12.6352L19.8572 10.7779C20.6372 9.99886 20.6372 8.72886 19.8572 7.94986L14.9062 2.99986C14.5308 2.62565 14.0223 2.41553 13.4922 2.41553C12.9621 2.41553 12.4536 2.62565 12.0782 2.99986L7.3282 7.74886L2.5742 12.5919C2.2062 12.9689 2.00119 13.4755 2.00344 14.0023C2.00568 14.5292 2.215 15.034 2.5862 15.4079ZM13.4922 4.41386L18.4422 9.36386L15.8562 11.9499L10.9062 6.99986L13.4922 4.41386ZM8.7492 9.15586L9.4922 8.41386L14.4422 13.3639L9.8852 17.9209C9.86087 17.946 9.83784 17.9724 9.8162 17.9999H8.0062L4.0012 13.9929L8.7492 9.15586Z" fill="currentcolor"/>
</svg>
