<svg width="36" height="29" viewBox="0 0 36 29" fill="none" xmlns="http://www.w3.org/2000/svg">
<path d="M7.73183 11.3926C4.06266 12.2651 1.3335 15.5642 1.3335 19.5001C1.3335 24.1026 5.06433 27.8334 9.66683 27.8334C10.456 27.8334 11.2202 27.7234 11.9443 27.5184M28.046 11.3926C31.7152 12.2651 34.4435 15.5642 34.4435 19.5001C34.4435 24.1026 30.7127 27.8334 26.1102 27.8334C25.321 27.8334 24.5568 27.7234 23.8335 27.5184M28.0002 11.1667C28.0002 5.64425 23.5227 1.16675 18.0002 1.16675C12.4777 1.16675 8.00016 5.64425 8.00016 11.1667M12.221 17.7342L18.0002 11.9367L23.9435 17.8334M18.0002 26.1667V14.8851" stroke="black" stroke-width="2" stroke-linecap="round" stroke-linejoin="round"/>
</svg>
