<svg width="20" height="20" viewBox="0 0 20 20" fill="none" xmlns="http://www.w3.org/2000/svg">
<path d="M14.57 20.0001C14.8356 20.0017 15.0989 19.9503 15.3444 19.849C15.5899 19.7477 15.8128 19.5985 16 19.4101L18.71 16.7001C18.8963 16.5128 19.0008 16.2593 19.0008 15.9951C19.0008 15.731 18.8963 15.4775 18.71 15.2901L14.71 11.2901C14.5227 11.1039 14.2692 10.9993 14.005 10.9993C13.7408 10.9993 13.4874 11.1039 13.3 11.2901L11.7 12.8801C10.5923 12.5848 9.56634 12.041 8.70003 11.2901C7.95115 10.4224 7.40766 9.397 7.11003 8.29014L8.70003 6.69014C8.88628 6.50278 8.99083 6.24933 8.99083 5.98514C8.99083 5.72096 8.88628 5.4675 8.70003 5.28014L4.70003 1.28014C4.51267 1.09389 4.25922 0.989349 3.99503 0.989349C3.73085 0.989349 3.4774 1.09389 3.29003 1.28014L0.590033 4.00014C0.401665 4.18738 0.252479 4.41027 0.15118 4.65579C0.049881 4.90131 -0.00150075 5.16455 3.33667e-05 5.43014C0.0907563 9.27243 1.62611 12.9394 4.30003 15.7001C7.06075 18.3741 10.7277 19.9094 14.57 20.0001ZM4.00003 3.41014L6.59003 6.00014L5.30003 7.29014C5.17785 7.40459 5.08636 7.54788 5.03395 7.70687C4.98153 7.86586 4.96987 8.03547 5.00003 8.20014C5.3738 9.87051 6.16514 11.4188 7.30003 12.7001C8.58039 13.8365 10.1291 14.628 11.8 15.0001C11.9622 15.034 12.1303 15.0271 12.2891 14.98C12.4479 14.9329 12.5926 14.847 12.71 14.7301L14 13.4101L16.59 16.0001L14.59 18.0001C11.2738 17.9148 8.10954 16.5913 5.72003 14.2901C3.41295 11.8997 2.08564 8.73125 2.00003 5.41014L4.00003 3.41014ZM18 9.00014H20C20.026 7.81114 19.8109 6.6292 19.3678 5.52555C18.9247 4.4219 18.2627 3.41939 17.4217 2.57844C16.5808 1.73749 15.5783 1.07551 14.4746 0.632394C13.371 0.189282 12.189 -0.0257898 11 0.000141506V2.00014C11.9279 1.96804 12.8525 2.12715 13.7163 2.46758C14.5801 2.808 15.3647 3.32246 16.0212 3.97898C16.6777 4.6355 17.1922 5.42005 17.5326 6.28385C17.873 7.14765 18.0321 8.07224 18 9.00014Z" fill="black"/>
<path d="M11.0001 6.00012C13.1001 6.00012 14.0001 6.90012 14.0001 9.00012H16.0001C16.0001 5.78012 14.2201 4.00012 11.0001 4.00012V6.00012Z" fill="black"/>
</svg>
