<svg width="148" height="138" viewBox="0 0 148 138" fill="none" xmlns="http://www.w3.org/2000/svg">
<g clip-path="url(#clip0_7206_2996)">
<path d="M74.1933 82.2093C74.1933 82.2093 74.0644 82.2093 73.9678 82.2093C73.8711 82.2093 73.7745 82.2742 73.6778 82.3067C73.5812 82.3391 73.5168 82.404 73.4846 82.4365C73.4846 82.5988 73.4846 82.7935 73.549 83.0531C73.5812 83.3128 73.6134 83.5724 73.6778 83.8645C73.7423 84.1566 73.7745 84.4487 73.8389 84.7084C73.9034 84.968 73.9678 85.2276 74 85.4224C74.0644 85.6171 74.0967 85.7469 74.1289 85.8118C74.2899 85.9092 74.5477 86.0066 74.9021 86.1039C75.2242 86.2013 75.6108 86.2987 76.0296 86.396C76.4484 86.4609 76.8994 86.4934 77.3827 86.5259C78.1881 86.5259 78.8968 86.4285 79.5411 86.2013C80.1533 85.9741 80.7009 85.682 81.1197 85.325C81.5385 84.9355 81.8607 84.5136 82.0862 84.0268C82.3117 83.54 82.4084 83.0207 82.4084 82.4365C82.4084 81.9172 82.3117 81.4628 82.1506 81.0409C81.9896 80.6514 81.7318 80.262 81.4097 79.9374C81.0875 79.6129 80.6687 79.2883 80.1855 78.9962C79.8955 78.8015 79.6378 78.6392 79.3478 78.5094C79.0901 78.3471 78.8002 78.1848 78.5424 78.055C78.2847 77.8927 77.9948 77.7305 77.6726 77.5357C77.3827 77.341 77.1249 77.1138 76.9317 76.9191C76.7384 76.6919 76.5773 76.4647 76.4484 76.2051C76.3518 75.9454 76.2873 75.6533 76.2873 75.3288C76.2873 74.9718 76.3518 74.6472 76.5128 74.3551C76.6739 74.063 76.8994 73.8034 77.1894 73.6411C77.4793 73.4464 77.8337 73.3815 78.2525 73.349C78.5747 73.349 78.8968 73.3814 79.1546 73.4464C79.4445 73.5113 79.7022 73.6411 79.9277 73.8034C80.0888 73.9332 80.2499 74.0955 80.3465 74.2577C80.4754 74.4525 80.5721 74.7121 80.6365 75.0042C80.7331 75.2963 80.7976 75.6533 80.862 76.1077C80.8942 76.1077 80.9586 76.1401 81.0553 76.1726C81.1519 76.1726 81.2486 76.1726 81.3452 76.1726C81.4419 76.1726 81.5063 76.1402 81.5707 76.1077C81.5707 75.4586 81.6352 74.9068 81.6996 74.3551C81.764 73.8358 81.8285 73.3814 81.9251 72.9595C81.603 72.9271 81.2486 72.8622 80.9264 72.7973C80.6043 72.7323 80.2177 72.6674 79.8311 72.635C79.4445 72.6025 78.9613 72.5701 78.4136 72.5701C77.8015 72.5701 77.2216 72.6674 76.7061 72.8297C76.1585 72.992 75.7075 73.2516 75.2886 73.5762C74.8698 73.9007 74.5477 74.3227 74.3222 74.777C74.0966 75.2639 73.9678 75.8156 73.9678 76.4322C73.9678 76.984 74.0644 77.4384 74.2255 77.8603C74.3866 78.2822 74.6443 78.6392 74.9343 78.9962C75.2242 79.3208 75.5786 79.6453 75.9974 79.9374C76.384 80.2295 76.835 80.5216 77.286 80.7813C77.7693 81.0734 78.1881 81.3655 78.5102 81.5926C78.8324 81.8523 79.1223 82.0795 79.3156 82.3067C79.5089 82.5339 79.6378 82.761 79.7344 83.0207C79.8311 83.2479 79.8633 83.5075 79.8633 83.7996C79.8633 84.2215 79.7667 84.5785 79.5734 84.8706C79.3801 85.1627 79.1546 85.3575 78.8324 85.4873C78.5424 85.6171 78.2203 85.682 77.8659 85.682C77.6404 85.682 77.4149 85.682 77.1572 85.6171C76.8994 85.5522 76.6739 85.5197 76.4484 85.4224C76.2229 85.325 76.0296 85.2276 75.8363 85.0978C75.4497 84.8057 75.1276 84.4487 74.8376 83.9943C74.5477 83.54 74.3222 82.9558 74.0967 82.2418M57.8276 73.6086C57.8276 73.6086 58.0853 73.6086 58.2464 73.6735C58.3753 73.6735 58.5041 73.7385 58.633 73.7385C58.7619 73.7385 58.8585 73.8034 58.9552 73.8358C59.2129 73.9007 59.374 74.0306 59.4706 74.2253C59.5673 74.42 59.6317 74.6472 59.6317 74.9393C59.6317 75.3612 59.6317 75.8481 59.6317 76.3998C59.6317 76.9515 59.6317 77.5033 59.6317 78.1199C59.6317 78.7366 59.6317 79.2883 59.6317 79.8725C59.6317 80.4243 59.6317 80.976 59.6639 81.4304C59.6639 81.9172 59.7283 82.3067 59.7606 82.5988C59.825 83.1505 59.9539 83.6698 60.1794 84.1566C60.4049 84.6434 60.727 85.0654 61.1458 85.4224C61.5647 85.7794 62.0801 86.0715 62.7566 86.2662C63.401 86.4609 64.2064 86.5908 65.1406 86.5908C65.8816 86.5908 66.5903 86.4934 67.2024 86.3311C67.8468 86.1688 68.3944 85.8443 68.8777 85.4548C69.3609 85.0654 69.7797 84.5136 70.0697 83.8321C70.3596 83.1505 70.5851 82.3391 70.6496 81.3655C70.6818 81.0084 70.714 80.5541 70.7462 80.0997C70.7462 79.6129 70.7784 79.126 70.8106 78.5743C70.8106 78.055 70.8428 77.5033 70.8751 76.9515C70.8751 76.3998 70.9073 75.8805 70.9073 75.3937C70.9073 75.0367 70.9395 74.777 71.0039 74.5498C71.0684 74.3551 71.1328 74.1928 71.2294 74.063C71.3261 73.9656 71.4872 73.8683 71.6805 73.8358C71.8093 73.8034 71.9704 73.7709 72.0993 73.7385C72.2603 73.7385 72.4214 73.6735 72.5825 73.6411C72.6147 73.6086 72.6469 73.5437 72.6469 73.4464C72.6469 73.349 72.6469 73.2516 72.6469 73.1543C72.6469 73.0569 72.6147 72.992 72.5825 72.9595C72.4214 72.9595 72.2603 72.9595 72.0348 72.9595C71.8415 72.9595 71.5516 72.9595 71.2294 72.9595C70.9073 72.9595 70.5207 72.9595 70.0697 72.9595C69.522 72.9595 69.0388 72.9595 68.5877 72.9595C68.1367 72.9595 67.7501 72.9595 67.428 72.9271C67.428 72.9595 67.3957 73.0569 67.3635 73.1543C67.3635 73.2516 67.3635 73.349 67.3635 73.4464C67.3635 73.5437 67.3635 73.6086 67.3957 73.6411C67.6213 73.6411 67.8468 73.706 68.0723 73.7385C68.2656 73.7709 68.4589 73.8034 68.6199 73.8683C68.8455 73.9007 69.0387 73.9981 69.1676 74.0955C69.2965 74.1928 69.3931 74.3551 69.4576 74.5498C69.522 74.7446 69.5542 75.0042 69.5542 75.2963C69.5542 75.6209 69.5542 75.9779 69.5864 76.3673C69.5864 76.7893 69.5864 77.2112 69.5864 77.6656C69.5864 78.1199 69.5864 78.6068 69.5864 79.0611C69.5864 79.5155 69.5864 79.9699 69.5542 80.3918C69.5542 80.8137 69.5542 81.2032 69.4898 81.5277C69.4253 82.3067 69.2965 82.9233 69.071 83.4101C68.8455 83.897 68.5877 84.254 68.2656 84.5136C67.9434 84.7733 67.589 84.9355 67.2024 85.0329C66.8159 85.1303 66.4293 85.1627 66.0427 85.1627C65.3339 85.1627 64.754 85.0654 64.2708 84.8382C63.7876 84.6434 63.401 84.3513 63.111 83.9943C62.8211 83.6373 62.6278 83.2154 62.5311 82.7286C62.4667 82.5014 62.4345 82.2418 62.4023 81.9497C62.3701 81.6576 62.3378 81.3655 62.3378 81.0409C62.3378 80.7488 62.3056 80.4243 62.3056 80.1646C62.3056 79.8725 62.3056 79.5155 62.3056 79.0936C62.3056 78.7041 62.3056 78.2497 62.3056 77.7629C62.3056 77.2761 62.3056 76.8217 62.3056 76.3349C62.3056 75.8481 62.3056 75.3937 62.3056 74.9393C62.3056 74.5823 62.3701 74.3227 62.4667 74.1279C62.5633 73.9332 62.7566 73.8358 63.0144 73.7709C63.1432 73.7709 63.3043 73.706 63.4654 73.6735C63.6265 73.6735 63.8198 73.6086 64.0131 73.5762C64.0131 73.5437 64.0453 73.4464 64.0775 73.349C64.0775 73.2516 64.0775 73.1543 64.0775 73.0569C64.0775 72.9595 64.0775 72.8946 64.0131 72.8622C63.6265 72.8622 63.1755 72.8622 62.66 72.8946C62.1445 72.8946 61.5647 72.8946 60.9203 72.8946C60.5015 72.8946 60.1149 72.8946 59.7283 72.8946C59.3418 72.8946 58.9552 72.8946 58.633 72.8946C58.3108 72.8946 58.0209 72.8946 57.7954 72.8946C57.7954 72.9271 57.7632 72.992 57.731 73.0894C57.731 73.1867 57.731 73.2841 57.731 73.3815C57.731 73.4788 57.731 73.5437 57.7632 73.6086M51.0945 80.9111C51.0945 80.9111 51.3522 80.9435 51.5133 80.976C51.6744 80.976 51.8354 80.976 52.061 80.976C52.512 80.976 52.9308 80.9111 53.3818 80.8137C53.8328 80.7163 54.2516 80.5216 54.6382 80.2944C54.9926 80.0997 55.3148 79.8401 55.6369 79.483C55.9269 79.1585 56.1846 78.7366 56.3779 78.2822C56.5712 77.8278 56.6678 77.2761 56.6678 76.6594C56.6678 76.1726 56.6034 75.7182 56.4745 75.3612C56.3457 74.9718 56.1846 74.6472 55.9591 74.3551C55.7336 74.063 55.5081 73.8358 55.2503 73.6411C55.0248 73.4788 54.7671 73.349 54.5094 73.2516C54.2516 73.1543 53.9939 73.0569 53.7362 73.0244C53.4785 72.9595 53.2207 72.9271 52.9952 72.9271C52.7697 72.9271 52.5764 72.9271 52.3831 72.9271C51.9965 72.9271 51.6744 72.9271 51.32 72.9271C50.9978 72.9271 50.6757 72.9271 50.3857 72.9271C50.0958 72.9271 49.7736 72.9271 49.4515 72.9271C49.1293 72.9271 48.7749 72.9271 48.3883 72.9271C48.034 72.9271 47.6474 72.9271 47.293 72.9271C46.9386 72.9271 46.5842 72.9271 46.2943 72.9271C46.0044 72.9271 45.7466 72.9271 45.5855 72.9271C45.5855 72.9595 45.5533 73.0244 45.5211 73.1218C45.4889 73.2192 45.5211 73.3165 45.5211 73.4139C45.5211 73.5113 45.5211 73.5762 45.5533 73.6411C45.7788 73.6411 45.9721 73.6735 46.1332 73.706C46.2943 73.706 46.4876 73.7709 46.6165 73.8034C46.8098 73.8358 46.9386 73.9007 47.0353 73.9981C47.1319 74.0955 47.1963 74.2253 47.2286 74.3876C47.2608 74.5498 47.293 74.7446 47.293 75.0042C47.293 75.2314 47.293 75.5235 47.3252 75.8805C47.3252 76.27 47.3252 76.7243 47.3252 77.2761V79.2883C47.3252 80.5541 47.3252 81.5926 47.3252 82.404C47.3252 83.2154 47.3252 83.7996 47.2608 84.1891C47.2608 84.4163 47.2608 84.611 47.1963 84.7733C47.1641 84.9355 47.0997 85.0654 47.0353 85.1627C46.9386 85.2601 46.8098 85.325 46.6487 85.3899C46.4876 85.4224 46.3265 85.4548 46.1332 85.4873C45.9399 85.4873 45.7466 85.5522 45.5211 85.5847C45.5211 85.5847 45.4889 85.682 45.4567 85.7794C45.4567 85.8767 45.4567 85.9741 45.4567 86.0715C45.4567 86.1688 45.4567 86.2338 45.5211 86.2987C45.8111 86.2987 46.1654 86.2987 46.5198 86.2987C46.8742 86.2987 47.2286 86.2987 47.6152 86.2987C48.0017 86.2987 48.3561 86.2987 48.7427 86.2987C49.0004 86.2987 49.2904 86.2987 49.6125 86.2987C49.9025 86.2987 50.2246 86.2987 50.5146 86.2987C50.8045 86.2987 51.0945 86.2987 51.3522 86.2987C51.6099 86.2987 51.8677 86.2987 52.061 86.2987C52.0932 86.2662 52.1254 86.2013 52.1254 86.1039C52.1254 86.0066 52.1254 85.9092 52.1254 85.8118C52.1254 85.7145 52.1254 85.6496 52.061 85.5847C51.5133 85.5522 51.0623 85.4873 50.7079 85.3899C50.5146 85.325 50.3857 85.2601 50.2891 85.1627C50.1924 85.0654 50.128 84.9355 50.0636 84.8057C50.0313 84.6434 49.9991 84.4812 49.9991 84.2864C49.9991 83.9943 49.9991 83.6373 49.9991 83.2154C49.9991 82.7935 49.9991 82.3716 49.9991 81.8847C49.9991 81.4304 49.9991 80.9435 49.9991 80.4892V79.1909C49.9991 78.412 49.9991 77.7629 49.9991 77.2112C49.9991 76.6594 49.9991 76.1726 49.9991 75.8156C49.9991 75.4261 49.9991 75.134 49.9991 74.8744C49.9991 74.6148 49.9991 74.42 49.9991 74.2902C49.9991 74.2253 50.0313 74.1604 50.0636 74.0955C50.0958 74.0306 50.128 73.9981 50.1602 73.9981C50.2246 73.9981 50.2891 73.9332 50.3857 73.9332C50.4824 73.9332 50.579 73.9332 50.6435 73.9332C50.7401 73.9332 50.8045 73.9332 50.8367 73.9332C51.4811 73.9332 52.0287 74.0955 52.4798 74.3551C52.9308 74.6472 53.2529 75.0367 53.4785 75.5235C53.704 76.0428 53.8006 76.627 53.8328 77.2761C53.8328 77.9576 53.7362 78.5094 53.5429 78.9313C53.3496 79.3532 53.0596 79.7102 52.6731 79.9374C52.512 80.0348 52.3187 80.0997 52.1254 80.1646C51.9321 80.2295 51.7066 80.2295 51.4489 80.2295C51.2878 80.2295 51.1589 80.2295 51.03 80.2295C50.9012 80.2295 50.8367 80.2295 50.7723 80.2295C50.7723 80.2295 50.7401 80.262 50.7079 80.3269C50.7079 80.3593 50.7079 80.4243 50.7079 80.4567C50.7079 80.4892 50.7079 80.5541 50.7723 80.6514C50.8045 80.7488 50.8367 80.8137 50.9012 80.9111C50.9656 80.976 50.9978 81.0409 51.0623 81.1058M27.3835 73.6086C27.3835 73.6086 27.3835 73.4788 27.3835 73.3815C27.3835 73.2841 27.3835 73.1867 27.3835 73.0894C27.3835 72.992 27.4158 72.9271 27.448 72.9271C27.899 72.9271 28.35 72.9271 28.801 72.9271C29.2521 72.9271 29.7675 72.9271 30.3152 72.9271C30.8629 72.9271 31.5072 72.9271 32.1837 72.9271C32.1837 73.1543 32.2481 73.349 32.3126 73.5762C32.377 73.8034 32.4737 74.0306 32.5703 74.2577C32.7314 74.6147 32.9247 75.0367 33.118 75.491C33.3113 75.9454 33.5368 76.4323 33.7623 76.9191C33.9878 77.4059 34.2133 77.8927 34.4388 78.3796C34.6643 78.8664 34.8576 79.3208 35.0832 79.7427C35.2765 80.1646 35.4697 80.5541 35.5986 80.8462C35.7597 81.1707 35.8563 81.3979 35.953 81.5602C35.953 81.5602 35.9852 81.5602 36.0174 81.5602C36.0174 81.5602 36.0496 81.5602 36.0818 81.5602C36.1785 81.3979 36.3074 81.1383 36.4684 80.7813C36.6295 80.4243 36.8228 80.0348 37.0483 79.5804C37.2738 79.126 37.4994 78.6392 37.7249 78.1199C37.9826 77.6006 38.2081 77.1138 38.4336 76.5945C38.6591 76.1077 38.8846 75.6209 39.0779 75.1989C39.2712 74.777 39.4323 74.42 39.5612 74.1279C39.6578 73.9007 39.7545 73.6735 39.8189 73.4464C39.8833 73.2192 39.9478 73.0244 39.9478 72.8622C40.5276 72.8622 41.0431 72.8622 41.4619 72.8622C41.8807 72.8622 42.2673 72.8622 42.6217 72.8622C42.9438 72.8622 43.266 72.8622 43.5559 72.8622C43.8459 72.8622 44.1358 72.8622 44.4258 72.8622C44.4258 72.8622 44.458 72.9271 44.4902 72.992C44.4902 73.0569 44.4902 73.1218 44.4902 73.2192C44.4902 73.3165 44.4902 73.3814 44.4902 73.4464C44.4902 73.5113 44.4902 73.5762 44.4258 73.5762C44.1358 73.6086 43.8781 73.6735 43.6526 73.706C43.4271 73.7385 43.266 73.8034 43.1049 73.8358C42.9438 73.9007 42.815 73.9656 42.7183 74.063C42.6217 74.1604 42.5573 74.2577 42.5573 74.3876C42.5573 74.5174 42.525 74.6797 42.525 74.8419C42.525 75.0691 42.525 75.3612 42.525 75.7507C42.525 76.1402 42.525 76.5621 42.525 77.0489C42.525 77.5357 42.525 78.055 42.525 78.6068C42.525 79.1585 42.525 79.7102 42.5573 80.262C42.5573 80.8137 42.5895 81.333 42.6217 81.8198C42.6217 82.3067 42.6539 82.761 42.6861 83.118C42.6861 83.5075 42.7183 83.7996 42.7505 84.0268C42.7505 84.2215 42.7828 84.4163 42.8472 84.5785C42.8794 84.7408 42.9761 84.8706 43.0727 85.0005C43.1694 85.1303 43.3304 85.1952 43.5237 85.2601C43.6848 85.2601 43.8459 85.325 44.0714 85.3575C44.2647 85.3899 44.4902 85.4224 44.7802 85.4548C44.7802 85.4873 44.8124 85.5846 44.8124 85.682C44.8124 85.7794 44.8124 85.8767 44.8124 85.9741C44.8124 86.0715 44.7802 86.1364 44.7479 86.1688C44.5224 86.1688 44.2969 86.1688 44.007 86.1688C43.717 86.1688 43.3626 86.1688 42.9438 86.1688C42.525 86.1688 42.0096 86.1688 41.3975 86.1688C40.8176 86.1688 40.2699 86.1688 39.7545 86.1688C39.2712 86.1688 38.788 86.1688 38.4014 86.1688C38.4014 86.1364 38.3692 86.0715 38.3692 85.9741C38.3692 85.8767 38.3692 85.7794 38.3692 85.682C38.3692 85.5846 38.3692 85.5197 38.4014 85.4873C38.6591 85.4548 38.8846 85.4224 39.0779 85.3899C39.2712 85.3575 39.4323 85.325 39.5612 85.2601C39.7545 85.1952 39.8833 85.0654 39.9478 84.9031C40.0122 84.7408 40.0444 84.5136 40.0444 84.2215C40.0444 83.9619 40.0444 83.6049 40.0444 83.183C40.0444 82.761 40.0444 82.3067 40.0444 81.8198C40.0444 81.333 40.0444 80.8137 40.0444 80.262C40.0444 79.7102 40.0444 79.1909 40.0444 78.6717C40.0444 78.1524 40.0444 77.6656 40.0444 77.2112C40.0444 76.7568 40.0444 76.3673 40.0444 76.0103C40.0444 76.0103 40.0444 76.0103 39.98 76.0103C39.98 76.0103 39.9478 76.0103 39.9155 76.0103C39.7867 76.3024 39.6256 76.627 39.4323 77.0814C39.239 77.5033 39.0135 77.9901 38.788 78.5094C38.5625 79.0287 38.3047 79.6129 38.047 80.1971C37.7893 80.7813 37.5316 81.3655 37.2738 81.9497C37.0161 82.5338 36.7906 83.0856 36.5651 83.6049C36.3396 84.1242 36.1463 84.611 35.953 85.0329C35.7597 85.4548 35.6308 85.8118 35.5664 86.0715C35.5664 86.0715 35.4697 86.0715 35.4053 86.1039C35.3087 86.1039 35.2442 86.1039 35.1476 86.1039C35.0509 86.1039 34.9543 86.1039 34.8899 86.1039C34.8254 86.1039 34.761 86.1039 34.7288 86.1039C34.6321 85.7469 34.4711 85.2926 34.2455 84.7408C34.02 84.1891 33.7945 83.54 33.5046 82.8584C33.2146 82.1768 32.9247 81.4304 32.6025 80.6514C32.2804 79.8725 31.9582 79.0936 31.6038 78.3147C31.2817 77.5357 30.9595 76.7568 30.6374 76.0103C30.6374 76.0103 30.6051 76.0103 30.5729 76.0103H30.5407C30.5407 76.3024 30.4763 76.6919 30.4441 77.1138C30.4441 77.5357 30.3796 77.9901 30.3474 78.5094C30.3474 79.0287 30.283 79.5155 30.2508 80.0348C30.2508 80.5541 30.1863 81.0734 30.1863 81.5602C30.1863 82.047 30.1541 82.5014 30.1219 82.9233C30.1219 83.3452 30.1219 83.6698 30.1219 83.9619C30.1219 84.2215 30.1219 84.4487 30.1863 84.611C30.2185 84.7733 30.3152 84.9031 30.4118 85.0329C30.5085 85.1303 30.6696 85.2276 30.8951 85.2926C31.0562 85.3575 31.2817 85.3899 31.475 85.4548C31.6683 85.4548 31.9582 85.5197 32.2482 85.5522C32.2804 85.5847 32.3126 85.6496 32.3126 85.7469C32.3126 85.8443 32.3126 85.9417 32.3126 86.039C32.3126 86.1364 32.2804 86.2013 32.2159 86.2338C31.926 86.2338 31.5394 86.2338 31.0562 86.2338C30.6051 86.2338 30.0253 86.2338 29.3809 86.2338C29.0588 86.2338 28.7366 86.2338 28.4467 86.2338C28.1245 86.2338 27.8346 86.2338 27.5768 86.2338C27.2869 86.2338 27.0614 86.2338 26.8359 86.2338C26.8359 86.2013 26.8037 86.1364 26.8037 86.039C26.8037 85.9417 26.8037 85.8443 26.8037 85.7469C26.8037 85.6496 26.8037 85.5847 26.8681 85.5522C27.0614 85.5522 27.2547 85.4873 27.448 85.4873C27.6413 85.4873 27.8024 85.4224 27.9312 85.3899C28.1245 85.325 28.3178 85.2601 28.4467 85.1627C28.5755 85.0654 28.6722 84.9031 28.7366 84.7084C28.801 84.5136 28.8655 84.254 28.8977 83.9294C28.9299 83.6373 28.9621 83.2803 29.0266 82.8259C29.0588 82.3716 29.1232 81.8523 29.1876 81.2681C29.2521 80.7164 29.2843 80.1322 29.3487 79.5155C29.4131 78.8989 29.4454 78.3147 29.4776 77.7629C29.5098 77.1787 29.5742 76.6594 29.6064 76.1726C29.6387 75.6858 29.6709 75.2963 29.6709 75.0042C29.6709 74.8744 29.6709 74.7446 29.6387 74.6148C29.6064 74.4849 29.542 74.3551 29.4776 74.2577C29.3809 74.1604 29.2843 74.063 29.1232 73.9981C28.9299 73.9332 28.7044 73.8683 28.4467 73.8358C28.1889 73.7709 27.899 73.7385 27.5768 73.6735M19.3618 75.8156C19.4584 76.0428 19.5229 76.3024 19.6517 76.5945C19.7484 76.8866 19.8772 77.2112 19.9739 77.5357C20.0705 77.8603 20.1994 78.1848 20.296 78.5094C20.3927 78.8339 20.4893 79.126 20.586 79.3857C20.6826 79.6453 20.7471 79.905 20.8115 80.0672C20.8115 80.0672 20.8115 80.1322 20.8115 80.1646C20.8115 80.1646 20.8115 80.1971 20.7793 80.1971C20.7148 80.1971 20.586 80.1971 20.4571 80.1971C20.3283 80.1971 20.135 80.1971 19.9417 80.1971H19.3296C19.0074 80.1971 18.7175 80.1971 18.4597 80.1971C18.2342 80.1971 18.0409 80.1971 17.9121 80.1971C17.9121 80.1971 17.8798 80.1971 17.8798 80.1322C17.8798 80.1322 17.8798 80.0672 17.8798 80.0348C17.9765 79.7751 18.0731 79.4506 18.202 79.0936C18.3309 78.7366 18.4597 78.3471 18.5886 77.9577C18.7175 77.5682 18.8463 77.1787 18.9752 76.8217C19.104 76.4322 19.2007 76.1077 19.3296 75.8156C19.3296 75.8156 19.3296 75.8156 19.3618 75.8156H19.394H19.3618ZM12.8542 85.4873C12.8542 85.4873 12.8219 85.6171 12.8219 85.7145C12.8219 85.8118 12.8219 85.9092 12.8219 86.0066C12.8219 86.1039 12.8219 86.1688 12.8542 86.2013C13.1763 86.2013 13.5307 86.2013 13.9495 86.2013C14.3683 86.2013 14.7871 86.2013 15.2381 86.2013C15.8502 86.2013 16.3979 86.2013 16.8489 86.2013C17.3 86.2013 17.6866 86.2013 17.9443 86.2013C17.9443 86.1688 17.9765 86.1039 18.0087 86.0066C18.0087 85.9092 18.0087 85.8118 18.0087 85.7145C18.0087 85.6171 18.0087 85.5522 18.0087 85.5197C17.8154 85.5197 17.6221 85.4548 17.461 85.4224C17.3 85.4224 17.1389 85.3575 16.9778 85.325C16.7845 85.2926 16.6556 85.2276 16.559 85.1627C16.4623 85.0978 16.3979 85.0005 16.3979 84.9031C16.3979 84.8057 16.3657 84.7084 16.3657 84.5785C16.3657 84.4487 16.3979 84.3189 16.4623 84.0917C16.5268 83.8645 16.5912 83.6373 16.6879 83.3452C16.7845 83.0531 16.8812 82.761 16.9778 82.4689C17.0744 82.1768 17.2033 81.8847 17.3 81.5926C17.3 81.5602 17.3644 81.4953 17.3966 81.4628C17.4288 81.4304 17.4933 81.3979 17.5255 81.3979C17.6221 81.3979 17.7188 81.3979 17.8798 81.3979C18.0087 81.3979 18.202 81.3979 18.4275 81.3979H19.2651C19.4906 81.3979 19.7484 81.3979 19.9739 81.3979C20.1994 81.3979 20.4249 81.3979 20.586 81.3979C20.7471 81.3979 20.9404 81.3979 21.037 81.3979C21.0692 81.3979 21.1014 81.3979 21.1659 81.4628C21.1981 81.4953 21.2303 81.5277 21.2303 81.5602C21.327 81.7874 21.3914 82.0146 21.5202 82.3067C21.6169 82.5988 21.7458 82.8909 21.8424 83.183C21.9391 83.475 22.0357 83.7996 22.1323 84.0592C22.229 84.3513 22.2934 84.5785 22.3256 84.7733C22.3256 84.8382 22.3256 84.9355 22.3256 85.0005C22.3256 85.0978 22.229 85.1627 22.1001 85.2276C21.9713 85.2926 21.8102 85.325 21.6169 85.3575C21.4236 85.3899 21.2303 85.4548 21.0048 85.4873C21.0048 85.5197 20.9726 85.6171 20.9726 85.682C20.9726 85.7794 20.9726 85.8767 20.9726 85.9741C20.9726 86.0715 20.9726 86.1364 21.0048 86.1688C21.2303 86.1688 21.488 86.1688 21.778 86.1688C22.0679 86.1688 22.3901 86.1688 22.8089 86.1688C23.1955 86.1688 23.6465 86.1688 24.162 86.1688C24.8707 86.1688 25.4828 86.1688 25.966 86.1688C26.4493 86.1688 26.8359 86.1688 27.1258 86.1688C27.1258 86.1364 27.158 86.0715 27.1902 85.9741C27.1902 85.8767 27.1902 85.7794 27.1902 85.682C27.1902 85.5846 27.1902 85.5197 27.1902 85.4873C26.8037 85.4224 26.4815 85.3899 26.2238 85.325C25.9983 85.2601 25.7727 85.1627 25.6439 85.0329C25.4828 84.9031 25.3539 84.7084 25.2251 84.4487C25.0962 84.1891 24.9674 83.8645 24.8063 83.4426C24.6774 83.118 24.5163 82.6961 24.3552 82.2093C24.162 81.7225 23.9687 81.1707 23.7754 80.5865C23.5499 80.0023 23.3566 79.3857 23.131 78.769C22.9055 78.1524 22.68 77.5357 22.4867 76.9515C22.2934 76.3673 22.1001 75.8156 21.9391 75.3288C21.778 74.8419 21.6169 74.4525 21.5202 74.1279C21.4558 73.9332 21.3914 73.7385 21.327 73.5113C21.2625 73.2841 21.1981 73.0893 21.1659 72.9271C21.0692 72.9271 20.9404 72.9271 20.7793 72.9271C20.6182 72.9271 20.4249 72.9271 20.1994 72.9271C20.0061 72.9271 19.845 72.9271 19.6839 72.9271C19.5229 72.9271 19.3618 72.9271 19.2329 72.9271C19.2329 73.0569 19.2007 73.1867 19.1363 73.349C19.104 73.5113 19.0396 73.6735 18.9752 73.8683C18.9108 74.0306 18.8463 74.1928 18.8141 74.3551C18.7175 74.6148 18.6208 74.9393 18.4597 75.3937C18.2987 75.8156 18.1376 76.3024 17.9443 76.8542C17.751 77.4059 17.5255 77.9576 17.3 78.5743C17.0744 79.1585 16.8489 79.7751 16.6234 80.3918C16.3979 81.0084 16.1724 81.5926 15.9469 82.1444C15.7214 82.6961 15.5281 83.2154 15.3026 83.7022C15.1415 84.0593 15.0126 84.3513 14.8838 84.5785C14.7549 84.8057 14.5938 84.968 14.4327 85.0978C14.2717 85.2276 14.0461 85.325 13.8206 85.3899C13.5629 85.4548 13.273 85.5197 12.8864 85.5522M11.1145 76.5296C11.1145 76.5296 11.1467 76.5621 11.2434 76.5945C11.3078 76.5945 11.4044 76.5945 11.4689 76.5945C11.5655 76.5945 11.63 76.5945 11.7266 76.5621C11.791 76.5621 11.8555 76.5296 11.8877 76.4972C11.8877 76.2051 11.8877 75.913 11.9199 75.5884C11.9199 75.2639 11.9843 74.9393 12.0165 74.5823C12.0488 74.2577 12.081 73.9332 12.1132 73.6735C12.1454 73.3815 12.1776 73.1543 12.2098 72.992C11.8877 72.992 11.5011 72.9271 11.0501 72.8622C10.599 72.7973 10.1158 72.7323 9.56813 72.6999C9.02046 72.635 8.47279 72.6025 7.8929 72.6025C6.99086 72.6025 6.18546 72.6674 5.44449 72.8297C4.73574 72.992 4.05921 73.2192 3.51154 73.5113C2.93165 73.8034 2.4162 74.1928 1.96517 74.6148C1.51415 75.0367 1.15977 75.5235 0.86983 76.0428C0.579887 76.5621 0.354375 77.1138 0.225512 77.6656C0.0966478 78.2497 0 78.8339 0 79.4506C0 81.0084 0.289943 82.3067 0.902046 83.3452C1.51415 84.3838 2.35176 85.1952 3.51154 85.7469C4.63909 86.2987 6.02438 86.5583 7.63518 86.5583C8.15063 86.5583 8.60166 86.5583 8.98825 86.4609C9.40705 86.396 9.76143 86.3311 10.0836 86.2662C10.4057 86.2013 10.6635 86.1039 10.889 86.039C11.0501 85.9417 11.2111 85.7794 11.3722 85.5197C11.5333 85.2926 11.7266 85.0005 11.8877 84.7084C12.0488 84.4163 12.2098 84.1242 12.3387 83.7996C12.4676 83.5075 12.5642 83.2479 12.6286 82.9882C12.5964 82.9233 12.532 82.8584 12.4676 82.7935C12.4031 82.7286 12.3065 82.6961 12.2421 82.6312C12.1776 82.5663 12.081 82.5663 12.0488 82.5663C11.8877 82.8584 11.6944 83.1505 11.5333 83.4101C11.34 83.6698 11.1789 83.9294 10.9856 84.1566C10.7923 84.3838 10.599 84.5785 10.438 84.7408C10.2447 84.9355 9.98694 85.0654 9.76143 85.1627C9.5037 85.2601 9.27819 85.325 9.02046 85.3899C8.76273 85.4224 8.50501 85.4548 8.2795 85.4548C7.57074 85.4548 6.92643 85.325 6.37876 85.0978C5.83108 84.8706 5.34785 84.5461 4.92904 84.1566C4.51023 83.7672 4.18807 83.2803 3.93034 82.761C3.67262 82.2418 3.47932 81.6576 3.35046 81.0734C3.22159 80.4567 3.15716 79.8401 3.15716 79.2234C3.15716 77.9252 3.35046 76.8542 3.67262 76.0103C4.02699 75.134 4.51023 74.4849 5.15455 74.063C5.76665 73.6411 6.53983 73.4139 7.37745 73.4139C7.82847 73.4139 8.2795 73.4464 8.73052 73.5437C9.18154 73.6411 9.56813 73.7709 9.95472 73.9656C10.2447 74.1279 10.438 74.3227 10.599 74.5174C10.7601 74.7446 10.889 75.0042 10.9534 75.3612C11.0501 75.6858 11.1145 76.1077 11.1789 76.5621" fill="#162667"/>
<path d="M132.826 85.4873C132.826 85.4873 132.794 85.6172 132.794 85.7145C132.794 85.8119 132.794 85.9093 132.794 86.0066C132.794 86.104 132.794 86.1689 132.826 86.2014C133.149 86.2014 133.503 86.2014 133.922 86.2014C134.341 86.2014 134.759 86.2014 135.21 86.2014C135.822 86.2014 136.37 86.2014 136.821 86.2014C137.272 86.2014 137.659 86.2014 137.949 86.2014C137.949 86.1689 137.981 86.104 138.013 86.0066C138.013 85.9093 138.013 85.8119 138.013 85.7145C138.013 85.6172 138.013 85.5523 138.013 85.5198C137.82 85.5198 137.627 85.4549 137.465 85.4224C137.304 85.4224 137.111 85.3575 136.95 85.3251C136.757 85.2926 136.628 85.2277 136.531 85.1628C136.435 85.0979 136.37 85.0005 136.37 84.9032C136.37 84.8058 136.338 84.7084 136.37 84.6111C136.37 84.5137 136.37 84.3514 136.467 84.1242C136.531 83.897 136.596 83.6699 136.692 83.3778C136.789 83.0857 136.886 82.7936 136.982 82.5015C137.111 82.2094 137.208 81.9173 137.304 81.6252C137.304 81.5927 137.369 81.5278 137.401 81.4953C137.433 81.4629 137.498 81.4304 137.53 81.4304C137.627 81.4304 137.723 81.4304 137.884 81.4304C138.013 81.4304 138.206 81.4304 138.432 81.4304H139.27C139.495 81.4304 139.753 81.4304 139.978 81.4304C140.204 81.4304 140.429 81.4304 140.59 81.4304C140.784 81.4304 140.945 81.4304 141.041 81.4304C141.041 81.4304 141.106 81.4304 141.17 81.4953C141.203 81.5278 141.235 81.5603 141.267 81.5927C141.364 81.8199 141.428 82.0471 141.557 82.3392C141.654 82.6313 141.782 82.9234 141.879 83.2155C141.976 83.5076 142.072 83.8321 142.169 84.0918C142.266 84.3839 142.33 84.6111 142.362 84.8058C142.362 84.8707 142.362 84.9681 142.362 85.033C142.362 85.1303 142.266 85.1953 142.137 85.2602C142.008 85.3251 141.847 85.3575 141.654 85.39C141.46 85.4224 141.267 85.4873 141.041 85.5198C141.041 85.5523 141.009 85.6496 141.009 85.7145C141.009 85.8119 141.009 85.9093 141.009 86.0066C141.009 86.104 141.009 86.1689 141.041 86.2014C141.267 86.2014 141.525 86.2014 141.815 86.2014C142.105 86.2014 142.459 86.2014 142.846 86.2014C143.232 86.2014 143.683 86.2014 144.199 86.2014C144.907 86.2014 145.519 86.2014 146.003 86.2014C146.486 86.2014 146.905 86.2014 147.162 86.2014C147.162 86.1689 147.195 86.104 147.227 86.0066C147.227 85.9093 147.227 85.8119 147.227 85.7145C147.227 85.6172 147.227 85.5523 147.227 85.5198C146.84 85.4549 146.518 85.4224 146.293 85.3575C146.067 85.2926 145.842 85.1952 145.713 85.0654C145.584 84.9356 145.423 84.7409 145.294 84.4812C145.165 84.2216 145.036 83.897 144.875 83.4751C144.746 83.1506 144.585 82.7611 144.424 82.2418C144.263 81.755 144.038 81.2032 143.844 80.6191C143.619 80.0349 143.425 79.4182 143.2 78.8016C142.974 78.1849 142.781 77.5682 142.556 76.9841C142.362 76.3999 142.169 75.8481 142.008 75.3613C141.847 74.8745 141.686 74.485 141.589 74.1604C141.525 73.9657 141.46 73.771 141.396 73.5438C141.331 73.3166 141.267 73.1219 141.235 72.9596C141.138 72.9596 141.009 72.9596 140.848 72.9596C140.687 72.9596 140.494 72.9596 140.268 72.9596C140.075 72.9596 139.914 72.9596 139.753 72.9596C139.592 72.9596 139.431 72.9596 139.302 72.9596C139.302 73.0894 139.27 73.2192 139.205 73.3815C139.173 73.5438 139.109 73.7061 139.044 73.9008C138.98 74.0631 138.915 74.2254 138.883 74.3876C138.786 74.6473 138.69 74.9718 138.529 75.4262C138.368 75.8481 138.206 76.335 138.013 76.8867C137.82 77.4384 137.594 77.9902 137.369 78.6068C137.143 79.191 136.918 79.8077 136.692 80.4243C136.467 81.041 136.241 81.6252 136.016 82.1769C135.79 82.7286 135.597 83.2479 135.404 83.7348C135.243 84.0918 135.114 84.3839 134.985 84.6111C134.856 84.8382 134.695 85.0005 134.534 85.1303C134.373 85.2602 134.147 85.3575 133.922 85.4224C133.664 85.4873 133.374 85.5523 132.987 85.5847M139.334 75.8157C139.431 76.0429 139.495 76.3025 139.624 76.5946C139.721 76.8867 139.849 77.2112 139.946 77.5358C140.075 77.8603 140.172 78.1849 140.268 78.5095C140.365 78.834 140.462 79.1261 140.558 79.3857C140.655 79.6454 140.719 79.905 140.784 80.0673C140.784 80.0673 140.784 80.1322 140.784 80.1647C140.784 80.1647 140.784 80.1971 140.752 80.1971C140.687 80.1971 140.558 80.1971 140.429 80.1971C140.268 80.1971 140.107 80.1971 139.914 80.1971H139.302C138.947 80.1971 138.69 80.1971 138.432 80.1971C138.206 80.1971 138.013 80.1971 137.884 80.1971C137.884 80.1971 137.852 80.1971 137.852 80.1322C137.852 80.1322 137.852 80.0673 137.852 80.0349C137.949 79.7752 138.045 79.4507 138.174 79.0937C138.303 78.7366 138.432 78.3472 138.561 77.9577C138.69 77.5683 138.819 77.1788 138.947 76.8218C139.076 76.4323 139.205 76.1078 139.302 75.8157C139.302 75.8157 139.302 75.8157 139.334 75.8157C139.334 75.8157 139.334 75.8157 139.366 75.8157H139.334Z" fill="#94BB1E"/>
<path d="M120.294 73.6087C120.294 73.6087 120.584 73.6087 120.713 73.6736C120.874 73.6736 121.003 73.7385 121.132 73.7385C121.261 73.7385 121.39 73.8034 121.486 73.8359C121.647 73.9008 121.776 73.9657 121.873 74.0306C121.97 74.0955 122.034 74.1929 122.066 74.3227C122.098 74.4525 122.131 74.6148 122.163 74.8095C122.163 75.2639 122.163 75.8806 122.195 76.6595C122.195 77.4384 122.195 78.2823 122.195 79.2884C122.195 80.0673 122.195 80.7813 122.195 81.4304C122.195 82.0795 122.195 82.6637 122.195 83.1506C122.195 83.6374 122.195 84.0268 122.131 84.3189C122.131 84.6435 122.034 84.8707 121.937 85.033C121.809 85.1952 121.647 85.2926 121.454 85.3575C121.261 85.39 121.068 85.4549 120.874 85.4873C120.681 85.4873 120.423 85.5522 120.133 85.5522C120.133 85.5522 120.101 85.6172 120.069 85.7145C120.069 85.8119 120.069 85.9093 120.069 86.0066C120.069 86.104 120.069 86.2013 120.133 86.2338H121.035C122.034 86.2338 122.968 86.2338 123.806 86.2987C124.676 86.2987 125.417 86.3312 126.061 86.3312C126.834 86.3312 127.543 86.2663 128.219 86.1689C128.896 86.0715 129.54 85.8768 130.12 85.6172C130.732 85.3575 131.28 85.033 131.795 84.611C132.246 84.254 132.633 83.8321 132.987 83.3128C133.342 82.7935 133.632 82.2093 133.825 81.5602C134.018 80.8787 134.147 80.1322 134.147 79.2884C134.147 78.6393 134.051 77.9902 133.889 77.406C133.728 76.7893 133.503 76.2376 133.181 75.7183C132.859 75.199 132.472 74.7446 131.989 74.3552C131.409 73.8683 130.732 73.5113 129.991 73.2841C129.25 73.0569 128.381 72.9271 127.414 72.9271C126.963 72.9271 126.576 72.9271 126.222 72.9271C125.868 72.9271 125.546 72.9271 125.256 72.9271C124.966 72.9271 124.644 72.9271 124.354 72.9271C124.031 72.9271 123.709 72.9271 123.323 72.9271C123.194 72.9271 123.033 72.9271 122.807 72.9271C122.582 72.9271 122.356 72.9271 122.131 72.9271C121.873 72.9271 121.647 72.9271 121.39 72.9271C121.164 72.9271 120.939 72.9271 120.745 72.9271C120.552 72.9271 120.391 72.9271 120.327 72.9271C120.327 72.9596 120.262 73.0245 120.262 73.1219C120.262 73.2192 120.262 73.3166 120.262 73.414C120.262 73.5113 120.262 73.5762 120.262 73.6411M124.933 84.0918C124.933 84.0918 124.933 83.7023 124.901 83.4102C124.901 83.1181 124.901 82.7611 124.901 82.3392C124.901 81.9173 124.901 81.4953 124.901 81.0085V75.8157C124.901 75.4262 124.901 75.1016 124.901 74.8095C124.901 74.5174 124.901 74.3227 124.901 74.1604C124.901 74.0955 124.933 74.0306 124.966 73.9657C124.998 73.9008 125.062 73.8683 125.095 73.8359C125.159 73.8359 125.288 73.771 125.417 73.771C125.578 73.771 125.739 73.771 125.932 73.771C126.512 73.771 127.06 73.8359 127.607 73.9332C128.123 74.0631 128.606 74.2578 129.025 74.5499C129.54 74.9069 129.959 75.3288 130.281 75.8806C130.636 76.3998 130.861 76.984 131.022 77.6331C131.183 78.2823 131.28 78.9314 131.28 79.6129C131.28 80.3594 131.216 81.041 131.119 81.5927C130.99 82.1769 130.861 82.6637 130.636 83.0856C130.442 83.5076 130.185 83.897 129.895 84.2216C129.637 84.5137 129.347 84.7733 129.057 84.9356C128.767 85.0979 128.477 85.2601 128.187 85.3251C127.897 85.39 127.575 85.4549 127.285 85.4224C127.092 85.4224 126.866 85.4224 126.641 85.3575C126.383 85.3575 126.158 85.2601 125.9 85.1952C125.674 85.1303 125.449 85.0005 125.288 84.8707C125.191 84.7733 125.095 84.6435 125.03 84.4812C124.966 84.3514 124.933 84.2216 124.933 84.0918Z" fill="#94BB1E"/>
<path d="M113.368 73.6087C113.626 73.6087 113.851 73.6736 114.012 73.706C114.205 73.7385 114.399 73.7709 114.56 73.8358C114.753 73.9008 114.914 73.9981 114.979 74.1604C115.043 74.3227 115.108 74.5174 115.108 74.7446C115.108 75.0691 115.108 75.4262 115.108 75.7832C115.108 76.1726 115.108 76.627 115.108 77.1463V82.1444C115.108 82.6312 115.108 83.0532 115.108 83.4102C115.108 83.7672 115.108 84.0593 115.108 84.2215C115.108 84.4487 115.043 84.6435 115.011 84.8057C114.946 84.968 114.882 85.0654 114.785 85.1303C114.689 85.1952 114.528 85.2601 114.334 85.325C114.205 85.3575 114.044 85.3899 113.883 85.4224C113.722 85.4224 113.529 85.4548 113.303 85.4873C113.271 85.5198 113.239 85.5847 113.239 85.682C113.239 85.7794 113.239 85.8768 113.239 85.9741C113.239 86.0715 113.271 86.1364 113.303 86.1689C113.561 86.1689 113.819 86.1689 114.109 86.1689C114.399 86.1689 114.753 86.1689 115.14 86.1689C115.526 86.1689 116.01 86.1689 116.557 86.1689C117.234 86.1689 117.814 86.1689 118.329 86.1689C118.812 86.1689 119.263 86.1689 119.65 86.2013C119.65 86.2013 119.714 86.1039 119.747 86.0066C119.747 85.9092 119.779 85.8119 119.779 85.7145C119.779 85.6171 119.779 85.5522 119.747 85.4873C119.521 85.4873 119.296 85.4224 119.07 85.3899C118.845 85.3899 118.684 85.325 118.522 85.2601C118.329 85.1952 118.168 85.1303 118.071 85.0005C117.975 84.9031 117.91 84.7733 117.878 84.611C117.878 84.4812 117.846 84.3189 117.814 84.1566C117.814 83.7672 117.814 83.1181 117.814 82.2742C117.814 81.4304 117.814 80.3918 117.814 79.1585V77.3735C117.814 76.8217 117.814 76.3349 117.814 75.913C117.814 75.4911 117.814 75.1341 117.814 74.9069C117.814 74.6797 117.814 74.5174 117.846 74.3876C117.846 74.2578 117.91 74.1279 118.007 74.0306C118.071 73.9332 118.2 73.8683 118.361 73.8034C118.49 73.7709 118.683 73.7385 118.845 73.706C119.038 73.706 119.231 73.6411 119.457 73.6087C119.457 73.5762 119.521 73.4788 119.521 73.3815C119.521 73.2841 119.521 73.1867 119.521 73.0894C119.521 72.992 119.521 72.9271 119.457 72.8946C119.296 72.8946 119.102 72.8946 118.845 72.8946C118.587 72.8946 118.265 72.8946 117.878 72.8946C117.492 72.8946 116.976 72.8946 116.396 72.8946C115.72 72.8946 115.14 72.8946 114.624 72.8946C114.109 72.8946 113.69 72.8946 113.368 72.8622C113.368 72.8946 113.303 72.9595 113.303 73.0569C113.303 73.1543 113.303 73.2516 113.303 73.349C113.303 73.4464 113.303 73.5113 113.368 73.5762" fill="#94BB1E"/>
<path d="M98.001 73.6087C98.2265 73.6087 98.3876 73.6736 98.5486 73.706C98.7097 73.706 98.8386 73.7709 98.9674 73.8034C99.193 73.8683 99.3863 73.9657 99.5473 74.0955C99.7084 74.2253 99.8695 74.4525 100.031 74.7446C100.192 75.0367 100.353 75.4261 100.578 75.913C100.739 76.3024 100.933 76.7568 101.126 77.3086C101.319 77.8278 101.577 78.4445 101.802 79.0936C102.06 79.7427 102.318 80.4243 102.576 81.1383C102.866 81.8523 103.123 82.5988 103.413 83.3452C103.639 83.897 103.832 84.4163 103.993 84.9356C104.154 85.4224 104.315 85.9092 104.444 86.3636C104.605 86.3636 104.766 86.3636 104.96 86.3636C105.153 86.3636 105.378 86.3636 105.572 86.3636C105.765 86.3636 105.958 86.3636 106.087 86.3636C106.184 86.039 106.345 85.6171 106.506 85.0978C106.699 84.5785 106.925 83.9619 107.183 83.2803C107.472 82.5988 107.73 81.8848 108.02 81.1707C108.31 80.4567 108.6 79.7427 108.89 79.0611C109.18 78.3796 109.438 77.7629 109.663 77.1787C109.889 76.5945 110.114 76.1077 110.275 75.7182C110.436 75.3612 110.565 75.0691 110.694 74.842C110.823 74.6148 110.952 74.42 111.081 74.2902C111.209 74.1604 111.371 74.0306 111.564 73.9332C111.693 73.8683 111.854 73.8358 112.015 73.7709C112.176 73.7385 112.401 73.6736 112.627 73.6411C112.627 73.5762 112.659 73.5113 112.691 73.4139C112.691 73.3166 112.691 73.2192 112.691 73.1218C112.691 73.0245 112.691 72.9595 112.659 72.9271C112.498 72.9271 112.305 72.9271 112.079 72.9271C111.854 72.9271 111.596 72.9271 111.306 72.9271C111.016 72.9271 110.63 72.9271 110.211 72.9271C109.47 72.9271 108.89 72.9271 108.471 72.8946C108.052 72.8946 107.762 72.8622 107.569 72.8622C107.569 72.8622 107.505 72.9595 107.505 73.0569C107.505 73.1543 107.505 73.2516 107.472 73.349C107.472 73.4464 107.472 73.5113 107.472 73.5762C107.73 73.5762 107.988 73.6411 108.213 73.706C108.439 73.7385 108.6 73.8034 108.761 73.8358C109.051 73.9008 109.244 74.063 109.309 74.2578C109.373 74.4525 109.309 74.7446 109.212 75.1341C109.148 75.3937 109.019 75.7507 108.858 76.1726C108.729 76.5945 108.536 77.0489 108.374 77.5682C108.181 78.0875 107.988 78.6068 107.795 79.1261C107.601 79.6453 107.408 80.1646 107.183 80.6515C106.989 81.1383 106.796 81.5927 106.667 81.9821C106.538 82.3716 106.377 82.6637 106.28 82.8909C106.28 82.8909 106.28 82.8909 106.216 82.8909C106.216 82.8909 106.184 82.8909 106.152 82.8909C106.087 82.7286 105.991 82.469 105.862 82.1444C105.733 81.8198 105.572 81.4304 105.411 81.0085C105.25 80.5541 105.056 80.0997 104.863 79.6129C104.67 79.1261 104.476 78.6068 104.283 78.1199C104.09 77.6007 103.896 77.1463 103.735 76.6595C103.574 76.2051 103.413 75.7832 103.284 75.4261C103.156 75.0691 103.059 74.777 102.962 74.5499C102.898 74.3876 102.898 74.2578 102.962 74.1604C102.962 74.063 103.059 73.9657 103.156 73.9332C103.252 73.9008 103.381 73.8358 103.574 73.8034C103.768 73.7385 103.993 73.706 104.251 73.6411C104.251 73.6087 104.315 73.5437 104.315 73.4464C104.315 73.349 104.315 73.2516 104.315 73.1543C104.315 73.0569 104.283 72.992 104.251 72.9595C104.122 72.9595 103.864 72.9595 103.574 72.9595C103.252 72.9595 102.898 72.9595 102.447 72.9595C102.028 72.9595 101.577 72.9595 101.126 72.9595C100.868 72.9595 100.578 72.9595 100.288 72.9595C99.9984 72.9595 99.7084 72.9595 99.4185 72.9595C99.1285 72.9595 98.8708 72.9595 98.6453 72.9595C98.4198 72.9595 98.1943 72.9595 98.0332 72.9595C98.0332 72.9595 97.9688 73.0569 97.9688 73.1218C97.9688 73.2192 97.9688 73.3166 97.9688 73.4139C97.9688 73.5113 97.9688 73.6087 97.9688 73.6411" fill="#94BB1E"/>
<path d="M96.0678 98.7615C94.6825 113.951 89.4636 127.809 73.0012 138C85.0178 126.965 88.4004 113.237 89.0448 98.7615H96.0678Z" fill="#94BB1E"/>
<path d="M103.51 19.9276C103.51 19.9276 105.153 12.7874 102.253 8.40593C99.3539 4.02446 88.8193 0 88.8193 0C90.4301 12.4628 92.5886 13.7286 103.51 19.9276Z" fill="#94BB1E"/>
<path d="M106.055 56.959C106.055 56.959 107.118 59.88 109.148 60.7888C111.177 61.6975 115.881 60.6914 115.881 60.6914C112.466 56.602 111.403 56.667 106.055 56.959Z" fill="#94BB1E"/>
<path d="M64.3998 52.4803C64.3998 52.4803 61.2748 49.2023 58.0532 49.2347C54.7994 49.2347 49.1616 53.389 49.1616 53.389C56.1203 56.7968 57.5055 56.0828 64.3998 52.5127" fill="#94BB1E"/>
<path d="M71.5194 53.389C71.5194 53.389 74.3222 51.7338 74.8376 49.4619C75.3531 47.1576 73.4523 42.5165 73.4523 42.5165C69.9086 46.833 70.1663 47.9365 71.5194 53.4215" fill="#94BB1E"/>
<path d="M112.659 46.2812C112.659 46.2812 113.916 42.841 112.756 40.4717C111.596 38.1025 106.603 35.4412 106.603 35.4412C106.603 41.705 107.633 42.484 112.659 46.2488" fill="#94BB1E"/>
<path d="M100.481 30.8651C100.481 30.8651 102.35 32.6176 104.186 32.4878C106.023 32.358 109.115 29.8265 109.115 29.8265C105.056 28.1063 104.283 28.5607 100.481 30.8326" fill="#94BB1E"/>
<path d="M79.38 33.2992C79.38 33.2992 78.0914 31.0598 76.2873 30.6379C74.4832 30.2159 70.8105 31.7413 70.8105 31.7413C74.1932 34.565 75.063 34.3702 79.38 33.2992Z" fill="#94BB1E"/>
<path d="M83.2781 35.4737C83.2781 35.4737 85.7587 34.7921 86.6285 33.1693C87.4984 31.5466 86.9829 27.5546 86.9829 27.5546C83.4069 30.1185 83.3747 31.0273 83.2781 35.4737Z" fill="#94BB1E"/>
<path d="M111.274 14.5724C96.7766 27.9115 94.8437 45.0804 95.1014 62.8659C101.931 53.8758 118.458 47.6444 117.975 36.3824C121.003 49.1373 102.221 55.531 95.1658 65.365C95.3591 73.1867 95.8746 81.0733 95.8424 88.7652H88.4971C88.4005 83.1829 88.0783 77.5357 87.9173 71.9209C79.2512 60.3019 57.1188 52.5776 60.6948 37.3885C60.0827 50.7601 79.4122 58.2248 87.8206 68.7728C87.6595 60.8537 87.8528 53.0968 89.367 45.7619C84.9534 40.0498 77.6726 34.6622 80.4431 28.2685C79.1223 34.0456 85.5655 39.0437 89.6891 44.3015C92.3308 32.8772 98.323 22.5889 111.274 14.5724Z" fill="#94BB1E"/>
<path d="M4.63921 96.2949C4.4137 96.4247 4.2204 96.4896 4.05932 96.5546C3.89824 96.6195 3.70495 96.6519 3.54387 96.6844C3.35057 96.6844 3.15728 96.7168 2.93177 96.7168C2.02972 96.7168 1.3854 96.4572 0.966595 95.9055C0.547788 95.3862 0.354492 94.7046 0.354492 93.9257C0.354492 93.1468 0.580004 92.4327 0.998811 91.9134C1.41762 91.3942 2.09415 91.1345 2.96398 91.1345C3.44722 91.1345 3.99489 91.1994 4.63921 91.3617V92.0757C4.09154 91.881 3.73717 91.7836 3.54387 91.7512C3.35057 91.7187 3.15728 91.6863 2.96398 91.6863C2.31966 91.6863 1.86864 91.9135 1.5787 92.3354C1.28875 92.7573 1.15989 93.309 1.15989 93.9257C1.15989 94.5423 1.32097 95.0941 1.64313 95.516C1.96529 95.9055 2.44853 96.1326 3.02841 96.1326C3.18949 96.1326 3.35057 96.1326 3.51165 96.1002C3.67273 96.1002 3.83381 96.0353 3.99489 95.9704C4.15597 95.9055 4.34927 95.8081 4.607 95.6783V96.3274L4.63921 96.2949Z" fill="#162667"/>
<path d="M6.63647 94.5424H8.44057L7.53852 92.2381L6.63647 94.5424ZM5.15454 96.5871L7.24858 91.2644H7.98954L10.0514 96.5871H9.24596L8.66608 95.1266H6.44318L5.86329 96.5871H5.15454Z" fill="#162667"/>
<path d="M10.8567 96.5871V91.2644H11.8876L13.3373 95.3538L14.8515 91.2644H15.7857V96.5871H15.077V92.2381L13.6273 96.2301H12.8863L11.501 92.2381V96.5871H10.8567Z" fill="#162667"/>
<path d="M17.9121 93.8933H18.2021C18.6853 93.8933 19.0397 93.7959 19.233 93.5687C19.4263 93.3415 19.5551 93.0494 19.5551 92.7249C19.5551 92.5302 19.5229 92.4003 19.4585 92.2705C19.394 92.1407 19.2974 92.0433 19.1363 91.9784C18.9752 91.9135 18.7175 91.8486 18.3631 91.8486H17.9121V93.9257V93.8933ZM17.1711 96.5871V91.2644H18.5886C19.1041 91.2644 19.4585 91.3293 19.684 91.4267C19.9095 91.524 20.0706 91.6863 20.1994 91.8811C20.3283 92.0758 20.3605 92.3354 20.3605 92.66C20.3605 93.017 20.2961 93.3415 20.135 93.6012C19.9739 93.8608 19.7484 94.088 19.394 94.2178C19.0397 94.3801 18.6853 94.445 18.2665 94.445H17.9443V96.5546H17.2034L17.1711 96.5871Z" fill="#162667"/>
<path d="M21.198 91.2644H21.9389V94.6398C21.9389 95.2239 22.0356 95.6134 22.2611 95.8406C22.4866 96.0678 22.7765 96.1652 23.1631 96.1652C23.4209 96.1652 23.6142 96.1327 23.7752 96.0353C23.9363 95.938 24.0652 95.8081 24.1618 95.6134C24.2585 95.4187 24.2907 95.0941 24.2907 94.6398V91.2644H24.935V94.6398C24.935 95.2239 24.8706 95.6459 24.7095 95.8731C24.5806 96.1327 24.3551 96.3274 24.0974 96.4897C23.8397 96.652 23.4853 96.7169 23.0665 96.7169C22.6155 96.7169 22.2611 96.652 21.9711 96.4897C21.6812 96.3274 21.4879 96.1327 21.3268 95.8406C21.198 95.581 21.1013 95.159 21.1013 94.6073V91.2644H21.198Z" fill="#162667"/>
<path d="M25.9983 96.4571V95.7107C26.4171 95.9054 26.7393 96.0352 26.9326 96.0677C27.1258 96.1001 27.3191 96.1326 27.4802 96.1326C27.7702 96.1326 28.0279 96.0352 28.189 95.873C28.3501 95.7107 28.4467 95.5159 28.4467 95.2888C28.4467 95.1265 28.4145 94.9642 28.3178 94.8019C28.2212 94.6396 27.9957 94.4774 27.6091 94.2502L27.2547 94.023C26.7715 93.7309 26.4493 93.5037 26.256 93.2441C26.0949 93.0169 25.9983 92.7572 25.9983 92.4651C25.9983 92.2055 26.0627 91.9783 26.1916 91.7511C26.3205 91.5239 26.5137 91.3617 26.7393 91.2318C26.9648 91.102 27.2547 91.0371 27.5769 91.0371C27.9957 91.0371 28.4145 91.102 28.8655 91.2318V91.9134C28.4789 91.7511 28.189 91.6538 28.0601 91.6213C27.899 91.5889 27.7702 91.5564 27.6091 91.5564C27.2869 91.5564 27.0614 91.6213 26.9326 91.7836C26.7715 91.9459 26.707 92.1081 26.707 92.2704C26.707 92.4002 26.7393 92.4976 26.8037 92.6274C26.8681 92.7572 26.9648 92.8546 27.0936 92.9195C27.2225 93.0169 27.3836 93.1142 27.5769 93.2116L27.9635 93.4388C28.4467 93.7309 28.7689 93.9905 28.9622 94.2177C29.1232 94.4449 29.2199 94.737 29.2199 95.0291C29.2199 95.451 29.0588 95.808 28.7366 96.1001C28.4145 96.3922 27.9635 96.5545 27.3514 96.5545C27.1581 96.5545 26.9648 96.5545 26.8037 96.5221C26.6104 96.5221 26.3527 96.4247 25.9983 96.3273" fill="#162667"/>
<path d="M33.3757 96.0029H34.3422C34.8577 96.0029 35.212 95.938 35.4698 95.7757C35.7275 95.6134 35.9208 95.3538 36.0496 95.0292C36.1785 94.6722 36.2752 94.2827 36.2752 93.8608C36.2752 93.4714 36.2107 93.1468 36.0819 92.8223C35.953 92.5302 35.7597 92.2705 35.502 92.0758C35.2442 91.8811 34.7288 91.7837 34.02 91.7837H33.4079V95.9704L33.3757 96.0029ZM32.6025 96.5871V91.2644H34.3744C35.051 91.2644 35.5664 91.3618 35.9208 91.5565C36.2752 91.7512 36.5329 92.0433 36.7584 92.4328C36.9517 92.8223 37.0483 93.2766 37.0483 93.7959C37.0483 94.3152 36.9517 94.7696 36.7906 95.1915C36.5973 95.6134 36.3396 95.938 35.953 96.1976C35.5664 96.4572 35.0832 96.5871 34.4066 96.5871H32.6348H32.6025Z" fill="#162667"/>
<path d="M38.1113 96.5871V91.2644H41.0752V91.8161H38.8845V93.5363H40.7208V94.088H38.8845V96.0029H41.2363V96.5871H38.1113Z" fill="#162667"/>
<path d="M44.4258 96.5871V91.2644H47.3896V91.8161H45.1667V93.5363H47.0353V94.088H45.1667V96.0029H47.5507V96.5871H44.4258Z" fill="#162667"/>
<path d="M47.8083 96.5871L49.548 93.8933L47.8728 91.2644H48.7748L50.0312 93.2766L51.3843 91.2644H52.0931L50.3856 93.8284L52.1253 96.5871H51.2232L49.9024 94.4775L48.5171 96.5871H47.8083Z" fill="#162667"/>
<path d="M56.99 96.2949C56.7645 96.4247 56.5712 96.4896 56.4102 96.5546C56.2491 96.6195 56.0558 96.6519 55.8947 96.6844C55.7014 96.6844 55.5081 96.7168 55.2826 96.7168C54.3805 96.7168 53.7362 96.4572 53.3174 95.9055C52.8986 95.3862 52.7053 94.7046 52.7053 93.9257C52.7053 93.1468 52.9308 92.4327 53.3496 91.9134C53.7684 91.3942 54.445 91.1345 55.3148 91.1345C55.7981 91.1345 56.3457 91.1994 56.99 91.3617V92.0757C56.4424 91.881 56.088 91.7836 55.8947 91.7512C55.7014 91.7187 55.5081 91.6863 55.3148 91.6863C54.6705 91.6863 54.2195 91.9135 53.9295 92.3354C53.6396 92.7573 53.5107 93.309 53.5107 93.9257C53.5107 94.5423 53.6718 95.0941 53.994 95.516C54.3161 95.9055 54.7994 96.1326 55.3792 96.1326C55.5403 96.1326 55.7014 96.1326 55.8625 96.1002C56.0236 96.1002 56.1846 96.0353 56.3457 95.9704C56.5068 95.9055 56.7001 95.8081 56.9578 95.6783V96.3274L56.99 96.2949Z" fill="#162667"/>
<path d="M58.1174 96.5871V91.2644H61.0813V91.8161H58.8584V93.5363H60.7269V94.088H58.8584V96.0029H61.2424V96.5871H58.1174Z" fill="#162667"/>
<path d="M62.1123 96.5871V91.2644H62.8533V96.0029H65.205V96.5871H62.1123Z" fill="#162667"/>
<path d="M66.0427 96.5871V91.2644H69.0066V91.8161H66.7837V93.5363H68.6522V94.088H66.7837V96.0029H69.1355V96.5871H66.0427Z" fill="#162667"/>
<path d="M70.0374 96.5871V91.2644H70.7783L73.42 95.3538V91.2644H74.0643V96.5871H73.3234L70.6817 92.4652V96.5871H70.0374Z" fill="#162667"/>
<path d="M79.4444 96.2949C79.2189 96.4247 79.0256 96.4896 78.8645 96.5546C78.7034 96.6195 78.5101 96.6519 78.349 96.6844C78.1557 96.6844 77.9625 96.7168 77.7369 96.7168C76.8349 96.7168 76.1906 96.4572 75.7718 95.9055C75.353 95.3862 75.1597 94.7046 75.1597 93.9257C75.1597 93.1468 75.3852 92.4327 75.804 91.9134C76.2228 91.3942 76.8993 91.1345 77.7692 91.1345C78.2524 91.1345 78.8001 91.1994 79.4444 91.3617V92.0757C78.8967 91.881 78.5423 91.7836 78.349 91.7512C78.1557 91.7187 77.9625 91.6863 77.7692 91.6863C77.1248 91.6863 76.6738 91.9135 76.3839 92.3354C76.0939 92.7573 75.9651 93.309 75.9651 93.9257C75.9651 94.5423 76.1261 95.0941 76.4483 95.516C76.7705 95.9055 77.2537 96.1326 77.8336 96.1326C77.9947 96.1326 78.1557 96.1326 78.3168 96.1002C78.4779 96.1002 78.639 96.0353 78.8001 95.9704C78.9611 95.9055 79.1544 95.8081 79.4122 95.6783V96.3274L79.4444 96.2949Z" fill="#162667"/>
<path d="M81.2808 91.2644H80.5398V96.5871H81.2808V91.2644Z" fill="#162667"/>
<path d="M83.5681 94.5424H85.3722L84.4701 92.2381L83.5681 94.5424ZM82.054 96.5871L84.148 91.2644H84.889L86.9508 96.5871H86.1454L85.5655 95.1266H83.3426L82.7627 96.5871H82.054Z" fill="#162667"/>
<path d="M90.8167 91.2644H90.0757V96.5871H90.8167V91.2644Z" fill="#162667"/>
<path d="M92.2019 96.5871V91.2644H92.9429L95.6168 95.3538V91.2644H96.2289V96.5871H95.5201L92.8462 92.4652V96.5871H92.2019Z" fill="#162667"/>
<path d="M98.9029 96.5871V91.8161H97.0344V91.2644H101.512V91.8161H99.6439V96.5871H98.9029Z" fill="#162667"/>
<path d="M102.286 96.5871V91.2644H105.25V91.8161H103.059V93.5363H104.895V94.088H103.059V96.0029H105.411V96.5871H102.286Z" fill="#162667"/>
<path d="M107.021 93.7635H107.279C107.827 93.7635 108.213 93.6336 108.407 93.4065C108.6 93.1793 108.696 92.9196 108.696 92.6275C108.696 92.4653 108.664 92.303 108.6 92.2056C108.535 92.0758 108.407 91.9784 108.245 91.9135C108.084 91.8486 107.859 91.8161 107.504 91.8161H107.021V93.7635ZM106.28 96.5871V91.2644H107.891C108.471 91.2644 108.89 91.3942 109.115 91.6539C109.341 91.9135 109.47 92.2381 109.47 92.5626C109.47 92.7573 109.437 92.9521 109.341 93.1468C109.244 93.3415 109.147 93.5038 108.986 93.6661C108.825 93.8284 108.632 93.9582 108.374 94.0556L110.146 96.5546H109.212L107.698 94.3152H106.989V96.5546H106.248L106.28 96.5871Z" fill="#162667"/>
<path d="M110.952 96.5871V91.2644H111.693L114.334 95.3538V91.2644H114.979V96.5871H114.238L111.596 92.4652V96.5871H110.952Z" fill="#162667"/>
<path d="M117.234 94.5424H119.038L118.136 92.2381L117.234 94.5424ZM115.752 96.5871L117.846 91.2644H118.587L120.649 96.5871H119.843L119.263 95.1266H117.008L116.428 96.5871H115.752Z" fill="#162667"/>
<path d="M125.417 96.2949C125.191 96.4247 124.998 96.4896 124.837 96.5546C124.676 96.6195 124.482 96.6519 124.321 96.6844C124.128 96.6844 123.935 96.7168 123.709 96.7168C122.807 96.7168 122.163 96.4572 121.744 95.9055C121.325 95.3862 121.132 94.7046 121.132 93.9257C121.132 93.1468 121.357 92.4327 121.776 91.9134C122.195 91.3942 122.872 91.1345 123.741 91.1345C124.192 91.1345 124.772 91.1994 125.384 91.3617V92.0757C124.869 91.881 124.482 91.7836 124.289 91.7512C124.096 91.7187 123.902 91.6863 123.709 91.6863C123.065 91.6863 122.614 91.9135 122.324 92.3354C122.034 92.7573 121.905 93.309 121.905 93.9257C121.905 94.5423 122.066 95.0941 122.388 95.516C122.71 95.9055 123.194 96.1326 123.774 96.1326C123.935 96.1326 124.096 96.1326 124.257 96.1002C124.418 96.1002 124.579 96.0353 124.74 95.9704C124.901 95.9055 125.094 95.8081 125.352 95.6783V96.3274L125.417 96.2949Z" fill="#162667"/>
<path d="M127.285 91.2644H126.544V96.5871H127.285V91.2644Z" fill="#162667"/>
<path d="M130.829 96.1327C131.376 96.1327 131.763 95.9379 132.053 95.5485C132.343 95.159 132.472 94.6073 132.472 93.9257C132.472 93.2441 132.343 92.6924 132.021 92.3029C131.731 91.9135 131.312 91.7187 130.797 91.7187C130.281 91.7187 129.862 91.9135 129.572 92.3029C129.282 92.6924 129.121 93.2441 129.121 93.9257C129.121 94.6073 129.282 95.159 129.572 95.5485C129.862 95.9379 130.281 96.1327 130.797 96.1327M130.829 96.7168C130.346 96.7168 129.895 96.587 129.54 96.3923C129.154 96.1651 128.896 95.8406 128.67 95.4186C128.477 94.9967 128.38 94.5099 128.38 93.9582C128.38 93.4064 128.477 92.952 128.67 92.5301C128.864 92.1082 129.154 91.7512 129.54 91.524C129.927 91.2968 130.346 91.167 130.861 91.167C131.376 91.167 131.795 91.2968 132.182 91.524C132.568 91.7512 132.858 92.0757 133.052 92.5301C133.245 92.952 133.342 93.4389 133.342 93.9582C133.342 94.4774 133.245 94.9643 133.052 95.3862C132.858 95.8081 132.568 96.1651 132.214 96.3923C131.827 96.6195 131.409 96.7493 130.893 96.7493" fill="#162667"/>
<path d="M134.373 96.5871V91.2644H135.114L137.787 95.3538V91.2644H138.432V96.5871H137.691L135.017 92.4652V96.5871H134.373Z" fill="#162667"/>
<path d="M140.687 94.5424H142.491L141.589 92.2381L140.687 94.5424ZM139.205 96.5871L141.299 91.2644H142.04L144.102 96.5871H143.296L142.717 95.1266H140.461L139.882 96.5871H139.173H139.205Z" fill="#162667"/>
<path d="M144.875 96.5871V91.2644H145.648V96.0029H148V96.5871H144.875Z" fill="#162667"/>
</g>
<defs>
<clipPath id="clip0_7206_2996">
<rect width="148" height="138" fill="white"/>
</clipPath>
</defs>
</svg>
