<?xml version="1.0" encoding="UTF-8" standalone="no"?>
<!-- Generator: Adobe Illustrator 27.9.5, SVG Export Plug-In . SVG Version: 9.03 Build 54986)  -->

<svg
   version="1.1"
   id="Capa_1"
   x="0px"
   y="0px"
   viewBox="0 0 291.10001 87.999997"
   xml:space="preserve"
   width="291.10001"
   height="88"
   xmlns="http://www.w3.org/2000/svg"
   xmlns:svg="http://www.w3.org/2000/svg"><defs
   id="defs21" />
<style
   type="text/css"
   id="style1">
	.st0{fill:#007BC4;}
</style>
<g
   id="g21"
   transform="translate(-152.1,-376.9)">
	<g
   id="g17">
		<g
   id="g16">
			<path
   class="st0"
   d="m 240.7,408.5 v 0 c 0,-3.7 2.9,-6.5 6.6,-6.5 2.7,0 4.5,1.3 5.6,3.2 l -3.4,2 c -0.5,-0.9 -1.1,-1.5 -2.2,-1.5 -1.4,0 -2.3,1.2 -2.3,2.7 v 0 c 0,1.6 1,2.7 2.3,2.7 1.2,0 1.8,-0.6 2.3,-1.6 l 3.4,1.9 c -1,1.8 -2.8,3.3 -5.8,3.3 -3.5,0.2 -6.5,-2.3 -6.5,-6.2 z"
   id="path1" />
			<path
   class="st0"
   d="m 253.7,402.3 h 10.5 v 3.4 h -6.5 v 1.3 h 6 v 3 h -6 v 1.3 h 6.6 v 3.4 h -10.6 z"
   id="path2" />
			<path
   class="st0"
   d="m 265.4,402.3 h 3.9 l 4.4,5.4 v -5.4 h 4.1 v 12.3 h -3.7 l -4.6,-5.7 v 5.7 h -4.1 z"
   id="path3" />
			<path
   class="st0"
   d="m 282.3,405.8 h -3.6 v -3.5 h 11.4 v 3.5 h -3.6 v 8.8 h -4.1 z"
   id="path4" />
			<path
   class="st0"
   d="m 291,402.3 h 6 c 2.2,0 3.6,0.5 4.4,1.4 0.7,0.7 1.1,1.7 1.1,2.9 v 0 c 0,1.8 -0.9,3 -2.4,3.8 l 2.9,4.2 h -4.7 l -2.3,-3.5 h -0.9 v 3.5 H 291 Z m 5.9,5.9 c 1,0 1.6,-0.4 1.6,-1.2 v 0 c 0,-0.8 -0.6,-1.2 -1.6,-1.2 h -1.8 v 2.4 z"
   id="path5" />
			<path
   class="st0"
   d="m 303.4,408.5 v 0 c 0,-3.6 2.9,-6.5 6.8,-6.5 3.9,0 6.7,2.8 6.7,6.4 v 0 c 0,3.6 -2.9,6.4 -6.8,6.4 -3.9,0 -6.7,-2.7 -6.7,-6.3 z m 9.3,0 v 0 c 0,-1.5 -1,-2.8 -2.6,-2.8 -1.6,0 -2.6,1.3 -2.6,2.7 v 0 c 0,1.5 1,2.8 2.6,2.8 1.6,0.1 2.6,-1.2 2.6,-2.7 z"
   id="path6" />
			<path
   class="st0"
   d="m 240.8,431.6 v 0 c 0,-4.8 3.9,-8.5 8.9,-8.5 5,0 8.9,3.7 8.9,8.4 v 0 c 0,4.7 -3.9,8.5 -8.9,8.5 -5,0 -8.9,-3.7 -8.9,-8.4 z m 12.3,0 v 0 c 0,-2 -1.3,-3.7 -3.4,-3.7 -2.1,0 -3.4,1.7 -3.4,3.6 v 0 c 0,1.9 1.3,3.7 3.4,3.7 2.1,0 3.4,-1.7 3.4,-3.6 z"
   id="path7" />
			<path
   class="st0"
   d="m 273,430.7 c -0.3,0.7 -0.8,1.2 -1.4,1.6 -0.6,0.4 -1.3,0.8 -2,1 -0.7,0.2 -1.6,0.3 -2.4,0.3 h -4.4 v 6.1 h -1.2 v -16.3 h 5.9 c 0.9,0 1.7,0.1 2.5,0.3 0.7,0.2 1.4,0.6 1.9,1 0.5,0.4 0.9,0.9 1.2,1.6 0.3,0.6 0.4,1.3 0.4,2.1 v 0 c 0,0.9 -0.2,1.6 -0.5,2.3 z m -0.7,-2.3 c 0,-0.7 -0.1,-1.2 -0.4,-1.7 -0.2,-0.5 -0.6,-0.9 -1,-1.2 -0.4,-0.3 -1,-0.6 -1.6,-0.7 -0.6,-0.2 -1.3,-0.3 -2,-0.3 h -4.6 v 8 h 4.5 c 0.8,0 1.4,-0.1 2.1,-0.3 0.6,-0.2 1.1,-0.5 1.6,-0.8 0.5,-0.3 0.8,-0.8 1,-1.3 0.3,-0.5 0.4,-1 0.4,-1.7 z"
   id="path8" />
			<path
   class="st0"
   d="m 292.1,434.7 c -0.4,1 -0.9,1.9 -1.7,2.7 -0.7,0.8 -1.6,1.4 -2.6,1.8 -1,0.5 -2.1,0.7 -3.4,0.7 -1.2,0 -2.4,-0.2 -3.4,-0.7 -1,-0.5 -1.9,-1.1 -2.6,-1.8 -0.7,-0.7 -1.3,-1.7 -1.6,-2.7 -0.3,-1 -0.6,-2.1 -0.6,-3.2 v 0 c 0,-1.1 0.2,-2.2 0.6,-3.2 0.4,-1 0.9,-1.9 1.7,-2.7 0.7,-0.8 1.6,-1.4 2.6,-1.8 1,-0.4 2.1,-0.7 3.4,-0.7 1.2,0 2.3,0.2 3.3,0.7 1,0.5 1.9,1.1 2.6,1.8 0.7,0.7 1.3,1.7 1.6,2.7 0.4,1 0.6,2.1 0.6,3.2 v 0 c 0.1,1.1 -0.1,2.2 -0.5,3.2 z m -0.6,-3.2 c 0,-1 -0.2,-2 -0.5,-2.8 -0.3,-0.8 -0.8,-1.7 -1.4,-2.3 -0.6,-0.7 -1.3,-1.2 -2.2,-1.6 -0.9,-0.4 -1.8,-0.6 -2.8,-0.6 -1,0 -1.9,0.2 -2.8,0.6 -0.8,0.4 -1.6,0.9 -2.2,1.6 -0.6,0.7 -1.1,1.4 -1.4,2.3 -0.3,0.9 -0.5,1.8 -0.5,2.8 v 0 c 0,1 0.2,2 0.5,2.8 0.3,0.9 0.8,1.7 1.4,2.3 0.6,0.6 1.3,1.2 2.2,1.6 0.9,0.4 1.8,0.6 2.8,0.6 1,0 1.9,-0.2 2.8,-0.6 0.8,-0.4 1.6,-0.9 2.2,-1.6 0.6,-0.7 1.1,-1.4 1.4,-2.3 0.3,-0.8 0.5,-1.7 0.5,-2.8 z"
   id="path9" />
			<path
   class="st0"
   d="M 308.5,439.7 303.3,433 H 298 v 6.7 h -1.2 v -16.3 h 6.8 c 0.9,0 1.7,0.1 2.4,0.3 0.7,0.2 1.3,0.5 1.8,1 0.5,0.4 0.9,0.9 1.2,1.5 0.3,0.6 0.4,1.2 0.4,1.9 v 0 c 0,0.7 -0.1,1.3 -0.4,1.8 -0.2,0.5 -0.6,1 -1,1.4 -0.4,0.4 -0.9,0.7 -1.5,0.9 -0.6,0.2 -1.2,0.4 -1.9,0.5 l 5.4,6.9 h -1.5 z m -0.2,-11.6 c 0,-1.1 -0.4,-2 -1.2,-2.6 -0.8,-0.6 -2,-1 -3.5,-1 H 298 v 7.3 h 5.5 c 0.7,0 1.3,-0.1 1.9,-0.3 0.6,-0.2 1.1,-0.4 1.5,-0.7 0.4,-0.3 0.7,-0.7 1,-1.2 0.2,-0.4 0.4,-0.9 0.4,-1.5 z"
   id="path10" />
			<path
   class="st0"
   d="m 319.1,424.5 v 15.2 h -1.2 v -15.2 h -5.7 v -1.1 h 12.5 v 1.1 z"
   id="path11" />
			<path
   class="st0"
   d="m 341,435.8 c -0.3,0.9 -0.8,1.6 -1.4,2.2 -0.6,0.6 -1.3,1.1 -2.1,1.4 -0.8,0.3 -1.7,0.5 -2.7,0.5 -1,0 -1.9,-0.2 -2.7,-0.5 -0.8,-0.3 -1.5,-0.8 -2.1,-1.3 -0.6,-0.6 -1.1,-1.3 -1.4,-2.2 -0.3,-0.9 -0.5,-1.9 -0.5,-3 v -9.5 h 1.2 v 9.4 c 0,1.9 0.5,3.4 1.5,4.5 1,1 2.3,1.6 4.1,1.6 0.8,0 1.6,-0.1 2.2,-0.4 0.6,-0.3 1.2,-0.6 1.7,-1.1 0.5,-0.5 0.8,-1.1 1.1,-1.9 0.3,-0.7 0.4,-1.6 0.4,-2.6 v -9.5 h 1.2 v 9.4 c 0,1.1 -0.1,2.1 -0.5,3 z"
   id="path12" />
			<path
   class="st0"
   d="m 358.7,439.7 -11.5,-14.5 v 14.5 H 346 v -16.3 h 1.1 l 11.2,14.1 v -14.1 h 1.2 v 16.3 z"
   id="path13" />
			<path
   class="st0"
   d="m 364.6,439.7 v -16.3 h 1.2 v 16.3 z"
   id="path14" />
			<path
   class="st0"
   d="m 383.4,435.8 c -0.3,0.9 -0.8,1.6 -1.4,2.2 -0.6,0.6 -1.3,1.1 -2.1,1.4 -0.8,0.3 -1.7,0.5 -2.7,0.5 -1,0 -1.9,-0.2 -2.7,-0.5 -0.8,-0.3 -1.5,-0.8 -2.1,-1.3 -0.6,-0.6 -1.1,-1.3 -1.4,-2.2 -0.3,-0.9 -0.5,-1.9 -0.5,-3 v -9.5 h 1.2 v 9.4 c 0,1.9 0.5,3.4 1.5,4.5 1,1 2.3,1.6 4.1,1.6 0.8,0 1.6,-0.1 2.2,-0.4 0.6,-0.3 1.2,-0.6 1.7,-1.1 0.5,-0.5 0.8,-1.1 1.1,-1.9 0.3,-0.7 0.4,-1.6 0.4,-2.6 v -9.5 h 1.2 v 9.4 c 0,1.1 -0.2,2.1 -0.5,3 z"
   id="path15" />
			<path
   class="st0"
   d="m 399,437.3 c -0.3,0.5 -0.6,1 -1.1,1.4 -0.5,0.4 -1,0.7 -1.7,0.9 -0.7,0.2 -1.4,0.3 -2.2,0.3 -1.3,0 -2.5,-0.2 -3.5,-0.7 -1,-0.4 -2.1,-1.1 -3,-2 l 0.8,-0.9 c 0.4,0.4 0.9,0.8 1.3,1.1 0.4,0.3 0.9,0.5 1.4,0.7 0.5,0.2 1,0.3 1.5,0.4 0.5,0.1 1.1,0.2 1.7,0.2 0.6,0 1.2,-0.1 1.7,-0.2 0.5,-0.2 0.9,-0.4 1.3,-0.7 0.4,-0.3 0.6,-0.6 0.8,-1 0.2,-0.4 0.3,-0.8 0.3,-1.3 v 0 c 0,-0.4 -0.1,-0.8 -0.2,-1.2 -0.1,-0.3 -0.4,-0.7 -0.7,-0.9 -0.3,-0.3 -0.8,-0.5 -1.4,-0.8 -0.6,-0.2 -1.3,-0.4 -2.3,-0.6 -1,-0.2 -1.8,-0.4 -2.5,-0.7 -0.7,-0.3 -1.3,-0.6 -1.7,-1 -0.4,-0.4 -0.8,-0.8 -1,-1.3 -0.2,-0.5 -0.3,-1 -0.3,-1.6 v 0 c 0,-0.6 0.1,-1.2 0.4,-1.7 0.3,-0.5 0.6,-1 1.1,-1.4 0.5,-0.4 1,-0.7 1.7,-0.9 0.6,-0.2 1.3,-0.3 2.1,-0.3 1.2,0 2.2,0.2 3.1,0.5 0.9,0.3 1.7,0.8 2.5,1.5 l -0.8,1 c -0.8,-0.7 -1.6,-1.1 -2.3,-1.4 -0.8,-0.3 -1.6,-0.4 -2.5,-0.4 -0.6,0 -1.2,0.1 -1.6,0.2 -0.5,0.2 -0.9,0.4 -1.3,0.7 -0.3,0.3 -0.6,0.6 -0.8,1 -0.2,0.4 -0.3,0.8 -0.3,1.2 v 0 c 0,0.4 0.1,0.8 0.2,1.2 0.1,0.4 0.4,0.7 0.7,1 0.3,0.3 0.8,0.5 1.5,0.8 0.6,0.2 1.4,0.4 2.4,0.7 1.9,0.4 3.3,0.9 4.1,1.6 0.8,0.7 1.3,1.7 1.3,2.8 v 0 c -0.3,0.6 -0.5,1.2 -0.7,1.8 z"
   id="path16" />
		</g>
	</g>
	<path
   class="st0"
   d="M 399.2,464.9 H 196.1 c -24.3,0 -44,-19.7 -44,-44 0,-24.3 19.7,-44 44,-44 h 203.1 c 24.3,0 44,19.7 44,44 0,24.3 -19.7,44 -44,44 z M 196.1,379.4 c -22.9,0 -41.6,18.6 -41.6,41.6 0,22.9 18.6,41.6 41.6,41.6 h 203.1 c 22.9,0 41.6,-18.6 41.6,-41.6 0,-22.9 -18.6,-41.6 -41.6,-41.6 z"
   id="path17" />
	<g
   id="g20">
		<path
   class="st0"
   d="m 196.4,416.4 c -2.4,0 -3.9,2 -3.9,4.2 v 0.1 c 0,2.3 1.5,4.3 4,4.3 2.4,0 3.9,-2 3.9,-4.2 v -0.1 c 0,-2.3 -1.6,-4.3 -4,-4.3 z"
   id="path18" />
		<path
   class="st0"
   d="m 196.4,388.2 c -18.1,0 -32.8,14.7 -32.8,32.8 0,18.1 14.7,32.8 32.8,32.8 18.1,0 32.8,-14.7 32.8,-32.8 0,-18.2 -14.7,-32.8 -32.8,-32.8 z m 14.1,46.9 c -3.8,3.8 -8.8,5.9 -14.1,5.9 -5.3,0 -10.4,-2.1 -14.1,-5.9 -7.8,-7.8 -7.8,-20.5 0,-28.3 3.8,-3.8 8.8,-5.9 14.1,-5.9 5.3,0 10.4,2.1 14.1,5.9 3.7,3.8 5.9,8.8 5.9,14.1 0,5.4 -2.1,10.4 -5.9,14.2 z"
   id="path19" />
		<path
   class="st0"
   d="m 196.4,402.2 c -5,0 -9.7,2 -13.3,5.5 -7.3,7.3 -7.3,19.2 0,26.5 3.5,3.5 8.2,5.5 13.3,5.5 5,0 9.7,-2 13.3,-5.5 3.5,-3.5 5.5,-8.2 5.5,-13.3 0,-5 -2,-9.7 -5.5,-13.3 -3.6,-3.5 -8.3,-5.4 -13.3,-5.4 z m 10.4,18.4 c 0,5.5 -4.5,9.9 -10.4,9.9 -5.9,0 -10.4,-4.4 -10.4,-9.9 v -0.1 c 0,-5.5 4.5,-9.9 10.4,-9.9 5.9,0.1 10.4,4.5 10.4,10 z"
   id="path20" />
	</g>
</g>
</svg>
