<svg width="290" height="67" viewBox="0 0 290 67" fill="none" xmlns="http://www.w3.org/2000/svg">
<g clip-path="url(#clip0_7207_3068)">
<path d="M99.152 0H0V67H99.152V0Z" fill="white"/>
<path d="M97.2426 1.83655H1.90601V65.0864H97.2426V1.83655Z" fill="#034EA2"/>
<path d="M47.5438 15.6193L49.5541 14.1574L51.5677 15.6193L50.8012 13.2541L52.8451 11.7956H50.3272L49.5541 9.40369L48.7842 11.7989L46.2664 11.7956L48.3102 13.2541L47.5438 15.6193Z" fill="#FFF200"/>
<path d="M37.1329 18.4025L39.1432 16.9406L41.1568 18.4025L40.3903 16.0407L42.4342 14.5788H39.913L39.1432 12.1836L38.3733 14.5822L35.8555 14.5788L37.896 16.0407L37.1329 18.4025Z" fill="#FFF200"/>
<path d="M31.5289 19.7809L30.7557 22.1795L28.2378 22.1761L30.2817 23.638L29.5152 25.9998L31.5289 24.5379L33.5391 25.9998L32.7727 23.638L34.8166 22.1761H32.2987L31.5289 19.7809Z" fill="#FFF200"/>
<path d="M28.732 34.885L30.7423 36.3469L29.9792 33.9851L32.0197 32.5232H29.5052L28.732 30.1279L27.9622 32.5299L25.4443 32.5232L27.4882 33.9851L26.7218 36.3469L28.732 34.885Z" fill="#FFF200"/>
<path d="M32.2987 42.9003L31.5255 40.5084L30.7557 42.9037L28.2378 42.9003L30.2817 44.3622L29.5152 46.724L31.5255 45.2621L33.5391 46.724L32.7727 44.3622L34.8166 42.9003H32.2987Z" fill="#FFF200"/>
<path d="M39.9298 50.4943L39.16 48.1057L38.3902 50.4976L35.8723 50.4943L37.9128 51.9562L37.1497 54.318L39.16 52.8594L41.1703 54.318L40.4072 51.9562L42.4477 50.4943H39.9298Z" fill="#FFF200"/>
<path d="M50.3273 53.2474L49.5575 50.8555L48.7877 53.2507L46.2698 53.2474L48.3103 54.7093L47.5472 57.0711L49.5575 55.6092L51.5677 57.0711L50.8013 54.7093L52.8452 53.2474H50.3273Z" fill="#FFF200"/>
<path d="M60.725 50.4943L59.9552 48.1057L59.182 50.4976L56.6675 50.4943L58.708 51.9562L57.9449 54.318L59.9552 52.8594L61.9688 54.318L61.199 51.9562L63.2429 50.4943H60.725Z" fill="#FFF200"/>
<path d="M68.3592 42.9003L67.586 40.5084L66.8162 42.9037L64.2983 42.9003L66.3422 44.3622L65.5758 46.724L67.586 45.2621L69.5997 46.724L68.8332 44.3622L70.8771 42.9003H68.3592Z" fill="#FFF200"/>
<path d="M73.6405 32.4931H71.1226L70.3495 30.1012L69.583 32.4964L67.0618 32.4931L69.1057 33.955L68.3426 36.3168L70.3495 34.8549L72.3631 36.3168L71.6 33.955L73.6405 32.4931Z" fill="#FFF200"/>
<path d="M65.5758 25.9664L67.586 24.5078L69.5997 25.9664L68.8332 23.6046L70.8771 22.1461H68.3592L67.586 19.7542L66.8162 22.1494L64.2983 22.1461L66.3422 23.6046L65.5758 25.9664Z" fill="#FFF200"/>
<path d="M59.9855 12.187L59.2156 14.5823L56.6978 14.5789L58.7383 16.0408L57.9718 18.406L59.9888 16.9407L61.9957 18.406L61.2326 16.0408L63.2765 14.5789H60.7553L59.9855 12.187Z" fill="#FFF200"/>
<path d="M121.658 20.4802L124.721 21.447C124.25 23.1464 123.47 24.4076 122.378 25.2306C121.285 26.0569 119.9 26.4683 118.223 26.4683C116.145 26.4683 114.437 25.7625 113.103 24.3508C111.765 22.939 111.096 21.0088 111.096 18.56C111.096 15.9707 111.768 13.9569 113.113 12.5251C114.458 11.0899 116.226 10.374 118.414 10.374C120.327 10.374 121.88 10.936 123.077 12.0634C123.79 12.7291 124.321 13.6859 124.677 14.9303L121.551 15.673C121.366 14.8668 120.979 14.2278 120.394 13.7628C119.806 13.2945 119.093 13.0637 118.256 13.0637C117.096 13.0637 116.155 13.4785 115.436 14.3048C114.713 15.1311 114.353 16.4759 114.353 18.3292C114.353 20.2962 114.71 21.6979 115.419 22.5342C116.132 23.3706 117.056 23.7887 118.192 23.7887C119.033 23.7887 119.752 23.5245 120.357 22.9926C120.962 22.4607 121.396 21.6277 121.658 20.4869V20.4802Z" fill="#034EA2"/>
<path d="M126.714 20.4065C126.714 19.4163 126.96 18.4562 127.45 17.5295C127.941 16.6029 128.637 15.8936 129.535 15.4052C130.435 14.9168 131.441 14.6726 132.55 14.6726C134.264 14.6726 135.67 15.2279 136.765 16.3352C137.861 17.4425 138.409 18.8442 138.409 20.5336C138.409 22.223 137.855 23.6548 136.749 24.7755C135.643 25.8961 134.251 26.4582 132.573 26.4582C131.535 26.4582 130.543 26.224 129.602 25.759C128.661 25.294 127.941 24.6082 127.454 23.705C126.963 22.8017 126.717 21.7045 126.717 20.4098L126.714 20.4065ZM129.787 20.5637C129.787 21.681 130.052 22.5374 130.587 23.1329C131.121 23.7284 131.777 24.0261 132.56 24.0261C133.343 24.0261 133.999 23.7284 134.53 23.1329C135.061 22.5374 135.323 21.6744 135.323 20.5436C135.323 19.4129 135.058 18.59 134.53 17.9945C134.002 17.399 133.343 17.1013 132.56 17.1013C131.777 17.1013 131.121 17.399 130.587 17.9945C130.052 18.59 129.787 19.4464 129.787 20.5637Z" fill="#034EA2"/>
<path d="M139.519 14.9268H141.183V14.0771C141.183 13.1304 141.284 12.4212 141.485 11.9528C141.687 11.4845 142.06 11.1065 142.605 10.8121C143.149 10.5177 143.838 10.3705 144.669 10.3705C145.499 10.3705 146.36 10.4976 147.177 10.7518L146.77 12.8326C146.292 12.7189 145.835 12.662 145.395 12.662C144.955 12.662 144.649 12.7624 144.46 12.9664C144.272 13.1672 144.178 13.5552 144.178 14.1306V14.9268H146.42V17.2719H144.178V26.2005H141.179V17.2719H139.515V14.9268H139.519ZM147.936 13.398V10.6381H150.935V13.398H147.936ZM147.936 26.2039V14.9268H150.935V26.2039H147.936Z" fill="#034EA2"/>
<path d="M164.409 26.2039H161.41V20.4499C161.41 19.2322 161.346 18.4461 161.218 18.0881C161.091 17.7302 160.882 17.4525 160.593 17.2551C160.304 17.0578 159.958 16.9574 159.554 16.9574C159.037 16.9574 158.569 17.0979 158.156 17.3823C157.742 17.6666 157.46 18.0413 157.309 18.5096C157.154 18.978 157.08 19.8411 157.08 21.0989V26.2072H154.082V14.9301H156.865V16.5861C157.853 15.3115 159.097 14.6759 160.6 14.6759C161.262 14.6759 161.867 14.793 162.415 15.0305C162.963 15.268 163.377 15.5691 163.659 15.9371C163.941 16.3051 164.136 16.7232 164.247 17.1916C164.358 17.6599 164.412 18.329 164.412 19.1988V26.2072L164.409 26.2039Z" fill="#034EA2"/>
<path d="M169.69 18.3692L166.97 17.8808C167.276 16.7902 167.804 15.984 168.55 15.4588C169.296 14.9335 170.406 14.6726 171.878 14.6726C173.216 14.6726 174.211 14.8298 174.867 15.1443C175.522 15.4588 175.983 15.8602 176.248 16.3453C176.514 16.8303 176.648 17.7202 176.648 19.0148L176.618 22.4973C176.618 23.4875 176.665 24.2201 176.762 24.6885C176.86 25.1602 177.038 25.6653 177.3 26.2006H174.335C174.258 26.0032 174.161 25.7088 174.046 25.3208C173.996 25.1434 173.962 25.0264 173.939 24.9695C173.428 25.4646 172.88 25.8359 172.295 26.0835C171.713 26.331 171.088 26.4548 170.429 26.4548C169.263 26.4548 168.342 26.1404 167.673 25.5114C167 24.8825 166.664 24.0863 166.664 23.1229C166.664 22.4873 166.819 21.9186 167.125 21.4201C167.431 20.9217 167.857 20.5403 168.409 20.2727C168.96 20.0084 169.753 19.7742 170.792 19.5768C172.194 19.3159 173.165 19.0717 173.703 18.8442V18.5465C173.703 17.9744 173.562 17.563 173.276 17.3188C172.991 17.0745 172.456 16.9508 171.666 16.9508C171.132 16.9508 170.715 17.0545 170.419 17.2652C170.12 17.4726 169.878 17.8406 169.693 18.3658L169.69 18.3692ZM173.703 20.7878C173.32 20.915 172.712 21.0689 171.878 21.2428C171.044 21.4201 170.503 21.5941 170.244 21.7647C169.854 22.0423 169.656 22.3903 169.656 22.8151C169.656 23.24 169.811 23.5946 170.127 23.899C170.439 24.2034 170.839 24.354 171.32 24.354C171.861 24.354 172.376 24.1767 172.866 23.822C173.229 23.5544 173.468 23.2232 173.582 22.8352C173.66 22.5809 173.7 22.0959 173.7 21.38V20.7845L173.703 20.7878Z" fill="#034EA2"/>
<path d="M189.91 26.2039H186.911V20.4499C186.911 19.2322 186.848 18.4461 186.72 18.0881C186.592 17.7302 186.384 17.4525 186.095 17.2551C185.805 17.0578 185.459 16.9574 185.056 16.9574C184.538 16.9574 184.071 17.0979 183.657 17.3823C183.244 17.6666 182.961 18.0413 182.81 18.5096C182.656 18.978 182.582 19.8411 182.582 21.0989V26.2072H179.583V14.9301H182.366V16.5861C183.355 15.3115 184.599 14.6759 186.101 14.6759C186.763 14.6759 187.369 14.793 187.917 15.0305C188.464 15.268 188.878 15.5691 189.16 15.9371C189.443 16.3051 189.638 16.7232 189.749 17.1916C189.86 17.6599 189.913 18.329 189.913 19.1988V26.2072L189.91 26.2039Z" fill="#034EA2"/>
<path d="M202.829 18.2621L199.874 18.794C199.773 18.2053 199.548 17.7637 199.195 17.4659C198.842 17.1682 198.385 17.021 197.823 17.021C197.077 17.021 196.482 17.2786 196.035 17.7904C195.588 18.3023 195.369 19.162 195.369 20.3663C195.369 21.7045 195.594 22.6478 196.048 23.1998C196.499 23.7518 197.107 24.0295 197.867 24.0295C198.435 24.0295 198.902 23.8689 199.265 23.5477C199.628 23.2266 199.884 22.6713 200.035 21.8851L202.98 22.3836C202.674 23.7284 202.086 24.7454 201.219 25.4311C200.351 26.1169 199.188 26.4615 197.729 26.4615C196.072 26.4615 194.751 25.943 193.766 24.8992C192.781 23.8588 192.287 22.417 192.287 20.5771C192.287 18.7372 192.781 17.2652 193.769 16.2282C194.757 15.1911 196.095 14.6726 197.78 14.6726C199.158 14.6726 200.257 14.967 201.071 15.5591C201.884 16.1512 202.469 17.0511 202.825 18.2621H202.829Z" fill="#034EA2"/>
<path d="M205.101 13.3979V10.6381H208.1V13.3979H205.101ZM205.101 26.2038V14.9268H208.1V26.2038H205.101Z" fill="#034EA2"/>
<path d="M213.415 18.3692L210.695 17.8808C211.001 16.7902 211.529 15.984 212.275 15.4588C213.021 14.9335 214.131 14.6726 215.603 14.6726C216.941 14.6726 217.936 14.8298 218.592 15.1443C219.247 15.4588 219.708 15.8602 219.973 16.3453C220.239 16.8303 220.373 17.7202 220.373 19.0148L220.343 22.4973C220.343 23.4875 220.39 24.2201 220.488 24.6885C220.585 25.1602 220.763 25.6653 221.025 26.2006H218.06C217.983 26.0032 217.886 25.7088 217.771 25.3208C217.721 25.1434 217.687 25.0264 217.664 24.9695C217.153 25.4646 216.605 25.8359 216.02 26.0835C215.438 26.331 214.813 26.4548 214.154 26.4548C212.988 26.4548 212.067 26.1404 211.398 25.5114C210.725 24.8825 210.389 24.0863 210.389 23.1229C210.389 22.4873 210.544 21.9186 210.85 21.4201C211.156 20.9217 211.583 20.5403 212.134 20.2727C212.685 20.0084 213.479 19.7742 214.517 19.5768C215.919 19.3159 216.891 19.0717 217.428 18.8442V18.5465C217.428 17.9744 217.287 17.563 217.002 17.3188C216.716 17.0745 216.181 16.9508 215.391 16.9508C214.857 16.9508 214.44 17.0545 214.144 17.2652C213.845 17.4726 213.603 17.8406 213.418 18.3658L213.415 18.3692ZM217.425 20.7878C217.042 20.915 216.433 21.0689 215.6 21.2428C214.766 21.4201 214.225 21.5941 213.966 21.7647C213.576 22.0423 213.378 22.3903 213.378 22.8151C213.378 23.24 213.532 23.5946 213.848 23.899C214.161 24.2034 214.561 24.354 215.042 24.354C215.583 24.354 216.097 24.1767 216.588 23.822C216.951 23.5544 217.19 23.2232 217.304 22.8352C217.381 22.5809 217.422 22.0959 217.422 21.38V20.7845L217.425 20.7878Z" fill="#034EA2"/>
<path d="M233.719 26.2038H230.936V24.5479C230.472 25.1935 229.927 25.6719 229.298 25.9864C228.67 26.3008 228.034 26.4581 227.392 26.4581C226.091 26.4581 224.975 25.9362 224.047 24.8925C223.12 23.8487 222.656 22.3935 222.656 20.5235C222.656 18.6534 223.106 17.1614 224.01 16.1645C224.915 15.171 226.054 14.6725 227.436 14.6725C228.703 14.6725 229.796 15.1977 230.724 16.2448V10.6381H233.722V26.2038H233.719ZM225.715 20.3194C225.715 21.5237 225.883 22.3935 226.216 22.9321C226.7 23.7116 227.376 24.0996 228.243 24.0996C228.932 24.0996 229.52 23.8086 230.004 23.2231C230.488 22.6377 230.73 21.7679 230.73 20.6071C230.73 19.3125 230.495 18.3791 230.028 17.8104C229.561 17.2417 228.955 16.954 228.226 16.954C227.497 16.954 226.918 17.235 226.438 17.797C225.957 18.3591 225.718 19.2021 225.718 20.3194H225.715Z" fill="#034EA2"/>
<path d="M235.978 20.4065C235.978 19.4163 236.223 18.4562 236.714 17.5295C237.205 16.6029 237.901 15.8936 238.798 15.4052C239.699 14.9168 240.705 14.6726 241.814 14.6726C243.528 14.6726 244.933 15.2279 246.029 16.3352C247.125 17.4425 247.673 18.8442 247.673 20.5336C247.673 22.223 247.119 23.6548 246.013 24.7755C244.907 25.8961 243.515 26.4582 241.837 26.4582C240.799 26.4582 239.807 26.224 238.866 25.759C237.924 25.294 237.205 24.6082 236.718 23.705C236.227 22.8017 235.981 21.7045 235.981 20.4098L235.978 20.4065ZM239.054 20.5637C239.054 21.681 239.32 22.5374 239.854 23.1329C240.389 23.7284 241.044 24.0261 241.827 24.0261C242.611 24.0261 243.266 23.7284 243.797 23.1329C244.328 22.5374 244.591 21.6744 244.591 20.5436C244.591 19.4129 244.325 18.59 243.797 17.9945C243.269 17.399 242.611 17.1013 241.827 17.1013C241.044 17.1013 240.389 17.399 239.854 17.9945C239.32 18.59 239.054 19.4464 239.054 20.5637Z" fill="#034EA2"/>
<path d="M256.007 14.9268H258.8V16.5827C259.164 16.0174 259.654 15.5557 260.273 15.2011C260.891 14.8465 261.577 14.6692 262.33 14.6692C263.645 14.6692 264.764 15.181 265.682 16.208C266.6 17.235 267.057 18.6635 267.057 20.4967C267.057 22.33 266.593 23.842 265.668 24.8858C264.744 25.9295 263.624 26.4514 262.307 26.4514C261.681 26.4514 261.113 26.3276 260.606 26.0801C260.098 25.8325 259.56 25.4077 258.999 24.8055V30.4858H256V14.9201L256.007 14.9268ZM258.972 20.373C258.972 21.6408 259.224 22.5742 259.728 23.1797C260.233 23.7852 260.848 24.0863 261.574 24.0863C262.3 24.0863 262.851 23.8086 263.312 23.2533C263.776 22.698 264.004 21.788 264.004 20.5201C264.004 19.3393 263.766 18.4594 263.288 17.8874C262.811 17.3153 262.223 17.0276 261.517 17.0276C260.811 17.0276 260.175 17.3086 259.691 17.8707C259.207 18.4327 258.965 19.2657 258.965 20.3696L258.972 20.373Z" fill="#034EA2"/>
<path d="M268.744 20.4065C268.744 19.4163 268.99 18.4562 269.48 17.5295C269.971 16.6029 270.667 15.8936 271.565 15.4052C272.465 14.9168 273.471 14.6726 274.58 14.6726C276.294 14.6726 277.7 15.2279 278.796 16.3352C279.891 17.4425 280.439 18.8442 280.439 20.5336C280.439 22.223 279.885 23.6548 278.779 24.7755C277.673 25.8961 276.281 26.4582 274.604 26.4582C273.565 26.4582 272.573 26.224 271.632 25.759C270.691 25.294 269.971 24.6082 269.484 23.705C268.993 22.8017 268.748 21.7045 268.748 20.4098L268.744 20.4065ZM271.817 20.5637C271.817 21.681 272.082 22.5374 272.617 23.1329C273.151 23.7284 273.807 24.0261 274.59 24.0261C275.373 24.0261 276.029 23.7284 276.56 23.1329C277.091 22.5374 277.353 21.6744 277.353 20.5436C277.353 19.4129 277.088 18.59 276.56 17.9945C276.032 17.399 275.373 17.1013 274.59 17.1013C273.807 17.1013 273.151 17.399 272.617 17.9945C272.082 18.59 271.817 19.4464 271.817 20.5637Z" fill="#034EA2"/>
<path d="M285.657 26.2039H282.658V14.9269H285.442V16.5293C285.919 15.7732 286.346 15.2748 286.726 15.0339C287.106 14.793 287.539 14.6726 288.023 14.6726C288.706 14.6726 289.365 14.8599 289.997 15.2346L289.069 17.8373C288.565 17.5128 288.094 17.3489 287.66 17.3489C287.227 17.3489 286.884 17.4626 286.595 17.6934C286.302 17.9243 286.074 18.3391 285.906 18.9412C285.737 19.5434 285.653 20.8046 285.653 22.7214V26.2039H285.657Z" fill="#034EA2"/>
<path d="M111.63 52.2973V36.7316H114.629V52.2973H111.63Z" fill="#034EA2"/>
<path d="M119.941 44.4593L117.221 43.9709C117.527 42.8803 118.055 42.0741 118.801 41.5488C119.547 41.0236 120.657 40.7627 122.129 40.7627C123.467 40.7627 124.462 40.9199 125.117 41.2344C125.773 41.5488 126.234 41.9503 126.499 42.4354C126.765 42.9204 126.899 43.8103 126.899 45.1049L126.869 48.5874C126.869 49.5776 126.916 50.3102 127.013 50.7786C127.111 51.2503 127.289 51.7554 127.551 52.2907H124.586C124.509 52.0933 124.412 51.7989 124.297 51.4108C124.247 51.2335 124.213 51.1165 124.19 51.0596C123.679 51.5547 123.131 51.926 122.546 52.1736C121.964 52.4211 121.339 52.5449 120.68 52.5449C119.514 52.5449 118.593 52.2304 117.924 51.6015C117.251 50.9726 116.915 50.1764 116.915 49.213C116.915 48.5774 117.07 48.0087 117.376 47.5102C117.681 47.0117 118.108 46.6304 118.66 46.3628C119.211 46.0985 120.004 45.8643 121.043 45.6669C122.445 45.406 123.416 45.1618 123.954 44.9343V44.6366C123.954 44.0645 123.813 43.653 123.527 43.4088C123.242 43.1646 122.707 43.0409 121.917 43.0409C121.383 43.0409 120.966 43.1446 120.67 43.3553C120.371 43.5627 120.129 43.9307 119.944 44.4559L119.941 44.4593ZM123.951 46.8813C123.568 47.0084 122.959 47.1623 122.126 47.3362C121.292 47.5135 120.751 47.6875 120.492 47.8581C120.102 48.1358 119.904 48.4837 119.904 48.9085C119.904 49.3334 120.058 49.688 120.374 49.9924C120.687 50.2968 121.087 50.4474 121.568 50.4474C122.109 50.4474 122.623 50.2701 123.114 49.9155C123.477 49.6479 123.716 49.3167 123.83 48.9286C123.907 48.6744 123.948 48.1893 123.948 47.4734V46.8779L123.951 46.8813Z" fill="#034EA2"/>
<path d="M135.922 36.7316H139.078V45.1618C139.078 46.4999 139.119 47.3663 139.196 47.7644C139.331 48.4 139.653 48.9119 140.161 49.2999C140.669 49.688 141.364 49.8787 142.249 49.8787C143.133 49.8787 143.822 49.698 144.276 49.3334C144.729 48.9687 145.005 48.5205 145.096 47.9919C145.187 47.46 145.234 46.5802 145.234 45.3491V36.7383H148.39V44.9142C148.39 46.7842 148.306 48.1023 148.135 48.8751C147.963 49.6478 147.651 50.2968 147.19 50.8287C146.73 51.3606 146.118 51.7821 145.351 52.0966C144.585 52.4111 143.58 52.5683 142.343 52.5683C140.85 52.5683 139.717 52.3977 138.944 52.0531C138.171 51.7086 137.562 51.2636 137.115 50.715C136.668 50.1664 136.372 49.591 136.231 48.9888C136.026 48.0956 135.922 46.7809 135.922 45.038V36.7349V36.7316Z" fill="#034EA2"/>
<path d="M162.008 52.2974H159.01V46.5434C159.01 45.3257 158.946 44.5396 158.818 44.1816C158.69 43.8237 158.482 43.546 158.193 43.3486C157.904 43.1513 157.557 43.0509 157.154 43.0509C156.636 43.0509 156.169 43.1914 155.755 43.4758C155.342 43.7601 155.06 44.1348 154.908 44.6031C154.754 45.0715 154.68 45.9346 154.68 47.1924V52.3007H151.681V41.0237H154.465V42.6796C155.453 41.405 156.697 40.7694 158.199 40.7694C158.862 40.7694 159.467 40.8865 160.015 41.124C160.563 41.3615 160.976 41.6626 161.259 42.0306C161.541 42.3986 161.736 42.8167 161.847 43.2851C161.958 43.7534 162.012 44.4225 162.012 45.2923V52.3007L162.008 52.2974Z" fill="#034EA2"/>
<path d="M165.051 39.4915V36.7316H168.049V39.4915H165.051ZM165.051 52.2973V41.0203H168.049V52.2973H165.051Z" fill="#034EA2"/>
<path d="M170.426 46.4999C170.426 45.5097 170.671 44.5496 171.162 43.6229C171.653 42.6963 172.349 41.9871 173.246 41.4986C174.147 41.0102 175.152 40.766 176.262 40.766C177.976 40.766 179.381 41.3213 180.477 42.4286C181.573 43.5359 182.121 44.9376 182.121 46.627C182.121 48.3164 181.566 49.7482 180.46 50.8689C179.354 51.9896 177.963 52.5516 176.285 52.5516C175.246 52.5516 174.255 52.3174 173.313 51.8524C172.372 51.3874 171.653 50.7016 171.165 49.7984C170.675 48.8951 170.429 47.7979 170.429 46.5032L170.426 46.4999ZM173.502 46.6571C173.502 47.7745 173.767 48.6309 174.302 49.2263C174.836 49.8218 175.492 50.1195 176.275 50.1195C177.058 50.1195 177.714 49.8218 178.245 49.2263C178.776 48.6309 179.038 47.7678 179.038 46.637C179.038 45.5063 178.773 44.6834 178.245 44.0879C177.717 43.4924 177.058 43.1947 176.275 43.1947C175.492 43.1947 174.836 43.4924 174.302 44.0879C173.767 44.6834 173.502 45.5398 173.502 46.6571ZM174.759 39.642L176.231 36.4673H179.593L176.658 39.642H174.759Z" fill="#034EA2"/>
<path d="M194.774 52.2974H191.776V46.5434C191.776 45.3257 191.712 44.5396 191.584 44.1816C191.456 43.8237 191.248 43.546 190.959 43.3486C190.67 43.1513 190.323 43.0509 189.92 43.0509C189.402 43.0509 188.935 43.1914 188.522 43.4758C188.108 43.7601 187.826 44.1348 187.674 44.6031C187.52 45.0715 187.446 45.9346 187.446 47.1924V52.3007H184.447V41.0237H187.231V42.6796C188.219 41.405 189.463 40.7694 190.966 40.7694C191.628 40.7694 192.233 40.8865 192.781 41.124C193.329 41.3615 193.742 41.6626 194.025 42.0306C194.307 42.3986 194.502 42.8167 194.613 43.2851C194.724 43.7534 194.778 44.4225 194.778 45.2923V52.3007L194.774 52.2974Z" fill="#034EA2"/>
<path d="M203.908 52.2973V36.7316H215.506V39.3643H207.065V42.8167H214.917V45.4394H207.065V49.6746H215.801V52.2973H203.905H203.908Z" fill="#034EA2"/>
<path d="M225.917 52.2974V50.608C225.503 51.2101 224.962 51.6852 224.29 52.0297C223.617 52.3777 222.908 52.5483 222.162 52.5483C221.415 52.5483 220.716 52.381 220.115 52.0498C219.509 51.7186 219.072 51.2503 218.803 50.6481C218.535 50.046 218.397 49.2163 218.397 48.1525V41.017H221.395V46.1989C221.395 47.7845 221.449 48.7547 221.56 49.1126C221.671 49.4706 221.869 49.7549 222.162 49.9623C222.454 50.1698 222.824 50.2768 223.271 50.2768C223.782 50.2768 224.243 50.1363 224.646 49.8586C225.053 49.581 225.328 49.2331 225.476 48.8182C225.628 48.4034 225.702 47.3898 225.702 45.7774V41.0203H228.7V52.2974H225.917Z" fill="#034EA2"/>
<path d="M234.677 52.2973H231.678V41.0202H234.462V42.6226C234.939 41.8666 235.366 41.3681 235.746 41.1273C236.126 40.8864 236.56 40.766 237.044 40.766C237.726 40.766 238.385 40.9533 239.017 41.328L238.089 43.9307C237.585 43.6062 237.114 43.4422 236.681 43.4422C236.247 43.4422 235.904 43.556 235.615 43.7868C235.323 44.0176 235.094 44.4325 234.926 45.0346C234.758 45.6368 234.674 46.898 234.674 48.8148V52.2973H234.677Z" fill="#034EA2"/>
<path d="M239.619 46.4999C239.619 45.5097 239.864 44.5495 240.355 43.6229C240.846 42.6962 241.542 41.987 242.439 41.4986C243.34 41.0102 244.345 40.766 245.455 40.766C247.169 40.766 248.574 41.3213 249.67 42.4286C250.766 43.5359 251.314 44.9376 251.314 46.627C251.314 48.3164 250.759 49.7482 249.653 50.8688C248.547 51.9895 247.156 52.5515 245.478 52.5515C244.44 52.5515 243.448 52.3174 242.507 51.8524C241.565 51.3874 240.846 50.7016 240.358 49.7983C239.868 48.8951 239.622 47.7978 239.622 46.5032L239.619 46.4999ZM242.691 46.6571C242.691 47.7744 242.957 48.6308 243.492 49.2263C244.026 49.8218 244.682 50.1195 245.465 50.1195C246.248 50.1195 246.904 49.8218 247.435 49.2263C247.966 48.6308 248.228 47.7677 248.228 46.637C248.228 45.5063 247.963 44.6834 247.435 44.0879C246.907 43.4924 246.248 43.1947 245.465 43.1947C244.682 43.1947 244.026 43.4924 243.492 44.0879C242.957 44.6834 242.691 45.5398 242.691 46.6571Z" fill="#034EA2"/>
<path d="M253.573 41.0203H256.367V42.6762C256.73 42.1109 257.221 41.6492 257.839 41.2946C258.458 40.94 259.143 40.7627 259.896 40.7627C261.211 40.7627 262.33 41.2745 263.248 42.3015C264.166 43.3286 264.623 44.757 264.623 46.5902C264.623 48.4235 264.159 49.9356 263.235 50.9793C262.31 52.023 261.191 52.5449 259.873 52.5449C259.248 52.5449 258.679 52.4211 258.172 52.1736C257.664 51.926 257.126 51.5012 256.565 50.899V56.5794H253.566V41.0136L253.573 41.0203ZM256.538 46.4665C256.538 47.7343 256.79 48.6677 257.294 49.2732C257.799 49.8787 258.414 50.1798 259.14 50.1798C259.866 50.1798 260.417 49.9021 260.878 49.3468C261.342 48.7915 261.571 47.8815 261.571 46.6137C261.571 45.4328 261.332 44.5529 260.854 43.9809C260.377 43.4088 259.789 43.1211 259.083 43.1211C258.377 43.1211 257.742 43.4022 257.258 43.9642C256.773 44.5262 256.531 45.3592 256.531 46.4631L256.538 46.4665Z" fill="#034EA2"/>
<path d="M273.568 48.7078L276.557 49.2063C276.173 50.2968 275.565 51.1265 274.738 51.6952C273.908 52.2639 272.872 52.5482 271.628 52.5482C269.659 52.5482 268.2 51.9059 267.255 50.628C266.509 49.601 266.135 48.3064 266.135 46.7408C266.135 44.8707 266.626 43.4088 267.608 42.3517C268.59 41.2946 269.83 40.7627 271.333 40.7627C273.017 40.7627 274.348 41.318 275.323 42.4253C276.298 43.5326 276.762 45.2287 276.721 47.5169H269.211C269.232 48.4034 269.474 49.0892 269.938 49.581C270.401 50.0727 270.976 50.3203 271.665 50.3203C272.136 50.3203 272.529 50.1931 272.849 49.9389C273.168 49.6847 273.41 49.2732 273.575 48.7078H273.568ZM273.74 45.6937C273.719 44.8306 273.494 44.1749 273.067 43.7233C272.64 43.275 272.123 43.0475 271.511 43.0475C270.855 43.0475 270.317 43.2851 269.89 43.7601C269.464 44.2351 269.255 44.8774 269.262 45.6937H273.743H273.74Z" fill="#034EA2"/>
<path d="M281.398 44.4593L278.678 43.9709C278.984 42.8803 279.512 42.0741 280.258 41.5488C281.004 41.0236 282.114 40.7627 283.586 40.7627C284.924 40.7627 285.919 40.9199 286.574 41.2344C287.23 41.5488 287.691 41.9503 287.956 42.4354C288.222 42.9204 288.356 43.8103 288.356 45.1049L288.326 48.5874C288.326 49.5776 288.373 50.3102 288.47 50.7786C288.568 51.2503 288.746 51.7554 289.008 52.2907H286.043C285.966 52.0933 285.869 51.7989 285.754 51.4108C285.704 51.2335 285.67 51.1165 285.647 51.0596C285.136 51.5547 284.588 51.926 284.003 52.1736C283.421 52.4211 282.796 52.5449 282.137 52.5449C280.971 52.5449 280.05 52.2304 279.381 51.6015C278.708 50.9726 278.372 50.1764 278.372 49.213C278.372 48.5774 278.527 48.0087 278.833 47.5102C279.139 47.0117 279.565 46.6304 280.117 46.3628C280.668 46.0985 281.461 45.8643 282.5 45.6669C283.902 45.406 284.874 45.1618 285.411 44.9343V44.6366C285.411 44.0645 285.27 43.653 284.984 43.4088C284.699 43.1646 284.164 43.0409 283.374 43.0409C282.84 43.0409 282.423 43.1446 282.127 43.3553C281.828 43.5627 281.586 43.9307 281.401 44.4559L281.398 44.4593ZM285.411 46.8813C285.028 47.0084 284.42 47.1623 283.586 47.3362C282.752 47.5135 282.211 47.6875 281.952 47.8581C281.562 48.1358 281.364 48.4837 281.364 48.9085C281.364 49.3334 281.519 49.688 281.835 49.9924C282.147 50.2968 282.547 50.4474 283.028 50.4474C283.569 50.4474 284.084 50.2701 284.574 49.9155C284.937 49.6479 285.176 49.3167 285.29 48.9286C285.368 48.6744 285.408 48.1893 285.408 47.4734V46.8779L285.411 46.8813Z" fill="#034EA2"/>
</g>
<defs>
<clipPath id="clip0_7207_3068">
<rect width="290" height="67" fill="white"/>
</clipPath>
</defs>
</svg>
