<svg width="495" height="63" viewBox="0 0 495 63" fill="none" xmlns="http://www.w3.org/2000/svg">
<g clip-path="url(#clip0_7206_2728)">
<mask id="mask0_7206_2728" style="mask-type:luminance" maskUnits="userSpaceOnUse" x="0" y="0" width="218" height="63">
<path d="M217.761 0H0V62.7601H217.761V0Z" fill="white"/>
</mask>
<g mask="url(#mask0_7206_2728)">
<path d="M0 62.7601H43.5436V0H0V62.7601ZM20.2151 5.23365H21.2529V4.18692H22.2907V5.23365H23.3285V6.28037H22.2907V7.3271H21.2529V6.28037H20.2151V5.23365ZM12.4534 50.1994H10.3778V52.2928H8.30225V50.1994H6.22669V48.1059H8.30225V46.0125H10.3778V48.1059H12.4534V50.1994ZM12.4534 37.6604H10.3778V39.7539H8.30225V37.6604H6.22669V35.567H8.30225V33.4735H10.3778V35.567H12.4534V37.6604ZM12.4534 25.0997H10.3778V27.1931H8.30225V25.0997H6.22669V23.0062H8.30225V20.9128H10.3778V23.0062H12.4534V25.0997ZM22.8528 46.9938C22.8312 47.3645 22.8096 47.7352 22.8096 48.1277C22.8096 51.2461 23.7825 54.1246 25.404 56.5016H18.1179C19.7611 54.1246 20.7124 51.2461 20.7124 48.1277C20.7124 47.757 20.7124 47.3645 20.6691 46.9938C17.1666 46.4704 14.4857 43.4174 14.4857 39.7539H29.0146C29.0146 43.4393 26.3337 46.4704 22.8312 46.9938M24.8851 23.0062V25.0997H22.8096V27.1931H20.734V25.0997H18.6584V23.0062H20.734V20.9128H22.8096V23.0062H24.8851ZM21.7718 29.2866C24.0636 29.2866 25.9229 31.162 25.9229 33.4735C25.9229 35.785 24.0636 37.6604 21.7718 37.6604C19.48 37.6604 17.6207 35.785 17.6207 33.4735C17.6207 31.162 19.48 29.2866 21.7718 29.2866ZM29.0363 18.296H14.5289V16.7259H29.0363V18.296ZM30.5064 14.0654L29.7497 15.1558H27.8255L29.2092 13.1495C29.447 12.8006 29.5335 12.3427 29.5335 12.0592C29.5335 11.5576 29.3822 11.1433 29.0579 10.838C28.6903 10.4455 28.2147 10.2492 27.6958 10.2492C27.458 10.2492 27.3066 10.2492 27.3066 10.2492C27.4147 10.6636 27.4796 11.0561 27.4796 11.4268C27.4796 12.1028 27.4147 12.6916 27.0472 13.2804L25.9662 15.134H24.0852L25.6202 12.4953C25.7716 12.2555 25.8797 11.7757 25.8797 11.4268C25.8797 10.8816 25.7067 10.4455 25.3608 10.0966C24.9716 9.68224 24.496 9.46418 23.9987 9.46418C23.3501 9.46418 22.896 9.63863 22.5934 10.0312V15.1122H21.0367V10.0312C20.734 9.63863 20.2584 9.46418 19.6314 9.46418C19.1125 9.46418 18.6584 9.68224 18.2693 10.0966C17.9233 10.4455 17.7504 10.8816 17.7504 11.4268C17.7504 11.7975 17.8585 12.2555 18.0098 12.4953L19.5449 15.134H17.6639L16.5829 13.2804C16.237 12.6698 16.1505 12.1028 16.1505 11.4268C16.1505 11.0561 16.2153 10.6417 16.3234 10.2274C16.3234 10.2274 16.1505 10.2274 15.9343 10.2274C15.3938 10.2274 14.9397 10.4237 14.5722 10.8162C14.2479 11.1433 14.0965 11.5576 14.0965 12.0374C14.0965 12.3209 14.183 12.7788 14.4208 13.1277L15.8045 15.134H13.8587L13.102 14.0436C12.6912 13.433 12.4966 12.8006 12.4966 12.0374C12.4966 11.0561 12.8425 10.2492 13.5128 9.61682C14.183 8.919 15.0046 8.57009 15.9343 8.57009C16.3451 8.57009 16.7775 8.65732 17.2315 8.80997C17.2747 8.76636 17.2964 8.72274 17.3396 8.70094C17.945 8.11215 18.7233 7.82866 19.653 7.82866C20.4529 7.82866 21.188 8.06854 21.8366 8.57009C22.5069 8.09034 23.242 7.82866 24.0203 7.82866C24.9284 7.82866 25.7067 8.13396 26.3337 8.70094C26.3769 8.74455 26.3986 8.76636 26.4418 8.80997C26.8958 8.65732 27.3282 8.57009 27.7174 8.57009C28.6471 8.57009 29.4687 8.919 30.1389 9.61682C30.8091 10.2492 31.1551 11.0561 31.1551 12.0374C31.1551 12.8006 30.9605 13.433 30.5497 14.0436M37.3385 50.1994H35.2629V52.2928H33.1874V50.1994H31.1118V48.1059H33.1874V46.0125H35.2629V48.1059H37.3385V50.1994ZM37.3385 37.6604H35.2629V39.7539H33.1874V37.6604H31.1118V35.567H33.1874V33.4735H35.2629V35.567H37.3385V37.6604ZM37.3385 25.0997H35.2629V27.1931H33.1874V25.0997H31.1118V23.0062H33.1874V20.9128H35.2629V23.0062H37.3385V25.0997ZM72.4501 45.8598C72.4501 52.6418 68.58 56.4798 62.8506 56.4798H55.9969V35.5452H62.5479C68.4936 35.5452 72.4501 39.2741 72.4501 45.8598ZM69.553 45.8598C69.553 40.6698 66.5693 38.0966 62.4831 38.0966H58.6995V53.9284H62.6777C66.6991 53.9284 69.553 51.2679 69.553 45.8598ZM77.3363 35.5452H90.0924L89.2492 38.0966H80.0389V44.2897H88.2763V46.8411H80.0389V53.9284H89.3573L90.2005 56.4798H77.3363V35.5452ZM102.33 45.9252C102.33 39.405 106.351 35.0654 112.534 35.0654C114.848 35.0654 117.615 35.9813 119.648 37.1807V40.3427C117.096 38.729 114.329 37.6822 112.534 37.6822C108.232 37.6822 105.227 40.9969 105.227 45.9252C105.227 51.1807 107.843 54.4081 111.713 54.4081C115.323 54.4081 117.94 52.0966 118.264 48.1931H112.448L111.626 45.6418H120.923C121.053 46.2087 121.096 46.8629 121.096 47.5607C121.096 53.1215 117.464 57.0249 111.691 57.0249C105.919 57.0249 102.308 52.7508 102.308 45.9252M132.339 35.5452H134.09L142.803 56.4798H139.819L137.809 51.3551H128.512L126.458 56.4798H123.604L132.317 35.5452H132.339ZM136.814 48.8692L133.182 39.6885L129.506 48.8692H136.814ZM146.565 35.5452H149.268V53.9284H158.889L159.732 56.4798H146.565V35.5452ZM163.624 35.5452H166.326V56.4798H163.624V35.5452ZM171.212 45.8598C171.212 39.3614 174.736 35.0654 180.358 35.0654C182.801 35.0654 185.374 35.9813 187.276 37.3988V40.5826C184.985 38.8598 182.455 37.6604 180.358 37.6604C176.747 37.6604 174.109 40.757 174.109 45.8598C174.109 50.9626 176.639 54.3427 180.358 54.3427C182.455 54.3427 184.985 53.1651 187.276 51.4206V54.6044C185.374 56.0218 182.801 56.9377 180.358 56.9377C174.607 56.9377 171.212 52.5109 171.212 45.838M192.119 35.5452H194.822V56.4798H192.119V35.5452ZM207.297 35.5452H209.048L217.761 56.4798H214.777L212.767 51.3551H203.47L201.416 56.4798H198.562L207.275 35.5452H207.297ZM211.794 48.8692L208.162 39.6885L204.486 48.8692H211.794ZM63.002 16.4206L56.3645 6.25857H59.5427L64.71 14.1745L69.834 6.25857H72.9041L66.2667 16.486L73.2717 27.1931H70.0935L64.5586 18.7321L59.0887 27.1931H56.0186L63.0236 16.4206H63.002ZM76.5364 20.1931V6.25857H79.2389V20.0623C79.2389 23.3115 81.1848 25.1215 84.19 25.1215C87.1952 25.1215 89.1627 23.3115 89.1627 20.0623V6.25857H91.8653V20.1713C91.8653 24.8816 88.8816 27.7165 84.19 27.7165C79.4984 27.7165 76.5147 24.8598 76.5147 20.1713M97.8109 6.25857H100.103L110.718 21.1745V6.25857H113.421V27.1931H111.886L100.513 11.2087V27.1931H97.8109V6.25857ZM125.463 8.80997H117.94L117.096 6.25857H136.533L135.69 8.80997H128.166V27.1931H125.463V8.80997ZM144.252 6.25857H146.003L154.716 27.1931H151.732L149.722 22.0685H140.425L138.371 27.1931H135.517L144.23 6.25857H144.252ZM148.749 19.5826L145.116 10.4019L141.441 19.5826H148.749Z" fill="#007AC0"/>
</g>
<path d="M248.268 18.2742C247.446 17.729 246.819 16.9439 246.365 15.9408C245.933 14.9377 245.716 13.782 245.716 12.4517C245.716 11.1215 245.933 10.0312 246.387 9.04986C246.841 8.06856 247.468 7.30532 248.289 6.78195C249.111 6.23678 250.084 5.9751 251.186 5.9751C251.9 5.9751 252.635 6.10594 253.37 6.34581C254.105 6.58569 254.754 6.9346 255.337 7.37074V9.28974C254.624 8.74457 253.91 8.33024 253.197 8.02494C252.484 7.71965 251.813 7.54519 251.186 7.54519C250.473 7.54519 249.824 7.74145 249.24 8.13398C248.657 8.5265 248.224 9.09348 247.9 9.83491C247.576 10.5763 247.424 11.4486 247.424 12.4517C247.424 13.4548 247.576 14.3925 247.9 15.1558C248.203 15.919 248.657 16.5078 249.219 16.9221C249.781 17.3365 250.43 17.5327 251.186 17.5327C251.792 17.5327 252.462 17.3801 253.197 17.053C253.932 16.7259 254.624 16.3115 255.337 15.7882V17.7072C254.754 18.1433 254.105 18.4922 253.37 18.7321C252.635 18.972 251.9 19.1028 251.186 19.1028C250.062 19.1028 249.089 18.8193 248.268 18.2742Z" fill="#007AC0"/>
<path d="M259.813 18.3395C258.97 17.7943 258.321 17.0311 257.867 16.0062C257.413 15.003 257.175 13.8037 257.175 12.4516C257.175 11.0996 257.413 10.0093 257.867 9.02797C258.321 8.04666 258.97 7.28342 259.813 6.73825C260.656 6.19308 261.65 5.9314 262.775 5.9314C263.899 5.9314 264.894 6.19308 265.737 6.73825C266.58 7.28342 267.229 8.04666 267.683 9.02797C268.137 10.0093 268.374 11.1432 268.374 12.4516C268.374 13.7601 268.137 15.003 267.683 16.0062C267.229 17.0093 266.58 17.7943 265.737 18.3395C264.894 18.8847 263.899 19.1463 262.775 19.1463C261.65 19.1463 260.656 18.8847 259.813 18.3395ZM265.629 16.246C266.321 15.352 266.666 14.0872 266.666 12.4516C266.666 11.4267 266.515 10.5544 266.191 9.81302C265.866 9.07158 265.412 8.50461 264.829 8.11208C264.245 7.71956 263.575 7.5233 262.775 7.5233C261.975 7.5233 261.305 7.71956 260.721 8.11208C260.137 8.50461 259.683 9.07158 259.38 9.81302C259.056 10.5544 258.905 11.4485 258.905 12.4516C258.905 14.0872 259.251 15.352 259.942 16.246C260.634 17.1401 261.586 17.5763 262.775 17.5763C263.964 17.5763 264.915 17.1401 265.607 16.246H265.629Z" fill="#007AC0"/>
<path d="M270.99 6.2804H272.353L278.709 15.2212V6.2804H280.331V18.8193H279.422L272.612 9.24613V18.8193H270.99V6.2804Z" fill="#007AC0"/>
<path d="M284.374 18.8411C283.79 18.6667 283.271 18.4268 282.817 18.1215V16.377C283.357 16.7259 283.92 17.0094 284.525 17.2274C285.13 17.4455 285.649 17.5545 286.103 17.5545C286.925 17.5545 287.595 17.3583 288.092 16.9876C288.59 16.6168 288.849 16.1153 288.849 15.5047C288.849 15.134 288.741 14.8069 288.546 14.5234C288.352 14.2399 288.071 14 287.725 13.782C287.379 13.5639 286.925 13.324 286.319 13.0187C285.498 12.6044 284.871 12.2773 284.46 11.9938C284.049 11.7321 283.703 11.3832 283.422 10.9253C283.141 10.4673 282.99 9.92214 282.99 9.26793C282.99 8.65734 283.141 8.11217 283.444 7.61061C283.747 7.10905 284.201 6.71653 284.763 6.41123C285.325 6.10594 286.017 5.9751 286.773 5.9751C287.357 5.9751 287.941 6.06232 288.525 6.21497C289.13 6.38943 289.671 6.6075 290.168 6.86918V8.59192C288.827 7.87229 287.703 7.50158 286.752 7.50158C286.06 7.50158 285.541 7.65423 285.152 7.98133C284.784 8.30843 284.59 8.72276 284.59 9.20251C284.59 9.52961 284.676 9.8131 284.828 10.0312C284.979 10.271 285.217 10.4673 285.519 10.6418C285.822 10.8162 286.255 11.0779 286.86 11.3832C287.811 11.8848 288.525 12.2773 288.957 12.5608C289.39 12.8443 289.757 13.215 290.038 13.6511C290.319 14.1091 290.471 14.676 290.471 15.3739C290.471 16.5078 290.06 17.4019 289.26 18.0561C288.46 18.7103 287.4 19.0374 286.082 19.0374C285.498 19.0374 284.914 18.9502 284.309 18.7757L284.374 18.8411Z" fill="#007AC0"/>
<path d="M293.087 6.2804H300.719L300.222 7.80687H294.708V11.514H299.638V13.0405H294.708V17.2929H300.286L300.784 18.8193H293.065V6.2804H293.087Z" fill="#007AC0"/>
<path d="M303.14 6.2804H304.762V17.2929H310.534L311.032 18.8193H303.14V6.2804Z" fill="#007AC0"/>
<path d="M312.999 6.2804H314.621V17.2929H320.393L320.89 18.8193H312.999V6.2804Z" fill="#007AC0"/>
<path d="M322.88 6.2804H330.512L330.015 7.80687H324.501V11.514H329.431V13.0405H324.501V17.2929H330.079L330.577 18.8193H322.858V6.2804H322.88Z" fill="#007AC0"/>
<path d="M336.544 6.2804C337.863 6.2804 338.879 6.58569 339.636 7.21809C340.392 7.85049 340.76 8.72276 340.76 9.85672C340.76 10.9907 340.414 11.7975 339.744 12.4299C339.052 13.0623 338.122 13.433 336.955 13.4767L341.733 18.7975H339.636L335.009 13.4985H334.62V18.7975H332.998V6.2804H336.609H336.544ZM338.317 11.514C338.814 11.0997 339.052 10.5545 339.052 9.90033C339.052 9.24613 338.814 8.72276 338.36 8.35205C337.906 7.95952 337.279 7.78507 336.457 7.78507H334.555V12.1464H336.392C337.192 12.1464 337.819 11.9502 338.317 11.5358V11.514Z" fill="#007AC0"/>
<path d="M343.592 4.31774L345.149 1.9408H347.246L344.695 4.95014L343.592 4.31774ZM343.679 6.28036H345.3V18.8193H343.679V6.28036Z" fill="#007AC0"/>
<path d="M352.435 6.2804H353.473L358.705 18.8193H356.91L355.7 15.7446H350.122L348.889 18.8193H347.181L352.413 6.2804H352.435ZM355.116 14.2617L352.932 8.74457L350.727 14.2617H355.116Z" fill="#007AC0"/>
<path d="M372.477 7.00002C373.363 7.47977 374.055 8.1994 374.552 9.11529C375.05 10.0312 375.288 11.1433 375.288 12.4517C375.288 13.7601 375.05 14.9377 374.574 15.8972C374.098 16.8567 373.428 17.5763 372.563 18.0779C371.699 18.5795 370.704 18.8193 369.558 18.8193H365.45V6.2804H369.385C370.574 6.2804 371.612 6.52027 372.52 7.00002H372.477ZM372.412 16.0499C373.169 15.2212 373.536 14.0218 373.536 12.4517C373.536 10.8816 373.147 9.7913 372.369 9.00625C371.59 8.22121 370.574 7.80687 369.299 7.80687H367.028V17.2929H369.407C370.661 17.2929 371.655 16.8785 372.412 16.0499Z" fill="#007AC0"/>
<path d="M377.861 6.2804H385.493L384.995 7.80687H379.482V11.514H384.411V13.0405H379.482V17.2929H385.06L385.557 18.8193H377.839V6.2804H377.861Z" fill="#007AC0"/>
<path d="M392.714 6.2804H400.346L399.848 7.80687H394.335V11.514H399.265V13.0405H394.335V17.2929H399.913L400.411 18.8193H392.692V6.2804H392.714Z" fill="#007AC0"/>
<path d="M409.837 7.00002C410.724 7.47977 411.415 8.1994 411.913 9.11529C412.41 10.0312 412.648 11.1433 412.648 12.4517C412.648 13.7601 412.41 14.9377 411.934 15.8972C411.459 16.8567 410.789 17.5763 409.924 18.0779C409.059 18.5795 408.064 18.8193 406.918 18.8193H402.811V6.2804H406.745C407.935 6.2804 408.972 6.52027 409.88 7.00002H409.837ZM409.772 16.0499C410.529 15.2212 410.897 14.0218 410.897 12.4517C410.897 10.8816 410.507 9.7913 409.729 9.00625C408.951 8.22121 407.935 7.80687 406.659 7.80687H404.389V17.2929H406.767C408.021 17.2929 409.016 16.8785 409.772 16.0499Z" fill="#007AC0"/>
<path d="M416.367 17.9252C415.545 17.1184 415.113 16.0062 415.113 14.6106V6.25854H416.734V14.5233C416.734 15.4828 416.994 16.2243 417.534 16.7694C418.075 17.3146 418.788 17.5763 419.696 17.5763C420.604 17.5763 421.339 17.3146 421.858 16.7694C422.399 16.2461 422.658 15.4828 422.658 14.5233V6.25854H424.28V14.6106C424.28 16.0062 423.869 17.1184 423.026 17.9252C422.204 18.7321 421.08 19.1246 419.674 19.1246C418.269 19.1246 417.145 18.7321 416.323 17.9252H416.367Z" fill="#007AC0"/>
<path d="M429.339 18.2742C428.517 17.729 427.89 16.9439 427.436 15.9408C427.004 14.9377 426.788 13.782 426.788 12.4517C426.788 11.1215 427.004 10.0312 427.458 9.04986C427.912 8.06856 428.539 7.30532 429.36 6.78195C430.182 6.23678 431.155 5.9751 432.258 5.9751C432.971 5.9751 433.706 6.10594 434.441 6.34581C435.176 6.58569 435.825 6.9346 436.409 7.37074V9.28974C435.695 8.74457 434.982 8.33024 434.268 8.02494C433.555 7.71965 432.885 7.54519 432.279 7.54519C431.566 7.54519 430.917 7.74145 430.333 8.13398C429.75 8.5265 429.317 9.09348 428.993 9.83491C428.669 10.5763 428.517 11.4486 428.517 12.4517C428.517 13.4548 428.669 14.3925 428.993 15.1558C429.296 15.919 429.75 16.5078 430.312 16.9221C430.874 17.3365 431.522 17.5327 432.279 17.5327C432.885 17.5327 433.555 17.3801 434.268 17.053C434.982 16.7259 435.695 16.3115 436.409 15.7882V17.7072C435.825 18.1433 435.176 18.4922 434.441 18.7321C433.706 18.972 432.993 19.1028 432.258 19.1028C431.133 19.1028 430.16 18.8193 429.339 18.2742Z" fill="#007AC0"/>
<path d="M442.981 6.2804H444.019L449.251 18.8193H447.457L446.246 15.7446H440.668L439.436 18.8193H437.728L442.96 6.2804H442.981ZM445.662 14.2617L443.479 8.74457L441.273 14.2617H445.662Z" fill="#007AC0"/>
<path d="M452.667 18.2742C451.846 17.729 451.219 16.9439 450.765 15.9408C450.332 14.9377 450.116 13.782 450.116 12.4517C450.116 11.1215 450.332 10.0312 450.786 9.04986C451.24 8.06856 451.867 7.30532 452.689 6.78195C453.51 6.23678 454.483 5.9751 455.586 5.9751C456.299 5.9751 457.034 6.10594 457.77 6.34581C458.505 6.58569 459.153 6.9346 459.737 7.37074V9.28974C459.024 8.74457 458.31 8.33024 457.597 8.02494C456.883 7.71965 456.213 7.54519 455.608 7.54519C454.894 7.54519 454.245 7.74145 453.662 8.13398C453.078 8.5265 452.646 9.09348 452.321 9.83491C451.997 10.5763 451.846 11.4486 451.846 12.4517C451.846 13.4548 451.997 14.3925 452.321 15.1558C452.624 15.919 453.078 16.5078 453.64 16.9221C454.202 17.3365 454.851 17.5327 455.608 17.5327C456.213 17.5327 456.883 17.3801 457.597 17.053C458.31 16.7259 459.024 16.3115 459.737 15.7882V17.7072C459.153 18.1433 458.505 18.4922 457.77 18.7321C457.034 18.972 456.321 19.1028 455.586 19.1028C454.462 19.1028 453.489 18.8193 452.667 18.2742Z" fill="#007AC0"/>
<path d="M462.288 6.2804H463.91V18.8193H462.288V6.2804Z" fill="#007AC0"/>
<path d="M469.142 18.3396C468.299 17.7944 467.65 17.0311 467.196 16.0062C466.742 15.0031 466.504 13.8037 466.504 12.4517C466.504 11.0997 466.742 10.0093 467.196 9.02802C467.65 8.04672 468.299 7.28347 469.142 6.7383C469.985 6.19313 470.98 5.93145 472.104 5.93145C473.228 5.93145 474.223 6.19313 475.066 6.7383C475.909 7.28347 476.558 8.04672 477.033 9.02802C477.487 10.0093 477.725 11.1433 477.725 12.4517C477.725 13.7601 477.487 15.0031 477.033 16.0062C476.579 17.0093 475.931 17.7944 475.066 18.3396C474.223 18.8847 473.228 19.1464 472.104 19.1464C470.98 19.1464 469.985 18.8847 469.142 18.3396ZM474.958 16.2461C475.65 15.352 475.996 14.0872 475.996 12.4517C475.996 11.4268 475.844 10.5545 475.52 9.81307C475.196 9.07164 474.742 8.50466 474.179 8.11214C473.617 7.71961 472.925 7.52335 472.125 7.52335C471.325 7.52335 470.655 7.71961 470.072 8.11214C469.488 8.50466 469.034 9.07164 468.709 9.81307C468.385 10.5545 468.234 11.4486 468.234 12.4517C468.234 14.0872 468.58 15.352 469.272 16.2461C469.963 17.1402 470.915 17.5763 472.104 17.5763C473.293 17.5763 474.244 17.1402 474.936 16.2461H474.958ZM471.217 4.31774L472.774 1.9408H474.871L472.32 4.95014L471.217 4.31774Z" fill="#007AC0"/>
<path d="M480.32 6.2804H481.682L488.038 15.2212V6.2804H489.66V18.8193H488.752L481.941 9.24613V18.8193H480.32V6.2804Z" fill="#007AC0"/>
<path d="M491.757 21.1527L493.378 16.6823H495L493.076 21.9159L491.757 21.1527Z" fill="#007AC0"/>
<path d="M246.43 43.9408H253.954L253.456 45.4673H248.051V49.4579H252.873V50.9844H248.051V56.4797H246.43V43.9408Z" fill="#007AC0"/>
<path d="M258.018 56C257.175 55.4548 256.526 54.6916 256.072 53.6667C255.618 52.6636 255.381 51.4642 255.381 50.1122C255.381 48.7601 255.618 47.6698 256.072 46.6885C256.526 45.7072 257.175 44.9439 258.018 44.3988C258.861 43.8536 259.856 43.5919 260.98 43.5919C262.105 43.5919 263.099 43.8536 263.942 44.3988C264.786 44.9439 265.434 45.7072 265.888 46.6885C266.342 47.6698 266.58 48.8038 266.58 50.1122C266.58 51.4206 266.342 52.6636 265.888 53.6667C265.434 54.6698 264.786 55.4548 263.942 56C263.099 56.5452 262.105 56.8069 260.98 56.8069C259.856 56.8069 258.861 56.5452 258.018 56ZM263.813 53.9066C264.504 53.0125 264.85 51.7477 264.85 50.1122C264.85 49.0872 264.699 48.215 264.375 47.4735C264.05 46.7321 263.596 46.1651 263.013 45.7726C262.429 45.3801 261.759 45.1838 260.959 45.1838C260.159 45.1838 259.488 45.3801 258.905 45.7726C258.321 46.1651 257.867 46.7321 257.564 47.4735C257.24 48.215 257.089 49.1091 257.089 50.1122C257.089 51.7477 257.435 53.0125 258.126 53.9066C258.818 54.8006 259.77 55.2368 260.959 55.2368C262.148 55.2368 263.099 54.8006 263.791 53.9066H263.813Z" fill="#007AC0"/>
<path d="M272.785 43.9408C274.104 43.9408 275.12 44.246 275.877 44.8784C276.612 45.5108 277.001 46.3831 277.001 47.5171C277.001 48.651 276.655 49.4579 275.963 50.0903C275.271 50.7227 274.342 51.0934 273.174 51.137L277.952 56.4579H275.834L271.207 51.1588H270.818V56.4579H269.196V43.9189H272.807L272.785 43.9408ZM274.558 49.1744C275.055 48.7601 275.293 48.2149 275.293 47.5607C275.293 46.9065 275.055 46.3831 274.601 46.0124C274.147 45.6417 273.52 45.4454 272.699 45.4454H270.796V49.8068H272.634C273.434 49.8068 274.061 49.6105 274.558 49.1962V49.1744Z" fill="#007AC0"/>
<path d="M279.92 43.9408H281.39L285.93 53.2741L290.47 43.9408H291.919V56.4797H290.362V47.3863L286.19 56.0436H285.649L281.476 47.4081V56.4797H279.92V43.9408Z" fill="#007AC0"/>
<path d="M299.054 43.9408H300.092L305.324 56.4797H303.529L302.319 53.405H296.74L295.508 56.4797H293.8L299.032 43.9408H299.054ZM301.735 51.9221L299.551 46.405L297.346 51.9221H301.713H301.735Z" fill="#007AC0"/>
<path d="M309.064 55.9346C308.243 55.3894 307.616 54.6043 307.162 53.6012C306.729 52.5981 306.513 51.4424 306.513 50.1121C306.513 48.7819 306.729 47.6916 307.183 46.7103C307.637 45.729 308.264 44.9657 309.086 44.4423C309.907 43.919 310.88 43.6355 311.983 43.6355C312.696 43.6355 313.431 43.7663 314.167 44.0062C314.902 44.2461 315.55 44.595 316.134 45.0311V46.9501C315.421 46.4268 314.707 45.9906 313.994 45.6853C313.28 45.38 312.61 45.2056 312.005 45.2056C311.291 45.2056 310.642 45.4019 310.059 45.7944C309.475 46.1869 309.043 46.7539 308.718 47.4953C308.394 48.2367 308.243 49.109 308.243 50.1121C308.243 51.1589 308.394 52.0529 308.718 52.8162C309.021 53.5794 309.475 54.1682 310.037 54.5825C310.599 54.9969 311.248 55.1931 312.005 55.1931C312.61 55.1931 313.28 55.0405 313.994 54.7134C314.707 54.3863 315.421 53.9719 316.134 53.4486V55.3676C315.55 55.8037 314.902 56.1526 314.167 56.3925C313.431 56.6324 312.718 56.7632 311.983 56.7632C310.859 56.7632 309.886 56.4797 309.064 55.9346Z" fill="#007AC0"/>
<path d="M318.707 43.9408H320.328V56.4797H318.707V43.9408Z" fill="#007AC0"/>
<path d="M325.561 56C324.717 55.4548 324.069 54.6916 323.615 53.6667C323.161 52.6417 322.923 51.4642 322.923 50.1121C322.923 48.7601 323.161 47.6698 323.615 46.6885C324.069 45.7072 324.717 44.9439 325.561 44.3987C326.404 43.8536 327.398 43.5919 328.523 43.5919C329.647 43.5919 330.641 43.8536 331.485 44.3987C332.328 44.9439 332.976 45.7072 333.452 46.6885C333.906 47.6698 334.144 48.8037 334.144 50.1121C334.144 51.4206 333.906 52.6635 333.452 53.6667C332.998 54.6698 332.349 55.4548 331.485 56C330.641 56.5452 329.647 56.8068 328.523 56.8068C327.398 56.8068 326.404 56.5452 325.561 56ZM331.355 53.9065C332.047 53.0125 332.393 51.7477 332.393 50.1121C332.393 49.0872 332.241 48.2149 331.917 47.4735C331.593 46.7321 331.139 46.1651 330.576 45.7726C330.014 45.3801 329.322 45.1838 328.523 45.1838C327.723 45.1838 327.052 45.3801 326.469 45.7726C325.885 46.1651 325.431 46.7321 325.107 47.4735C324.782 48.2149 324.631 49.109 324.631 50.1121C324.631 51.7477 324.977 53.0125 325.669 53.9065C326.361 54.8006 327.312 55.2368 328.501 55.2368C329.69 55.2368 330.641 54.8006 331.333 53.9065H331.355ZM327.614 42L329.171 39.623H331.268L328.717 42.6324L327.614 42Z" fill="#007AC0"/>
<path d="M336.717 43.9408H338.079L344.435 52.8816V43.9408H346.057V56.4797H345.149L338.338 46.9065V56.4797H336.717V43.9408Z" fill="#007AC0"/>
<path d="M357.624 43.9408C358.986 43.9408 360.045 44.2897 360.823 44.9657C361.602 45.6417 361.991 46.6012 361.991 47.8006C361.991 48.9999 361.602 50.0249 360.823 50.7227C360.045 51.4205 358.986 51.7694 357.667 51.7694H355.808V56.4579H354.186V43.9189H357.624V43.9408ZM359.57 49.6323C360.045 49.1744 360.283 48.5856 360.283 47.8224C360.283 47.0591 360.045 46.4922 359.548 46.0778C359.051 45.6635 358.38 45.4454 357.537 45.4454H355.786V50.3084H357.58C358.424 50.3084 359.094 50.0903 359.57 49.6323Z" fill="#007AC0"/>
<path d="M367.937 43.9408C369.255 43.9408 370.272 44.246 371.028 44.8784C371.785 45.5108 372.153 46.3831 372.153 47.5171C372.153 48.651 371.807 49.4579 371.136 50.0903C370.445 50.7227 369.515 51.0934 368.347 51.137L373.126 56.4579H371.028L366.402 51.1588H366.012V56.4579H364.391V43.9189H368.002L367.937 43.9408ZM369.71 49.1744C370.207 48.7601 370.445 48.2149 370.445 47.5607C370.445 46.9065 370.207 46.3831 369.753 46.0124C369.299 45.6417 368.672 45.4454 367.85 45.4454H365.948V49.8068H367.785C368.585 49.8068 369.212 49.6105 369.71 49.1962V49.1744Z" fill="#007AC0"/>
<path d="M376.996 56C376.152 55.4548 375.504 54.6916 375.05 53.6667C374.596 52.6418 374.358 51.4642 374.358 50.1122C374.358 48.7601 374.596 47.6698 375.05 46.6885C375.504 45.7072 376.152 44.9439 376.996 44.3988C377.839 43.8536 378.833 43.5919 379.958 43.5919C381.082 43.5919 382.076 43.8536 382.92 44.3988C383.763 44.9439 384.411 45.7072 384.887 46.6885C385.341 47.6698 385.579 48.8038 385.579 50.1122C385.579 51.4206 385.341 52.6636 384.887 53.6667C384.433 54.6698 383.784 55.4548 382.92 56C382.076 56.5452 381.082 56.8069 379.958 56.8069C378.833 56.8069 377.839 56.5452 376.996 56ZM382.79 53.9066C383.482 53.0125 383.828 51.7477 383.828 50.1122C383.828 49.0872 383.676 48.215 383.352 47.4735C383.028 46.7321 382.574 46.1651 382.012 45.7726C381.449 45.3801 380.758 45.1838 379.958 45.1838C379.158 45.1838 378.487 45.3801 377.904 45.7726C377.32 46.1651 376.866 46.7321 376.542 47.4735C376.217 48.215 376.066 49.1091 376.066 50.1122C376.066 51.7477 376.412 53.0125 377.104 53.9066C377.796 54.8006 378.747 55.2368 379.936 55.2368C381.125 55.2368 382.076 54.8006 382.768 53.9066H382.79Z" fill="#007AC0"/>
<path d="M388.152 43.9408H395.676L395.178 45.4673H389.773V49.4579H394.594V50.9844H389.773V56.4797H388.152V43.9408Z" fill="#007AC0"/>
<path d="M397.816 43.9408H405.448L404.951 45.4673H399.438V49.1744H404.367V50.7009H399.438V54.9533H405.016L405.513 56.4797H397.794V43.9408H397.816Z" fill="#007AC0"/>
<path d="M408.583 56.5015C407.999 56.3271 407.48 56.0872 407.026 55.7819V54.0374C407.567 54.3863 408.129 54.6698 408.734 54.8878C409.34 55.1059 409.859 55.2149 410.313 55.2149C411.134 55.2149 411.804 55.0187 412.302 54.648C412.799 54.2772 413.058 53.7757 413.058 53.1651C413.058 52.7944 412.95 52.4673 412.756 52.1838C412.561 51.9003 412.28 51.6604 411.934 51.4424C411.588 51.2243 411.134 50.9626 410.529 50.6791C409.707 50.2648 409.08 49.9377 408.67 49.6542C408.259 49.3707 407.913 49.0218 407.632 48.5857C407.351 48.1495 407.199 47.5825 407.199 46.9283C407.199 46.3177 407.351 45.7726 407.653 45.271C407.956 44.7695 408.41 44.3769 408.972 44.0716C409.556 43.7881 410.226 43.6355 410.983 43.6355C411.567 43.6355 412.15 43.7227 412.734 43.8754C413.318 44.0498 413.88 44.2679 414.377 44.5296V46.2523C413.037 45.5327 411.913 45.162 410.961 45.162C410.269 45.162 409.751 45.3364 409.361 45.6635C408.994 45.9906 408.799 46.405 408.799 46.8847C408.799 47.2118 408.886 47.4953 409.037 47.7134C409.21 47.9533 409.426 48.1495 409.729 48.324C410.032 48.4984 410.464 48.7601 411.069 49.0654C412.021 49.567 412.734 49.9595 413.167 50.243C413.599 50.5265 413.967 50.8972 414.248 51.3333C414.529 51.7913 414.68 52.3582 414.68 53.0561C414.68 54.19 414.269 55.0841 413.469 55.7383C412.669 56.3925 411.61 56.7196 410.291 56.7196C409.707 56.7196 409.124 56.6324 408.518 56.4579L408.583 56.5015Z" fill="#007AC0"/>
<path d="M417.296 43.9408H418.917V56.4797H417.296V43.9408Z" fill="#007AC0"/>
<path d="M424.15 56C423.306 55.4548 422.658 54.6916 422.204 53.6667C421.75 52.6418 421.512 51.4642 421.512 50.1122C421.512 48.7601 421.75 47.6698 422.204 46.6885C422.658 45.7072 423.306 44.9439 424.15 44.3988C424.993 43.8536 425.987 43.5919 427.112 43.5919C428.236 43.5919 429.23 43.8536 430.074 44.3988C430.917 44.9439 431.565 45.7072 432.041 46.6885C432.495 47.6698 432.733 48.8038 432.733 50.1122C432.733 51.4206 432.495 52.6636 432.041 53.6667C431.587 54.6698 430.938 55.4548 430.074 56C429.23 56.5452 428.236 56.8069 427.112 56.8069C425.987 56.8069 424.993 56.5452 424.15 56ZM429.966 53.9066C430.657 53.0125 431.003 51.7477 431.003 50.1122C431.003 49.0872 430.852 48.215 430.528 47.4735C430.203 46.7321 429.749 46.1651 429.187 45.7726C428.625 45.3801 427.933 45.1838 427.133 45.1838C426.333 45.1838 425.663 45.3801 425.079 45.7726C424.496 46.1651 424.042 46.7321 423.717 47.4735C423.393 48.215 423.242 49.1091 423.242 50.1122C423.242 51.7477 423.588 53.0125 424.279 53.9066C424.971 54.8006 425.923 55.2368 427.112 55.2368C428.301 55.2368 429.252 54.8006 429.944 53.9066H429.966Z" fill="#007AC0"/>
<path d="M435.327 43.9408H436.689L443.046 52.8816V43.9408H444.667V56.4797H443.759L436.949 46.9065V56.4797H435.327V43.9408Z" fill="#007AC0"/>
<path d="M451.802 43.9408H452.84L458.072 56.4797H456.278L455.067 53.405H449.489L448.257 56.4797H446.549L451.781 43.9408H451.802ZM454.483 51.9221L452.3 46.405L450.094 51.9221H454.483Z" fill="#007AC0"/>
<path d="M459.996 43.9408H461.618V54.9533H467.391L467.888 56.4797H459.996V43.9408Z" fill="#007AC0"/>
<path d="M248.268 37.1153C247.446 36.5702 246.819 35.7851 246.365 34.782C245.933 33.7789 245.716 32.6231 245.716 31.2929C245.716 29.9627 245.933 28.8724 246.387 27.8911C246.841 26.9097 247.468 26.1465 248.289 25.6231C249.111 25.0998 250.084 24.8163 251.186 24.8163C251.9 24.8163 252.635 24.9471 253.37 25.187C254.105 25.4269 254.754 25.7758 255.337 26.2119V28.1309C254.624 27.6076 253.91 27.1714 253.197 26.8661C252.484 26.5608 251.813 26.3864 251.186 26.3864C250.473 26.3864 249.824 26.5826 249.24 26.9752C248.657 27.3677 248.224 27.9347 247.9 28.6761C247.576 29.4175 247.424 30.2898 247.424 31.2929C247.424 32.3396 247.576 33.2337 247.9 33.997C248.224 34.7602 248.657 35.349 249.219 35.7633C249.781 36.1777 250.43 36.3739 251.186 36.3739C251.792 36.3739 252.462 36.2213 253.197 35.8942C253.932 35.5671 254.624 35.1527 255.337 34.6294V36.5484C254.754 36.9845 254.105 37.3334 253.37 37.5733C252.635 37.8132 251.9 37.944 251.186 37.944C250.062 37.944 249.089 37.6605 248.268 37.1153Z" fill="#007AC0"/>
<path d="M257.889 25.0997H259.51V37.6387H257.889V25.0997Z" fill="#007AC0"/>
<path d="M262.84 25.0997H270.472L269.974 26.6262H264.461V30.3334H269.391V31.8599H264.461V36.1122H270.039L270.537 37.6387H262.818V25.0997H262.84Z" fill="#007AC0"/>
<path d="M272.893 25.0997H274.255L280.612 34.0405V25.0997H282.233V37.6387H281.325L274.515 28.0655V37.6387H272.893V25.0997Z" fill="#007AC0"/>
<path d="M287.379 37.1153C286.557 36.5702 285.93 35.7851 285.476 34.782C285.044 33.7789 284.828 32.6231 284.828 31.2929C284.828 29.9627 285.044 28.8724 285.498 27.8911C285.952 26.9097 286.579 26.1465 287.4 25.6231C288.222 25.0998 289.195 24.8163 290.298 24.8163C291.011 24.8163 291.746 24.9471 292.481 25.187C293.216 25.4269 293.865 25.7758 294.449 26.2119V28.1309C293.735 27.6076 293.022 27.1714 292.308 26.8661C291.595 26.5608 290.925 26.3864 290.298 26.3864C289.584 26.3864 288.935 26.5826 288.352 26.9752C287.768 27.3677 287.336 27.9347 287.011 28.6761C286.687 29.4175 286.536 30.2898 286.536 31.2929C286.536 32.3396 286.687 33.2337 287.011 33.997C287.336 34.7602 287.768 35.349 288.33 35.7633C288.892 36.1777 289.541 36.3739 290.298 36.3739C290.903 36.3739 291.573 36.2213 292.308 35.8942C293.043 35.5671 293.735 35.1527 294.449 34.6294V36.5484C293.865 36.9845 293.216 37.3334 292.481 37.5733C291.746 37.8132 291.011 37.944 290.298 37.944C289.173 37.944 288.2 37.6605 287.379 37.1153Z" fill="#007AC0"/>
<path d="M297.022 25.0997H298.643V37.6387H297.022V25.0997Z" fill="#007AC0"/>
<path d="M305.778 25.0997H306.816L312.048 37.6387H310.253L309.043 34.5639H303.465L302.232 37.6387H300.524L305.756 25.0997H305.778ZM308.459 33.081L306.275 27.5639L304.07 33.081H308.459Z" fill="#007AC0"/>
<path d="M312.74 39.972L314.361 35.5016H315.983L314.059 40.7352L312.74 39.972Z" fill="#007AC0"/>
<path d="M324.458 36.7664C323.636 35.9595 323.204 34.8474 323.204 33.4518V25.0997H324.825V33.3645C324.825 34.324 325.085 35.0655 325.625 35.6106C326.166 36.1558 326.879 36.4175 327.787 36.4175C328.695 36.4175 329.431 36.1558 329.949 35.6106C330.468 35.0655 330.749 34.324 330.749 33.3645V25.0997H332.371V33.4518C332.371 34.8474 331.96 35.9595 331.117 36.7664C330.295 37.5733 329.171 37.9658 327.766 37.9658C326.36 37.9658 325.236 37.5733 324.415 36.7664H324.458Z" fill="#007AC0"/>
<path d="M335.614 25.0997H336.976L343.333 34.0405V25.0997H344.954V37.6387H344.046L337.236 28.0655V37.6387H335.614V25.0997Z" fill="#007AC0"/>
<path d="M348.284 25.0997H349.905V37.6387H348.284V25.0997Z" fill="#007AC0"/>
<path d="M351.829 25.0997H353.602L357.213 34.782L360.845 25.0997H362.531L357.602 37.8131H356.78L351.851 25.0997H351.829Z" fill="#007AC0"/>
<path d="M364.434 25.0997H372.066L371.569 26.6262H366.056V30.3334H370.985V31.8599H366.056V36.1122H371.634L372.131 37.6387H364.413V25.0997H364.434Z" fill="#007AC0"/>
<path d="M378.098 25.0997C379.417 25.0997 380.433 25.405 381.19 26.0374C381.947 26.6698 382.314 27.5421 382.314 28.676C382.314 29.81 381.968 30.6168 381.298 31.2492C380.606 31.8816 379.677 32.2523 378.509 32.296L383.287 37.6168H381.19L376.563 32.3178H376.174V37.6168H374.552V25.0779H378.163L378.098 25.0997ZM379.871 30.3333C380.368 29.919 380.606 29.3738 380.606 28.7196C380.606 28.0654 380.368 27.5421 379.914 27.1713C379.46 26.7788 378.833 26.6044 378.012 26.6044H376.109V30.9657H377.947C378.747 30.9657 379.374 30.7695 379.871 30.3551V30.3333Z" fill="#007AC0"/>
<path d="M385.968 37.6605C385.384 37.486 384.865 37.2461 384.411 36.9409V35.1963C384.952 35.5452 385.514 35.8287 386.119 36.0468C386.725 36.2648 387.244 36.3739 387.698 36.3739C388.519 36.3739 389.189 36.1776 389.687 35.8069C390.184 35.4362 390.443 34.9346 390.443 34.324C390.443 33.9533 390.335 33.6262 390.141 33.3427C389.946 33.0592 389.665 32.8194 389.319 32.6013C388.973 32.3832 388.519 32.1215 387.914 31.838C387.092 31.4237 386.465 31.0966 386.055 30.8131C385.644 30.5514 385.298 30.2025 385.017 29.7446C384.736 29.3085 384.584 28.7415 384.584 28.0873C384.584 27.4767 384.736 26.9315 385.038 26.4299C385.341 25.9284 385.795 25.5359 386.357 25.2306C386.919 24.9253 387.611 24.7944 388.368 24.7944C388.952 24.7944 389.535 24.8817 390.119 25.0343C390.703 25.2088 391.265 25.4268 391.762 25.6885V27.4113C390.422 26.6916 389.298 26.3209 388.346 26.3209C387.654 26.3209 387.136 26.4736 386.746 26.8225C386.379 27.1496 386.184 27.5639 386.184 28.0437C386.184 28.3708 386.271 28.6542 386.422 28.8723C386.595 29.1122 386.811 29.3085 387.114 29.4829C387.417 29.6574 387.849 29.919 388.454 30.2243C389.406 30.7259 390.119 31.1184 390.552 31.4019C390.984 31.6854 391.352 32.0561 391.633 32.4923C391.914 32.9502 392.065 33.5172 392.065 34.215C392.065 35.3489 391.654 36.243 390.854 36.8972C390.054 37.5514 388.995 37.8785 387.676 37.8785C387.092 37.8785 386.509 37.7913 385.903 37.6169L385.968 37.6605Z" fill="#007AC0"/>
<path d="M394.659 25.0997H396.281V37.6387H394.659V25.0997Z" fill="#007AC0"/>
<path d="M406.659 25.8412C407.545 26.321 408.237 27.0406 408.735 27.9565C409.232 28.8724 409.47 29.9845 409.47 31.2929C409.47 32.6013 409.232 33.7789 408.756 34.7384C408.281 35.6979 407.61 36.4175 406.745 36.9191C405.881 37.4206 404.886 37.6605 403.74 37.6605H399.632V25.1216H403.567C404.756 25.1216 405.794 25.3615 406.702 25.8412H406.659ZM406.594 34.8911C407.351 34.0624 407.718 32.863 407.718 31.2929C407.718 29.7228 407.329 28.6325 406.551 27.8474C405.773 27.0406 404.756 26.6481 403.481 26.6481H401.211V36.134H403.589C404.843 36.134 405.837 35.7197 406.594 34.8911Z" fill="#007AC0"/>
<path d="M415.869 25.0997H416.907L422.139 37.6387H420.345L419.134 34.5639H413.556L412.324 37.6387H410.615L415.848 25.0997H415.869ZM418.55 33.081L416.367 27.5639L414.161 33.081H418.55Z" fill="#007AC0"/>
<path d="M431.112 25.8412C431.998 26.321 432.69 27.0406 433.187 27.9565C433.684 28.8724 433.922 29.9845 433.922 31.2929C433.922 32.6013 433.684 33.7789 433.209 34.7384C432.733 35.6979 432.063 36.4175 431.198 36.9191C430.333 37.4206 429.339 37.6605 428.193 37.6605H424.085V25.1216H428.02C429.209 25.1216 430.247 25.3615 431.155 25.8412H431.112ZM431.047 34.8911C431.803 34.0624 432.171 32.863 432.171 31.2929C432.171 29.7228 431.782 28.6325 431.004 27.8474C430.225 27.0406 429.209 26.6481 427.933 26.6481H425.663V36.134H428.042C429.295 36.134 430.29 35.7197 431.047 34.8911Z" fill="#007AC0"/>
<path d="M436.495 25.0997H444.127L443.63 26.6262H438.117V30.3334H443.046V31.8599H438.117V36.1122H443.695L444.192 37.6387H436.473V25.0997H436.495Z" fill="#007AC0"/>
<path d="M451.348 25.0997H458.98L458.483 26.6262H452.97V30.3334H457.899V31.8599H452.97V36.1122H458.548L459.045 37.6387H451.327V25.0997H451.348Z" fill="#007AC0"/>
<path d="M232.355 0.0435791H230.258V63.0218H232.355V0.0435791Z" fill="#007AC0"/>
</g>
<defs>
<clipPath id="clip0_7206_2728">
<rect width="495" height="63" fill="white"/>
</clipPath>
</defs>
</svg>
