<svg width="295" height="62" viewBox="0 0 295 62" fill="none" xmlns="http://www.w3.org/2000/svg">
<path d="M96.5952 42.5389V24.203H107.173V26.1587H98.9207V32.3625H105.916V34.3182H98.9207V42.5351H96.599L96.5952 42.5389Z" fill="#12123A"/>
<path d="M114.755 42.8756C113.656 42.8756 112.625 42.5963 111.663 42.0375C110.702 41.4787 109.928 40.6674 109.342 39.6072C108.755 38.5433 108.46 37.2688 108.46 35.7763C108.46 34.2837 108.755 32.9518 109.342 31.8917C109.928 30.8277 110.702 30.0202 111.663 29.4614C112.625 28.9027 113.656 28.6233 114.755 28.6233C115.855 28.6233 116.908 28.9027 117.862 29.4614C118.812 30.0202 119.582 30.8316 120.172 31.8917C120.759 32.9556 121.053 34.2492 121.053 35.7763C121.053 37.3033 120.759 38.5433 120.172 39.6072C119.586 40.6712 118.816 41.4787 117.862 42.0375C116.912 42.5963 115.874 42.8756 114.755 42.8756ZM114.755 40.9735C115.931 40.9735 116.878 40.4951 117.594 39.5345C118.31 38.5739 118.671 37.3224 118.671 35.7763C118.671 34.2301 118.31 32.9442 117.594 31.9759C116.878 31.0076 115.927 30.5216 114.755 30.5216C113.583 30.5216 112.656 31.0076 111.928 31.9759C111.2 32.9442 110.836 34.2109 110.836 35.7763C110.836 37.3416 111.2 38.5777 111.928 39.5345C112.656 40.4951 113.598 40.9735 114.755 40.9735Z" fill="#12123A"/>
<path d="M124.049 42.5389V28.9525H125.954L126.149 30.9082H126.233C126.885 30.2576 127.578 29.7103 128.302 29.274C129.03 28.8377 129.861 28.6157 130.792 28.6157C132.229 28.6157 133.279 29.0673 133.942 29.9705C134.604 30.8737 134.934 32.1941 134.934 33.924V42.5313H132.639V34.2302C132.639 32.9634 132.432 32.041 132.022 31.4631C131.612 30.8852 130.957 30.5982 130.064 30.5982C129.375 30.5982 128.754 30.7742 128.202 31.1302C127.651 31.4861 127.03 32.0066 126.341 32.6955V42.5351H124.046L124.049 42.5389Z" fill="#12123A"/>
<path d="M143.535 42.8757C141.838 42.8757 140.474 42.2557 139.451 41.0157C138.424 39.7757 137.911 38.0305 137.911 35.7763C137.911 34.3028 138.186 33.0322 138.734 31.9606C139.286 30.889 140.01 30.0662 140.918 29.4883C141.822 28.9104 142.788 28.6233 143.814 28.6233C144.6 28.6233 145.278 28.7649 145.856 29.0443C146.435 29.3237 147.021 29.7064 147.619 30.1886L147.508 27.8694V22.6415H149.829V42.5427H147.925L147.73 40.9506H147.646C147.125 41.4711 146.508 41.9227 145.799 42.3054C145.09 42.6881 144.336 42.8795 143.531 42.8795L143.535 42.8757ZM144.037 40.9468C145.232 40.9468 146.389 40.323 147.508 39.0753V31.9759C146.929 31.4554 146.374 31.088 145.841 30.8737C145.309 30.6594 144.765 30.5522 144.205 30.5522C143.477 30.5522 142.818 30.7704 142.232 31.2105C141.646 31.6468 141.175 32.2553 140.819 33.0284C140.462 33.8015 140.286 34.7085 140.286 35.7533C140.286 37.376 140.612 38.6467 141.267 39.569C141.918 40.4914 142.841 40.9544 144.037 40.9544V40.9468Z" fill="#12123A"/>
<path d="M159.174 42.8756C158.074 42.8756 157.043 42.5963 156.082 42.0375C155.12 41.4787 154.346 40.6674 153.76 39.6072C153.174 38.5433 152.879 37.2688 152.879 35.7763C152.879 34.2837 153.174 32.9518 153.76 31.8917C154.346 30.8277 155.12 30.0202 156.082 29.4614C157.043 28.9027 158.074 28.6233 159.174 28.6233C160.273 28.6233 161.327 28.9027 162.281 29.4614C163.231 30.0202 164.001 30.8316 164.591 31.8917C165.177 32.9556 165.472 34.2492 165.472 35.7763C165.472 37.3033 165.177 38.5433 164.591 39.6072C164.005 40.6712 163.235 41.4787 162.281 42.0375C161.33 42.5963 160.292 42.8756 159.174 42.8756ZM159.174 40.9735C160.35 40.9735 161.296 40.4951 162.012 39.5345C162.729 38.5739 163.089 37.3224 163.089 35.7763C163.089 34.2301 162.729 32.9442 162.012 31.9759C161.296 31.0076 160.346 30.5216 159.174 30.5216C158.001 30.5216 157.074 31.0076 156.346 31.9759C155.618 32.9442 155.254 34.2109 155.254 35.7763C155.254 37.3416 155.618 38.5777 156.346 39.5345C157.074 40.4951 158.017 40.9735 159.174 40.9735Z" fill="#12123A"/>
<path d="M171.947 42.8757C170.977 42.8757 170.054 42.6958 169.177 42.3322C168.299 41.9686 167.533 41.5247 166.882 41.0042L168.027 39.4657C168.625 39.9326 169.242 40.3191 169.874 40.6253C170.506 40.9315 171.226 41.0846 172.027 41.0846C172.924 41.0846 173.594 40.8741 174.042 40.4569C174.491 40.0359 174.713 39.5384 174.713 38.9605C174.713 38.4936 174.559 38.1032 174.253 37.7856C173.947 37.4679 173.552 37.2038 173.077 36.9895C172.602 36.7752 172.111 36.5762 171.609 36.3886C170.974 36.1475 170.349 35.872 169.736 35.5658C169.119 35.2596 168.617 34.8578 168.227 34.3641C167.836 33.8704 167.64 33.2427 167.64 32.4773C167.64 31.3789 168.054 30.4604 168.886 29.7256C169.717 28.9907 170.866 28.6195 172.341 28.6195C173.18 28.6195 173.966 28.7688 174.69 29.0673C175.418 29.3658 176.042 29.7294 176.563 30.158L175.444 31.6123C174.977 31.2602 174.494 30.9694 173.989 30.7474C173.487 30.5254 172.935 30.4106 172.337 30.4106C171.479 30.4106 170.851 30.6058 170.449 30.9962C170.046 31.3865 169.847 31.8458 169.847 32.3663C169.847 32.7949 169.989 33.1432 170.269 33.4149C170.548 33.6867 170.912 33.9163 171.36 34.1153C171.809 34.3105 172.284 34.5095 172.79 34.7162C173.441 34.9573 174.084 35.2328 174.72 35.539C175.353 35.8452 175.881 36.2585 176.303 36.7675C176.724 37.2804 176.931 37.9654 176.931 38.8227C176.931 39.5499 176.739 40.2196 176.356 40.8358C175.973 41.452 175.414 41.9457 174.678 42.3169C173.943 42.6881 173.031 42.8757 171.95 42.8757H171.947Z" fill="#12123A"/>
<path d="M186.218 42.5389V24.203H196.796V26.1587H188.543V31.9186H195.512V33.9049H188.543V40.5565H197.079V42.5428H186.222L186.218 42.5389Z" fill="#12123A"/>
<path d="M203.738 42.8756C202.301 42.8756 201.247 42.424 200.577 41.5208C199.906 40.6176 199.569 39.2972 199.569 37.5674V28.9601H201.891V37.2612C201.891 38.528 202.09 39.4503 202.493 40.0282C202.895 40.6061 203.542 40.8932 204.439 40.8932C205.148 40.8932 205.776 40.7133 206.328 40.3497C206.879 39.9861 207.469 39.4044 208.105 38.6045V28.9601H210.4V42.5465H208.496L208.301 40.4224H208.216C207.58 41.1687 206.91 41.7658 206.201 42.2097C205.492 42.6575 204.672 42.8795 203.738 42.8795V42.8756Z" fill="#12123A"/>
<path d="M214.228 42.5389V28.9525H216.132L216.327 31.4133H216.411C216.879 30.5561 217.446 29.8748 218.12 29.3735C218.79 28.8721 219.511 28.6195 220.273 28.6195C220.813 28.6195 221.3 28.7114 221.729 28.8989L221.281 30.912C221.059 30.8393 220.852 30.7819 220.664 30.7436C220.476 30.7053 220.242 30.6862 219.963 30.6862C219.384 30.6862 218.783 30.9196 218.158 31.3865C217.534 31.8535 216.986 32.6648 216.522 33.8168V42.5389H214.228Z" fill="#12123A"/>
<path d="M228.69 42.8756C227.591 42.8756 226.56 42.5963 225.598 42.0375C224.637 41.4787 223.863 40.6674 223.277 39.6072C222.691 38.5433 222.396 37.2688 222.396 35.7763C222.396 34.2837 222.691 32.9518 223.277 31.8917C223.863 30.8277 224.637 30.0202 225.598 29.4614C226.56 28.9027 227.591 28.6233 228.69 28.6233C229.79 28.6233 230.843 28.9027 231.797 29.4614C232.747 30.0202 233.517 30.8316 234.107 31.8917C234.694 32.9556 234.989 34.2492 234.989 35.7763C234.989 37.3033 234.694 38.5433 234.107 39.6072C233.521 40.6712 232.751 41.4787 231.797 42.0375C230.847 42.5963 229.809 42.8756 228.69 42.8756ZM228.69 40.9735C229.866 40.9735 230.813 40.4951 231.529 39.5345C232.245 38.5739 232.606 37.3224 232.606 35.7763C232.606 34.2301 232.245 32.9442 231.529 31.9759C230.813 31.0076 229.862 30.5216 228.69 30.5216C227.518 30.5216 226.591 31.0076 225.863 31.9759C225.135 32.9442 224.771 34.2109 224.771 35.7763C224.771 37.3416 225.135 38.5777 225.863 39.5345C226.591 40.4951 227.533 40.9735 228.69 40.9735Z" fill="#12123A"/>
<path d="M237.981 48.2682V28.9525H239.885L240.08 30.5178H240.164C240.781 29.9973 241.456 29.5496 242.195 29.1745C242.931 28.8033 243.701 28.6157 244.505 28.6157C246.26 28.6157 247.593 29.2434 248.505 30.5025C249.421 31.7616 249.876 33.4418 249.876 35.5467C249.876 37.0737 249.601 38.3903 249.053 39.4887C248.501 40.5871 247.785 41.4252 246.9 42.0031C246.015 42.581 245.049 42.8681 244.003 42.8681C243.367 42.8681 242.739 42.7265 242.115 42.4471C241.49 42.1677 240.858 41.785 240.226 41.3028L240.283 43.6794V48.2644H237.988L237.981 48.2682ZM243.605 40.943C244.724 40.943 245.651 40.4646 246.39 39.504C247.126 38.5434 247.494 37.2268 247.494 35.5505C247.494 34.0618 247.218 32.8524 246.67 31.93C246.118 31.0077 245.202 30.5446 243.915 30.5446C243.337 30.5446 242.754 30.7015 242.168 31.0192C241.582 31.3368 240.95 31.7923 240.279 32.3893V39.5155C240.896 40.036 241.49 40.4072 242.069 40.6177C242.647 40.832 243.16 40.9392 243.609 40.9392L243.605 40.943Z" fill="#12123A"/>
<path d="M258.68 42.8757C257.466 42.8757 256.366 42.5925 255.378 42.0222C254.389 41.4558 253.604 40.6368 253.029 39.5767C252.451 38.5127 252.164 37.2459 252.164 35.7763C252.164 34.3067 252.459 33.0093 253.045 31.9453C253.631 30.8814 254.393 30.0623 255.324 29.4844C256.255 28.9065 257.236 28.6195 258.263 28.6195C259.998 28.6195 261.335 29.1974 262.278 30.3532C263.22 31.509 263.692 33.0552 263.692 34.9917C263.692 35.2328 263.688 35.4701 263.676 35.7036C263.669 35.937 263.642 36.1361 263.607 36.3044H254.428C254.52 37.7396 254.972 38.884 255.784 39.7412C256.596 40.5985 257.654 41.0272 258.96 41.0272C259.611 41.0272 260.213 40.9277 260.765 40.7325C261.316 40.5373 261.841 40.2809 262.347 39.9632L263.159 41.4711C262.581 41.8423 261.922 42.1715 261.186 42.4509C260.45 42.7302 259.615 42.8719 258.68 42.8719V42.8757ZM254.401 34.6588H261.676C261.676 33.281 261.381 32.2323 260.795 31.5128C260.209 30.7972 259.381 30.4374 258.32 30.4374C257.37 30.4374 256.516 30.8048 255.761 31.5396C255.006 32.2744 254.554 33.3154 254.405 34.6549L254.401 34.6588Z" fill="#12123A"/>
<path d="M272.074 42.8756C270.975 42.8756 269.944 42.5963 268.982 42.0375C268.021 41.4787 267.247 40.6674 266.661 39.6072C266.075 38.5433 265.78 37.2688 265.78 35.7763C265.78 34.2837 266.075 32.9518 266.661 31.8917C267.247 30.8277 268.021 30.0202 268.982 29.4614C269.944 28.9027 270.975 28.6233 272.074 28.6233C273.174 28.6233 274.227 28.9027 275.181 29.4614C276.131 30.0202 276.901 30.8316 277.491 31.8917C278.078 32.9556 278.373 34.2492 278.373 35.7763C278.373 37.3033 278.078 38.5433 277.491 39.6072C276.905 40.6712 276.135 41.4787 275.181 42.0375C274.231 42.5963 273.193 42.8756 272.074 42.8756ZM272.074 40.9735C273.25 40.9735 274.197 40.4951 274.913 39.5345C275.629 38.5739 275.99 37.3224 275.99 35.7763C275.99 34.2301 275.629 32.9442 274.913 31.9759C274.197 31.0076 273.246 30.5216 272.074 30.5216C270.902 30.5216 269.975 31.0076 269.247 31.9759C268.519 32.9442 268.155 34.2109 268.155 35.7763C268.155 37.3416 268.519 38.5777 269.247 39.5345C269.975 40.4951 270.917 40.9735 272.074 40.9735Z" fill="#12123A"/>
<path d="M284.851 42.8757C283.882 42.8757 282.959 42.6958 282.081 42.3322C281.204 41.9686 280.438 41.5247 279.786 41.0042L280.932 39.4657C281.53 39.9326 282.146 40.3191 282.779 40.6253C283.411 40.9315 284.131 41.0846 284.932 41.0846C285.828 41.0846 286.499 40.8741 286.947 40.4569C287.395 40.0359 287.617 39.5384 287.617 38.9605C287.617 38.4936 287.464 38.1032 287.158 37.7856C286.851 37.4679 286.456 37.2038 285.981 36.9895C285.506 36.7752 285.016 36.5762 284.514 36.3886C283.878 36.1475 283.254 35.872 282.641 35.5658C282.024 35.2596 281.522 34.8578 281.131 34.3641C280.74 33.8704 280.545 33.2427 280.545 32.4773C280.545 31.3789 280.959 30.4604 281.79 29.7256C282.621 28.9907 283.771 28.6195 285.246 28.6195C286.085 28.6195 286.87 28.7688 287.594 29.0673C288.322 29.3658 288.947 29.7294 289.468 30.158L288.349 31.6123C287.882 31.2602 287.399 30.9694 286.893 30.7474C286.391 30.5254 285.84 30.4106 285.242 30.4106C284.384 30.4106 283.755 30.6058 283.353 30.9962C282.951 31.3865 282.752 31.8458 282.752 32.3663C282.752 32.7949 282.893 33.1432 283.173 33.4149C283.453 33.6867 283.817 33.9163 284.265 34.1153C284.713 34.3105 285.188 34.5095 285.694 34.7162C286.345 34.9573 286.989 35.2328 287.625 35.539C288.257 35.8452 288.786 36.2585 289.207 36.7675C289.629 37.2804 289.836 37.9654 289.836 38.8227C289.836 39.5499 289.644 40.2196 289.261 40.8358C288.878 41.452 288.318 41.9457 287.583 42.3169C286.847 42.6881 285.935 42.8757 284.855 42.8757H284.851Z" fill="#12123A"/>
<path d="M81.4966 20.548H49.334C48.5524 20.548 47.9816 21.279 48.1693 22.0368L49.2574 26.3921C49.4451 27.1499 48.8742 27.8809 48.0927 27.8809H25.8144C25.5386 27.8809 25.2972 27.6934 25.2321 27.4293L23.6958 21.2943C23.6 20.9155 23.8874 20.548 24.2781 20.548H44.4186C45.2001 20.548 45.771 19.8132 45.5833 19.0593L44.4914 14.704C44.3036 13.9462 44.8745 13.2152 45.6561 13.2152H79.9565C80.2323 13.2152 80.4737 13.4027 80.5388 13.6706L82.0751 19.8056C82.1709 20.1845 81.8836 20.5519 81.4928 20.5519L81.4966 20.548Z" fill="#12123A"/>
<path d="M81.4852 35.2176H56.6669C55.8853 35.2176 55.3145 35.9486 55.5022 36.7064L56.5903 41.0617C56.778 41.8195 56.2072 42.5504 55.4256 42.5504H25.8183C25.5425 42.5504 25.3011 42.3629 25.236 42.0988L23.6997 35.9639C23.6039 35.585 23.8913 35.2176 24.282 35.2176H51.7553C52.5369 35.2176 53.1078 34.4828 52.92 33.7288L51.8281 29.3735C51.6404 28.6158 52.2113 27.8848 52.9928 27.8848H79.9489C80.2248 27.8848 80.4661 28.0723 80.5313 28.3402L82.0676 34.4751C82.1633 34.854 81.876 35.2214 81.4852 35.2214V35.2176Z" fill="#12123A"/>
<path d="M81.4852 49.8833H64.0074C63.2259 49.8833 62.655 50.6142 62.8427 51.372L63.8542 55.4097C64.084 56.3282 63.3868 57.2161 62.4405 57.2161H25.8183C25.5425 57.2161 25.3011 57.0286 25.236 56.7645L23.6997 50.6295C23.6039 50.2507 23.8913 49.8833 24.282 49.8833H59.0997C59.8813 49.8833 60.4521 49.1484 60.2644 48.3945L59.1725 44.0392C58.9848 43.2814 59.5556 42.5504 60.3372 42.5504H79.9527C80.2286 42.5504 80.47 42.7379 80.5351 43.0058L82.0714 49.1408C82.1672 49.5197 81.8798 49.8871 81.489 49.8871L81.4852 49.8833Z" fill="#12123A"/>
<path d="M5.16821 20.4983L9.06834 23.3304L7.55503 27.923L11.459 25.0603L15.3553 27.9001L13.8458 23.3304L17.7038 20.5175L12.934 20.529L11.4781 15.9938L9.98399 20.5251L5.16821 20.4983Z" fill="#A69256"/>
<path d="M12.6467 8.38534L15.7653 10.651L14.5547 14.3251L17.6771 12.0364L20.7956 14.306L19.5888 10.651L22.6729 8.40065L18.8609 8.41213L17.6924 4.78015L16.5009 8.4083L12.6467 8.38534Z" fill="#A69256"/>
<path d="M26.2971 8.40069L28.7912 10.2109L27.8219 13.1502L30.3237 11.3208L32.8178 13.1349L31.8485 10.2109L34.3196 8.41217L31.2661 8.41983L30.3352 5.51501L29.3812 8.416L26.2971 8.40069Z" fill="#A69256"/>
</svg>
