<svg width="154" height="100" viewBox="0 0 154 100" fill="none" xmlns="http://www.w3.org/2000/svg">
<g clip-path="url(#clip0_7206_2953)">
<path d="M53.9993 100V0H154V100H53.9993Z" fill="#004990"/>
<path d="M48.9319 8.42236V10.3449C43.1627 10.7416 42.949 10.8636 42.949 14.5865V37.3818C42.949 41.3488 42.2774 44.8581 41.148 47.1773C38.0955 53.7382 31.1357 55.264 24.5728 55.264C18.0098 55.264 11.1111 53.6772 8.0586 47.1773C6.92917 44.9192 6.34919 41.4098 6.25761 37.5038V14.556C6.25761 10.8331 6.13551 10.711 0.274658 10.3143V8.39185H18.773V10.3143C13.0037 10.711 12.8205 10.8331 12.8205 14.556V36.0391C12.8205 42.3253 13.8279 46.3229 15.812 48.9472C17.8572 51.6021 20.7876 52.9143 24.5728 52.9143C28.3579 52.9143 31.3494 51.6021 33.3946 48.9472C35.3787 46.2924 36.3861 42.3253 36.3861 36.0391V14.556C36.3861 10.8331 36.264 10.711 30.4336 10.3143V8.39185H48.9319V8.42236Z" fill="#004990"/>
<path d="M48.9319 8.42236V10.3449C43.1627 10.7416 42.949 10.8636 42.949 14.5865V37.3818C42.949 41.3488 42.2774 44.8581 41.148 47.1773C38.0955 53.7382 31.1357 55.264 24.5728 55.264C18.0098 55.264 11.1111 53.6772 8.0586 47.1773C6.92917 44.9192 6.34919 41.4098 6.25761 37.5038V14.556C6.25761 10.8331 6.13551 10.711 0.274658 10.3143V8.39185H18.773V10.3143C13.0037 10.711 12.8205 10.8331 12.8205 14.556V36.0391C12.8205 42.3253 13.8279 46.3229 15.812 48.9472C17.8572 51.6021 20.7876 52.9143 24.5728 52.9143C28.3579 52.9143 31.3494 51.6021 33.3946 48.9472C35.3787 46.2924 36.3861 42.3253 36.3861 36.0391V14.556C36.3861 10.8331 36.264 10.711 30.4336 10.3143V8.39185H48.9319V8.42236Z" stroke="#004990" stroke-width="0.23"/>
<path d="M59.8296 40.7079H61.9359C63.5842 48.1232 67.7051 52.9752 73.9323 52.9752C79.8237 52.9752 83.4867 49.527 83.4867 43.8205C83.4867 38.1141 77.1985 34.8794 74.2681 33.7503L73.0776 33.2926C66.1178 30.8514 60.5317 27.1895 60.5317 20.2319C60.5317 11.4739 67.7051 7.4458 75.7943 7.4458C80.3121 7.4458 84.7993 8.57488 87.0581 10.3753V19.7131H85.013C83.9446 13.0302 80.7699 9.765 75.0617 9.765C69.3535 9.765 66.5757 13.3353 66.5757 18.1873C66.5757 22.1544 70.2998 25.0229 74.7259 26.6707L76.8322 27.4641C84.5856 30.3021 89.897 34.025 89.897 41.837C89.897 48.6115 85.2572 55.2944 73.5049 55.2944C68.8651 55.2944 63.3705 54.0433 60.4401 51.3274L59.7686 40.7079H59.8296Z" fill="white"/>
<path d="M59.8296 40.7079H61.9359C63.5842 48.1232 67.7051 52.9752 73.9323 52.9752C79.8237 52.9752 83.4867 49.527 83.4867 43.8205C83.4867 38.1141 77.1985 34.8794 74.2681 33.7503L73.0776 33.2926C66.1178 30.8514 60.5317 27.1895 60.5317 20.2319C60.5317 11.4739 67.7051 7.4458 75.7943 7.4458C80.3121 7.4458 84.7993 8.57488 87.0581 10.3753V19.7131H85.013C83.9446 13.0302 80.7699 9.76499 75.0617 9.76499C69.3535 9.76499 66.5757 13.3353 66.5757 18.1873C66.5757 22.1544 70.2998 25.0229 74.7259 26.6707L76.8322 27.4641C84.5856 30.3021 89.897 34.025 89.897 41.837C89.897 48.6115 85.2572 55.2944 73.5049 55.2944C68.8651 55.2944 63.3705 54.0433 60.4401 51.3274L59.7686 40.7079H59.8296Z" stroke="white" stroke-width="0.23"/>
<path d="M137.669 20.3539H135.685C134.433 12.5419 129.732 9.73448 122.956 9.73448C110.624 9.67344 106.319 20.5981 106.319 31.4617C106.319 39.4873 109.158 52.9447 122.834 52.9447C131.503 52.9447 134.891 47.9096 136.753 41.0131H138.737L137.822 52.0903C134.647 53.7992 128.542 55.2639 123.23 55.2639C115.813 55.2639 109.311 53.7381 105.19 49.6185C101.222 45.6515 98.9019 39.4263 98.9019 31.6448C98.9019 23.8633 101.161 18.462 104.946 14.2203C108.914 9.76499 115.477 7.38477 123.627 7.38477C129.671 7.38477 134.708 8.57488 137.699 9.9786V20.3234L137.669 20.3539Z" fill="white"/>
<path d="M137.669 20.3539H135.685C134.433 12.5419 129.732 9.73448 122.956 9.73448C110.624 9.67344 106.319 20.5981 106.319 31.4617C106.319 39.4873 109.158 52.9447 122.834 52.9447C131.503 52.9447 134.891 47.9096 136.753 41.0131H138.737L137.822 52.0903C134.647 53.7992 128.542 55.2639 123.23 55.2639C115.813 55.2639 109.311 53.7381 105.19 49.6185C101.222 45.6515 98.9019 39.4263 98.9019 31.6448C98.9019 23.8633 101.161 18.462 104.946 14.2203C108.914 9.76499 115.477 7.38477 123.627 7.38477C129.671 7.38477 134.708 8.57488 137.699 9.9786V20.3234L137.669 20.3539Z" stroke="white" stroke-width="0.23"/>
<path d="M59.7074 64.0524L59.6464 63.1674L59.2495 63.1064L59.1885 62.6487H61.2031L61.1421 63.1064L60.7147 63.1674L60.6537 64.0524V66.7683C60.6537 67.2566 60.6537 68.0194 60.8063 68.4772C61.02 69.118 61.661 69.4537 62.3326 69.4537C62.882 69.4537 63.462 69.2096 63.7367 68.7518C64.042 68.2636 64.0115 67.5617 64.0115 67.0124V64.0829L63.9504 63.198L63.5231 63.1369L63.462 62.6792H65.263L65.202 63.1369L64.8051 63.198L64.7441 64.0829V66.7378C64.7441 67.5007 64.7746 68.2636 64.3472 68.9349C63.8588 69.6978 63.1568 69.9114 62.2715 69.9114C61.5084 69.9114 60.7453 69.7283 60.2263 69.118C59.7379 68.5382 59.7074 67.7143 59.7074 66.9819V64.0524Z" fill="white"/>
<path d="M66.9725 64.0524L66.942 63.198L66.5147 63.1369L66.4536 62.6487H67.7357L71.4292 68.4162V64.0524L71.3682 63.198L70.9714 63.1369L70.9103 62.6487H72.6502L72.5892 63.1369L72.1618 63.198L72.1008 64.0524V69.8199H71.3071L67.6441 64.144V68.3246L67.7051 69.2096L68.1325 69.2706L68.1936 69.7588H66.4536L66.5147 69.2706L66.942 69.2096L66.9725 68.3246V64.0524Z" fill="white"/>
<path d="M74.4511 64.0524L74.39 63.198L73.9932 63.1369L73.9321 62.6487H75.9468L75.8858 63.1369L75.4584 63.198L75.3973 64.0524V68.3246L75.4584 69.2096L75.8858 69.2706L75.9468 69.7588H73.9321L73.9932 69.2706L74.39 69.2096L74.4511 68.3246V64.0524Z" fill="white"/>
<path d="M77.5646 63.9609L77.2288 63.198L76.9236 63.1369L76.8625 62.6487H78.8162L78.7551 63.1369L78.2972 63.198L80.2814 68.3551L82.2045 63.198L81.7161 63.1369L81.655 62.6487H83.1813L83.1202 63.1369L82.815 63.198L82.3876 64.1745L80.3119 69.8199H79.8235L77.5646 63.9609Z" fill="white"/>
<path d="M84.0361 69.7588L84.0972 69.2706L84.494 69.2096L84.5551 68.3246V64.0524L84.494 63.198L84.0972 63.1369L84.0361 62.6487H88.5233L88.4623 63.7167L88.0044 63.6557L87.9434 63.198L86.936 63.1369H85.5013V65.7918H88.0044L87.9434 66.3106L86.7529 66.2495H85.5013V68.3246L85.5624 69.2096H87.1802L88.157 69.1485L88.2181 68.6298L88.676 68.5687L88.737 69.7588H84.0361Z" fill="white"/>
<path d="M91.1486 66.6157H92.0033L93.8958 69.7588H95.3305L95.2695 69.3011L94.8421 69.2401L94.2621 68.4467L92.919 66.4326C93.8043 66.1275 94.3842 65.3951 94.3842 64.4186C94.3842 63.8388 94.1706 63.32 93.6822 62.9844C93.2548 62.6792 92.7054 62.6487 92.2169 62.6487H89.6528L89.7139 63.1064L90.1107 63.1674L90.1718 64.0524V68.3246L90.1107 69.2096L89.7139 69.2706L89.6528 69.7283H91.5454L91.4843 69.2706L91.118 69.2096V66.6157M91.1486 66.158V63.259C91.4233 63.198 91.698 63.1369 91.9727 63.1369C92.8275 63.1369 93.4074 63.5642 93.4074 64.4491C93.4074 64.9374 93.2548 65.4561 92.858 65.7918C92.4306 66.1275 91.8506 66.158 91.3317 66.158H91.1486Z" fill="white"/>
<path d="M96.3377 68.4161L96.7955 68.4772L96.8566 68.9654C97.2534 69.2401 97.7113 69.4537 98.1997 69.4537C98.9934 69.4537 99.6344 68.9349 99.6344 68.111C99.6344 67.1955 98.9628 66.8904 98.2607 66.4937C97.406 66.0054 96.3682 65.4561 96.3682 64.3576C96.3682 63.8388 96.5819 63.381 96.9482 63.0149C97.345 62.6182 97.8334 62.4656 98.4134 62.4656C99.0239 62.4656 99.6344 62.5876 100.214 62.7707L100.153 63.8693L99.6954 63.8083L99.6344 63.32C99.2681 63.0759 98.8407 62.9233 98.4134 62.9233C97.7724 62.9233 97.3145 63.4726 97.3145 64.1134C97.3145 64.8763 97.9555 65.212 98.5355 65.5477C98.9628 65.7918 99.4512 66.0664 99.8481 66.3716C100.336 66.7378 100.581 67.2565 100.581 67.8669C100.581 69.1485 99.4818 69.9114 98.2913 69.9114C97.6197 69.9114 96.9176 69.7588 96.2766 69.5757L96.3377 68.3856" fill="white"/>
<path d="M102.26 64.0524L102.199 63.198L101.802 63.1369L101.741 62.6487H103.725L103.664 63.1369L103.267 63.198L103.206 64.0524V68.3246L103.267 69.2096L103.664 69.2706L103.725 69.7588H101.741L101.802 69.2706L102.199 69.2096L102.26 68.3246V64.0524Z" fill="white"/>
<path d="M105.037 69.7588H107.907C108.945 69.7588 109.83 69.5452 110.532 68.7213C111.173 67.9889 111.417 66.9819 111.417 66.0359C111.417 65.151 111.173 64.1745 110.532 63.5031C109.86 62.8013 108.975 62.6487 108.029 62.6487H105.037L105.098 63.1064L105.495 63.1674L105.556 64.0524V68.3246L105.495 69.2096L105.098 69.2706L105.037 69.7283M106.564 69.1485L106.503 68.3246V63.1064H107.144C108.029 63.1064 108.853 63.1369 109.525 63.7778C110.196 64.3881 110.41 65.2425 110.41 66.097C110.41 66.8598 110.227 67.7143 109.738 68.3246C109.189 69.0265 108.426 69.2096 107.571 69.2096L106.564 69.1485Z" fill="white"/>
<path d="M113.768 67.6227H116.729L117.37 69.2096L116.912 69.2706L116.851 69.7283H118.804L118.743 69.2706L118.438 69.2096L118.072 68.4467L115.752 62.5571H115.172L112.944 68.2331L112.455 69.2401L112.15 69.3011L112.089 69.7588H113.646L113.585 69.3011L113.127 69.2401L113.737 67.6533M113.951 67.1345L115.233 63.8083L116.546 67.1345H113.951Z" fill="white"/>
<path d="M119.659 69.7588H122.529C123.566 69.7588 124.452 69.5452 125.154 68.7213C125.795 67.9889 126.039 66.9819 126.039 66.0359C126.039 65.151 125.795 64.1745 125.154 63.5031C124.482 62.8013 123.597 62.6487 122.651 62.6487H119.659L119.72 63.1064L120.117 63.1674L120.178 64.0524V68.3246L120.117 69.2096L119.72 69.2706L119.659 69.7283M121.185 69.1485L121.124 68.3246V63.1064H121.765C122.651 63.1064 123.475 63.1369 124.146 63.7778C124.818 64.3881 125.032 65.2425 125.032 66.097C125.032 66.8598 124.848 67.7143 124.36 68.3246C123.811 69.0265 123.047 69.2096 122.193 69.2096L121.185 69.1485Z" fill="white"/>
<path d="M127.26 69.7588L127.321 69.2706L127.748 69.2096L127.809 68.3246V64.0524L127.748 63.198L127.321 63.1369L127.26 62.6487H131.747L131.716 63.7167L131.228 63.6557L131.167 63.198L130.16 63.1369H128.756V65.7918H131.228L131.167 66.3106L129.977 66.2495H128.756V68.3246L128.786 69.2096H130.404L131.381 69.1485L131.442 68.6298L131.9 68.5687L131.961 69.7588H127.26Z" fill="white"/>
<path d="M59.3105 81.7515H62.1494C63.1873 81.7515 64.0725 81.5379 64.8051 80.7445C65.4461 80.0121 65.6903 79.0051 65.6903 78.0591C65.6903 77.1742 65.4461 76.1977 64.8051 75.5263C64.1335 74.8245 63.2483 74.6719 62.302 74.6719H59.3105L59.3716 75.1296L59.7684 75.1906L59.8295 76.0756V80.3478L59.7684 81.2328L59.3716 81.2938L59.3105 81.7515ZM60.8368 81.1412L60.7758 80.3173V75.0991H61.4168C62.302 75.0991 63.1262 75.1296 63.7978 75.7399C64.4388 76.3502 64.683 77.2047 64.683 78.0591C64.683 78.822 64.4998 79.6765 64.0114 80.2868C63.462 80.9886 62.6989 81.1717 61.8441 81.1717L60.8368 81.1107" fill="white"/>
<path d="M66.9419 81.7515L66.9724 81.2633L67.3998 81.2022L67.4608 80.3173V76.0451L67.3998 75.1906L66.9724 75.1296L66.9419 74.6414H71.4291L71.3681 75.7094L70.8797 75.6484L70.8186 75.1906L69.8113 75.1296H68.4071V77.7845H70.8797L70.8186 78.3032L69.6586 78.2422H68.4071V80.3173L68.4682 81.2022H70.0555L71.0323 81.1412L71.0933 80.6224L71.5817 80.5614L71.6428 81.7515H66.9419Z" fill="white"/>
<path d="M75.7027 80.4088L76.1605 80.4699L76.2216 80.9581C76.6184 81.2327 77.0763 81.4464 77.5647 81.4464C78.3584 81.4464 78.9994 80.9276 78.9994 80.1037C78.9994 79.1882 78.3278 78.883 77.6258 78.4863C76.771 77.9981 75.7332 77.4488 75.7332 76.3502C75.7332 75.8315 75.9469 75.3432 76.3132 75.0075C76.71 74.6108 77.1984 74.4583 77.7784 74.4583C78.3889 74.4583 78.9994 74.5803 79.5794 74.7634L79.5183 75.862L79.0604 75.8009L78.9994 75.3127C78.6331 75.0686 78.2057 74.916 77.7784 74.916C77.1373 74.916 76.6795 75.4653 76.6795 76.1061C76.6795 76.869 77.3205 77.2047 77.9005 77.5403C78.3278 77.7845 78.8468 78.0591 79.2131 78.3643C79.7015 78.7305 79.9457 79.2492 79.9457 79.8595C79.9457 81.1412 78.8468 81.9041 77.6258 81.9041C76.9542 81.9041 76.2521 81.7515 75.6111 81.5684L75.6721 80.3783" fill="white"/>
<path d="M82.2045 79.6154H85.1655L85.8065 81.2022L85.3486 81.2633L85.2876 81.721H87.2412L87.1801 81.2633L86.8749 81.2022L86.5086 80.4393L84.1887 74.5498H83.6087L81.3803 80.2257L80.8919 81.2327L80.5867 81.2938L80.5256 81.7515H82.0824L82.0214 81.2938L81.5635 81.2327L82.174 79.6459M82.3877 79.1272L83.6697 75.8009L84.9823 79.1272H82.3877Z" fill="white"/>
<path d="M88.6149 76.0451L88.5538 75.1906L88.157 75.1296L88.0959 74.6414H89.3475L93.0716 80.4393V76.0451L93.0105 75.1906L92.6137 75.1296L92.5526 74.6414H94.262L94.201 75.1296L93.8042 75.1906L93.7431 76.0451V81.8126H92.9495L89.2864 76.1366V80.3173L89.3475 81.2022L89.7443 81.2633L89.8054 81.7515H88.0959L88.157 81.2633L88.5538 81.2022L88.6149 80.3173V76.0451Z" fill="white"/>
<path d="M97.8029 75.1296H96.5819L95.7882 75.1906L95.7272 75.7094L95.2693 75.7704L95.2083 74.6414H101.344L101.283 75.7704L100.825 75.7094L100.764 75.1906L100.001 75.1296H98.7492V80.3173L98.8102 81.2022L99.2376 81.2633L99.2681 81.7515H97.284L97.345 81.2633L97.7418 81.2022L97.8029 80.3173V75.1296Z" fill="white"/>
<path d="M102.84 76.0451L102.779 75.1906L102.351 75.1296L102.29 74.6414H104.305L104.244 75.1296L103.847 75.1906L103.786 76.0451V80.3173L103.847 81.2022L104.244 81.2633L104.305 81.7515H102.29L102.351 81.2633L102.779 81.2022L102.84 80.3173V76.0451Z" fill="white"/>
<path d="M106.716 79.6154H109.677L110.318 81.2022L109.83 81.2633L109.769 81.721H111.722L111.661 81.2633L111.356 81.2022L110.99 80.4393L108.67 74.5498H108.09L105.862 80.2257L105.373 81.2327L105.068 81.2938L105.007 81.7515H106.564L106.503 81.2938L106.045 81.2327L106.655 79.6459M106.899 79.1272L108.181 75.8009L109.494 79.1272H106.899Z" fill="white"/>
<path d="M117.309 79.4628L116.759 79.4018L116.698 78.9441H118.774L118.713 79.4018L118.316 79.4628L118.255 80.4699V81.5684C117.492 81.7515 116.759 81.9346 115.965 81.9346C113.707 81.9346 112.547 80.3173 112.547 78.1812C112.547 77.2962 112.791 76.2587 113.371 75.5873C114.012 74.7939 114.928 74.5193 115.935 74.5193C116.759 74.5193 117.553 74.6414 118.346 74.8855L118.285 76.1366L117.828 76.0756L117.766 75.5263C117.217 75.2211 116.668 75.0075 116.027 75.0075C114.226 75.0075 113.584 76.808 113.584 78.3338C113.584 80.0121 114.5 81.4769 116.332 81.4769C116.668 81.4769 117.003 81.4158 117.339 81.3243V79.5239" fill="white"/>
<path d="M123.109 81.9041C124.116 81.9041 124.971 81.5379 125.612 80.775C126.222 80.0426 126.375 79.1272 126.375 78.1812C126.375 77.2047 126.192 76.2587 125.52 75.4958C124.879 74.7634 124.024 74.4583 123.078 74.4583C122.071 74.4583 121.185 74.8244 120.575 75.5873C119.964 76.3197 119.812 77.2352 119.812 78.1812C119.812 79.1272 119.995 80.0731 120.636 80.8055C121.277 81.5684 122.132 81.9041 123.109 81.9041ZM123.109 81.4464C121.338 81.4464 120.819 79.6459 120.819 78.2117C120.819 76.7774 121.338 74.9465 123.109 74.9465C124.879 74.9465 125.398 76.7469 125.398 78.2117C125.398 79.6764 124.879 81.4464 123.109 81.4464Z" fill="white"/>
<path d="M59.3105 93.7442H62.1494C63.1873 93.7442 64.0725 93.5306 64.8051 92.7067C65.4461 91.9743 65.6903 90.9673 65.6903 90.0213C65.6903 89.1363 65.4461 88.1598 64.8051 87.4885C64.1335 86.7866 63.2483 86.634 62.302 86.634H59.3105L59.3716 87.0918L59.7684 87.1528L59.8295 88.0378V92.31L59.7684 93.1949L59.3716 93.2559L59.3105 93.7137M60.8368 93.1339L60.7758 92.31V87.0918H61.4168C62.302 87.0918 63.1262 87.1223 63.7978 87.7631C64.4388 88.3734 64.683 89.2279 64.683 90.0823C64.683 90.8452 64.4998 91.6996 64.0114 92.31C63.462 93.0118 62.6989 93.1949 61.8441 93.1949L60.8368 93.1339Z" fill="white"/>
<path d="M66.9419 93.7442L66.9724 93.2559L67.3998 93.1949L67.4608 92.31V88.0683L67.3998 87.1833L66.9724 87.1223L66.9419 86.634H71.4291L71.3681 87.7021L70.8797 87.6411L70.8186 87.1833L69.8113 87.1223H68.4071V89.7772H70.8797L70.8186 90.2959L69.6586 90.2654H68.4071V92.31L68.4682 93.1949H70.0555L71.0323 93.1339L71.0933 92.6151L71.5817 92.5541L71.6428 93.7442H66.9419Z" fill="white"/>
<path d="M81.2583 86.8171L81.1972 87.9462L80.7393 87.8852L80.6783 87.3969C80.1899 87.1223 79.6709 86.9392 79.1215 86.9392C78.2973 86.9392 77.6258 87.2749 77.1984 88.0072C76.8016 88.6481 76.6184 89.533 76.6184 90.2654C76.6184 91.8827 77.5036 93.4085 79.3046 93.4085C80.0067 93.4085 80.7699 93.1949 81.3193 92.7677V93.317C80.6783 93.7442 79.8541 93.8968 79.091 93.8968C78.0531 93.8968 77.1679 93.6526 76.4963 92.8287C75.8553 92.0658 75.6111 91.1198 75.6111 90.1433C75.6111 89.2279 75.8553 88.1903 76.4658 87.4885C77.1373 86.6951 78.0531 86.4509 79.0604 86.4509C79.793 86.4509 80.373 86.573 81.1056 86.7561H81.2583" fill="white"/>
<path d="M85.837 93.8968C86.8443 93.8968 87.6991 93.5306 88.3401 92.7677C88.9506 92.0353 89.1032 91.1198 89.1032 90.1738C89.1032 89.1973 88.9201 88.2514 88.2485 87.4885C87.6075 86.7561 86.7528 86.4509 85.8065 86.4509C84.7992 86.4509 83.9139 86.8171 83.3034 87.58C82.6929 88.3124 82.5403 89.2279 82.5403 90.1738C82.5403 91.1198 82.7234 92.0658 83.3645 92.7982C84.0055 93.5611 84.8602 93.8968 85.837 93.8968ZM85.837 93.439C84.0665 93.439 83.5476 91.6386 83.5476 90.2044C83.5476 88.7701 84.0665 86.9392 85.837 86.9392C87.6075 86.9392 88.1264 88.7396 88.1264 90.2044C88.1264 91.6691 87.6075 93.439 85.837 93.439Z" fill="white"/>
<path d="M91.6063 92.31L91.6673 93.1949L92.0947 93.2559L92.1557 93.7442H90.3547L90.4158 93.2559L90.8126 93.1949L90.8737 92.31V88.0683L90.8126 87.1833L90.4158 87.1223L90.3547 86.634H92.0641L94.0483 91.8522L96.124 86.634H97.5587L97.4977 87.1223L97.1008 87.1833L97.0398 88.0683V92.31L97.1008 93.1949L97.4977 93.2559L97.5587 93.7442H95.6356L95.6967 93.2559L96.0935 93.1949L96.1545 92.31V88.0072H96.124L94.0788 93.1949H93.6209L91.6368 88.0072H91.6063V92.31Z" fill="white"/>
<path d="M100.337 90.7842H100.52C101.222 90.7842 102.046 90.7231 102.656 90.3875C103.328 89.9908 103.664 89.2889 103.664 88.4955C103.664 87.2138 102.809 86.6646 101.588 86.6646H98.8713L98.9324 87.1223L99.3597 87.1833L99.4208 88.0683V92.3405L99.3597 93.2254L98.9324 93.2865L98.8713 93.7442H101.008L100.947 93.2865L100.337 93.2254V90.8147M100.337 90.2959V87.2138C100.611 87.1528 100.917 87.0918 101.191 87.0918C102.138 87.0918 102.656 87.4885 102.656 88.465C102.656 88.9837 102.504 89.533 102.076 89.8992C101.619 90.2959 101.1 90.2959 100.55 90.2959H100.367" fill="white"/>
<path d="M107.785 93.8968C108.792 93.8968 109.647 93.5306 110.288 92.7677C110.898 92.0353 111.051 91.1198 111.051 90.1738C111.051 89.1973 110.868 88.2514 110.196 87.4885C109.555 86.7561 108.701 86.4509 107.754 86.4509C106.747 86.4509 105.862 86.8171 105.251 87.58C104.641 88.3124 104.488 89.2279 104.488 90.1738C104.488 91.1198 104.671 92.0658 105.312 92.7982C105.953 93.5611 106.808 93.8968 107.785 93.8968ZM107.785 93.439C106.014 93.439 105.495 91.6386 105.495 90.2044C105.495 88.7701 106.014 86.9392 107.785 86.9392C109.555 86.9392 110.074 88.7396 110.074 90.2044C110.074 91.6691 109.555 93.439 107.785 93.439Z" fill="white"/>
<path d="M112.333 92.4015L112.791 92.4625L112.852 92.9508C113.249 93.2254 113.707 93.439 114.195 93.439C114.989 93.439 115.63 92.9203 115.63 92.0963C115.63 91.1809 114.958 90.8757 114.256 90.479C113.401 89.9907 112.364 89.4415 112.364 88.3429C112.364 87.8241 112.577 87.3359 112.944 87.0002C113.34 86.6035 113.829 86.4509 114.409 86.4509C115.019 86.4509 115.63 86.573 116.21 86.7561L116.149 87.8547L115.691 87.7936L115.63 87.3054C115.263 87.0918 114.836 86.9392 114.409 86.9392C113.768 86.9392 113.31 87.4885 113.31 88.1293C113.31 88.8922 113.951 89.2279 114.531 89.5635C114.958 89.8077 115.447 90.0823 115.843 90.3875C116.332 90.7536 116.576 91.2724 116.576 91.8827C116.576 93.1644 115.477 93.9273 114.287 93.9273C113.615 93.9273 112.913 93.7747 112.272 93.5916L112.333 92.4015Z" fill="white"/>
<path d="M119.964 87.1223H118.743L117.98 87.1833L117.919 87.7021L117.431 87.7631L117.37 86.634H123.536L123.475 87.7631L122.986 87.7021L122.925 87.1833L122.162 87.1223H120.911V92.31L120.972 93.1949L121.399 93.2559L121.46 93.7442H119.445L119.506 93.2559L119.934 93.1949L119.964 92.31V87.1223Z" fill="white"/>
<path d="M124.482 93.7442L124.543 93.2559L124.94 93.1949L125.001 92.31V88.0683L124.94 87.1833L124.543 87.1223L124.482 86.634H128.969L128.908 87.7021L128.42 87.6411L128.389 87.1833L127.351 87.1223H125.947V89.7772H128.42L128.389 90.2959L127.199 90.2654H125.947V92.31L126.008 93.1949H127.626L128.572 93.1339L128.633 92.6151L129.122 92.5541L129.183 93.7442H124.482Z" fill="white"/>
<path d="M130.648 88.0683L130.587 87.1833L130.16 87.1223L130.099 86.634H132.113L132.052 87.1223L131.655 87.1833L131.594 88.0683V92.31L131.655 93.1949H133.243L134.25 93.1339L134.311 92.4931L134.769 92.432L134.83 93.7442H130.099L130.16 93.2559L130.587 93.1949L130.648 92.31V88.0683Z" fill="white"/>
<path d="M136.845 91.6081H139.806L140.447 93.1949L139.989 93.2559L139.928 93.7137H141.882L141.821 93.2559L141.515 93.1949L141.149 92.432L138.829 86.5425H138.249L136.021 92.2184L135.532 93.2254L135.227 93.2865L135.166 93.7442H136.723L136.662 93.2865L136.204 93.2254L136.814 91.6386M137.028 91.1504L138.31 87.8241L139.623 91.1504H137.028Z" fill="white"/>
</g>
<defs>
<clipPath id="clip0_7206_2953">
<rect width="154" height="100" fill="white"/>
</clipPath>
</defs>
</svg>
