<svg width="140" height="56" viewBox="0 0 140 56" fill="none" xmlns="http://www.w3.org/2000/svg">
<path fill-rule="evenodd" clip-rule="evenodd" d="M38.5688 16.7501L27.0593 39.2501H16.2485L21.0653 29.9251H20.8492C16.8754 35.0836 10.9464 38.4795 2.49854 39.2501V30.0542C2.49854 30.0542 7.90285 29.735 11.0799 26.3948H2.49854V16.7503H12.143V24.6828L12.3595 24.6819L16.3007 16.7503H23.5945V24.6325L23.8109 24.6321L27.8999 16.7501H38.5688Z" fill="white"/>
<path d="M101.332 36.7666H104.438V18.9376H101.332V36.7666Z" fill="white"/>
<path fill-rule="evenodd" clip-rule="evenodd" d="M84.2077 36.5846C84.8827 36.8652 85.5692 37.0056 86.2671 37.0056C87.42 37.0056 88.4516 36.7249 89.3618 36.1636C90.272 35.6023 90.9775 34.8287 91.4781 33.8426C91.9787 32.8489 92.229 31.7224 92.229 30.4633C92.229 29.2042 91.9711 28.0778 91.4554 27.0842C90.9395 26.0905 90.2227 25.3206 89.3048 24.7745C88.3871 24.2208 87.3441 23.9477 86.176 23.9553C85.4327 23.9553 84.7197 24.0994 84.037 24.3876C83.3544 24.6759 82.7855 25.0855 82.3304 25.6164C82.2952 25.6569 82.2611 25.6977 82.228 25.7389V18.9491H79.1105V36.7667H82.2052L82.199 35.1022C82.279 35.2003 82.3646 35.2962 82.4555 35.3899C82.9485 35.8982 83.5326 36.2963 84.2077 36.5846ZM87.3935 33.7061C86.8852 34.0171 86.305 34.1726 85.6526 34.1726C85.0078 34.1726 84.4162 34.0132 83.8777 33.6947C83.3391 33.3684 82.9106 32.9248 82.592 32.3634C82.281 31.8022 82.1255 31.1649 82.1255 30.4519C82.118 29.7389 82.2696 29.1018 82.5806 28.5405C82.8992 27.9716 83.3277 27.5317 83.8663 27.2207C84.4048 26.9021 85.0003 26.7466 85.6526 26.7542C86.305 26.7466 86.8852 26.8983 87.3935 27.2093C87.9092 27.5127 88.3036 27.9489 88.5767 28.5178C88.8574 29.0791 88.9977 29.7238 88.9977 30.4519C88.9977 31.1802 88.8574 31.8249 88.5767 32.3862C88.3036 32.9476 87.9092 33.3874 87.3935 33.7061Z" fill="white"/>
<path d="M43.0686 20.0186H46.6185L49.794 31.6155L53.1721 20.0186H56.1304L59.794 31.3828L62.8432 20.0186H66.0972L61.2959 36.7667H58.2352L54.5097 25.6647L51.09 36.7667H47.9952L43.0686 20.0186Z" fill="white"/>
<path fill-rule="evenodd" clip-rule="evenodd" d="M71.3398 37.0624C70.1033 37.07 68.9883 36.7969 67.9947 36.2433C67.0086 35.6819 66.2312 34.9044 65.6622 33.9108C65.1009 32.9171 64.8203 31.7831 64.8203 30.5088C64.8203 29.2724 65.1086 28.1536 65.6851 27.1524C66.2614 26.1511 67.0427 25.3699 68.0288 24.8086C69.0149 24.2473 70.1147 23.9666 71.3283 23.9666C72.6937 23.9666 73.8883 24.27 74.9123 24.8768C75.9439 25.4836 76.7138 26.3446 77.2221 27.4596C77.7378 28.567 77.9237 29.8375 77.7796 31.2711H68.0337C68.0609 31.8423 68.2034 32.3619 68.4612 32.8299C68.7494 33.3456 69.1514 33.7476 69.6672 34.0359C70.1831 34.3241 70.7594 34.4683 71.3967 34.4683C71.8821 34.4606 72.3334 34.3773 72.7506 34.218C73.1678 34.0511 73.5204 33.8274 73.8087 33.5466C74.1046 33.266 74.3132 32.9475 74.4346 32.591H77.6886C77.4913 33.4633 77.0969 34.2408 76.5053 34.9234C75.9136 35.5985 75.1703 36.1256 74.2752 36.5049C73.3802 36.8841 72.4017 37.07 71.3398 37.0624ZM68.4726 28.1423C68.2908 28.4592 68.1648 28.8005 68.0947 29.1663H74.5551C74.5082 28.7043 74.3656 28.2833 74.1273 27.9033C73.8542 27.4558 73.4826 27.1107 73.0123 26.8679C72.5421 26.6176 72.0111 26.4925 71.4194 26.4925C70.7898 26.4925 70.2172 26.6366 69.7013 26.9248C69.1856 27.2131 68.7759 27.6189 68.4726 28.1423Z" fill="white"/>
<path d="M94.5163 24.2283C94.5163 23.2119 94.7475 22.3093 95.2103 21.5204C95.6729 20.724 96.3215 20.1058 97.1559 19.6658C97.9978 19.2183 98.9802 18.987 100.103 18.9718V21.7366C99.5793 21.7442 99.1318 21.8542 98.7602 22.0666C98.396 22.2714 98.1154 22.571 97.9182 22.9654C97.7367 23.3285 97.6387 23.7495 97.6243 24.2283H100.034V26.8566H97.6224V36.7667H94.5163V26.8566H92.5138V24.2283H94.5163Z" fill="white"/>
<path fill-rule="evenodd" clip-rule="evenodd" d="M112.333 37.0396C111.067 37.0396 109.933 36.7627 108.931 36.2091C107.938 35.6477 107.156 34.8741 106.588 33.888C106.026 32.8943 105.746 31.768 105.746 30.5087C105.746 29.2421 106.026 28.1119 106.588 27.1182C107.156 26.1169 107.938 25.3395 108.931 24.7858C109.933 24.232 111.067 23.9552 112.333 23.9552C113.608 23.9552 114.745 24.232 115.747 24.7858C116.755 25.3395 117.541 26.1132 118.102 27.1068C118.663 28.1005 118.948 29.2345 118.955 30.5087C118.948 31.768 118.663 32.8943 118.102 33.888C117.548 34.8741 116.767 35.6477 115.758 36.2091C114.749 36.7627 113.608 37.0396 112.333 37.0396ZM112.333 34.1838C113.001 34.1838 113.592 34.0321 114.108 33.7287C114.624 33.4177 115.022 32.9853 115.303 32.4316C115.584 31.8703 115.724 31.2293 115.724 30.5087C115.724 29.7806 115.584 29.1358 115.303 28.5745C115.022 28.0132 114.624 27.5809 114.108 27.2775C113.592 26.9665 113.001 26.811 112.333 26.811C111.673 26.811 111.086 26.9665 110.57 27.2775C110.062 27.5809 109.667 28.0132 109.386 28.5745C109.106 29.1358 108.969 29.7806 108.977 30.5087C108.977 31.2293 109.117 31.8703 109.398 32.4316C109.686 32.9853 110.08 33.4177 110.581 33.7287C111.089 34.0321 111.673 34.1838 112.333 34.1838Z" fill="white"/>
<path d="M122.312 24.2283H118.853L122.596 36.7666H125.623L128.085 28.7584L130.742 36.7666H133.723L137.478 24.2283H134.35L132.22 32.0326L129.866 24.2283H126.84L124.498 32.2045L122.312 24.2283Z" fill="white"/>
</svg>
