<svg width="140" height="56" viewBox="0 0 140 56" fill="none" xmlns="http://www.w3.org/2000/svg">
<path fill-rule="evenodd" clip-rule="evenodd" d="M38.5695 16.7499L27.06 39.2499H16.2493L21.066 29.9249H20.8499C16.8761 35.0834 10.9471 38.4793 2.49927 39.2499V30.054C2.49927 30.054 7.90358 29.7348 11.0806 26.3946H2.49927V16.7501H12.1438V24.6825L12.3602 24.6816L16.3014 16.7501H23.5953V24.6322L23.8116 24.6319L27.9006 16.7499H38.5695Z" fill="currentColor"/>
<path d="M101.332 36.7664H104.438V18.9374H101.332V36.7664Z" fill="currentColor"/>
<path fill-rule="evenodd" clip-rule="evenodd" d="M84.2085 36.5843C84.8835 36.8649 85.57 37.0053 86.2678 37.0053C87.4207 37.0053 88.4523 36.7247 89.3626 36.1633C90.2727 35.6021 90.9782 34.8284 91.4788 33.8423C91.9795 32.8487 92.2297 31.7222 92.2297 30.4631C92.2297 29.2039 91.9718 28.0776 91.4561 27.0839C90.9402 26.0903 90.2235 25.3204 89.3056 24.7742C88.3878 24.2205 87.3448 23.9475 86.1767 23.955C85.4335 23.955 84.7205 24.0992 84.0377 24.3874C83.3551 24.6756 82.7862 25.0852 82.3311 25.6162C82.296 25.6566 82.2618 25.6974 82.2287 25.7387V18.9488H79.1112V36.7664H82.206L82.1997 35.1019C82.2797 35.2001 82.3653 35.2959 82.4562 35.3897C82.9492 35.8979 83.5333 36.2961 84.2085 36.5843ZM87.3942 33.7058C86.886 34.0168 86.3057 34.1723 85.6533 34.1723C85.0086 34.1723 84.417 34.0129 83.8785 33.6944C83.3398 33.3682 82.9113 32.9246 82.5927 32.3632C82.2817 31.8019 82.1262 31.1647 82.1262 30.4517C82.1187 29.7387 82.2703 29.1016 82.5813 28.5403C82.9 27.9714 83.3285 27.5314 83.8671 27.2205C84.4056 26.9019 85.0011 26.7464 85.6533 26.754C86.3057 26.7464 86.886 26.8981 87.3942 27.2091C87.91 27.5125 88.3043 27.9486 88.5775 28.5175C88.8581 29.0788 88.9985 29.7236 88.9985 30.4517C88.9985 31.1799 88.8581 31.8247 88.5775 32.3859C88.3043 32.9473 87.91 33.3872 87.3942 33.7058Z" fill="currentColor"/>
<path d="M43.0693 20.0183H46.6192L49.7947 31.6153L53.1728 20.0183H56.1311L59.7947 31.3825L62.844 20.0183H66.098L61.2966 36.7664H58.236L54.5105 25.6644L51.0907 36.7664H47.996L43.0693 20.0183Z" fill="currentColor"/>
<path fill-rule="evenodd" clip-rule="evenodd" d="M71.3405 37.0621C70.104 37.0698 68.989 36.7966 67.9954 36.243C67.0093 35.6816 66.2319 34.9041 65.6629 33.9105C65.1017 32.9169 64.821 31.7829 64.821 30.5085C64.821 29.2721 65.1093 28.1534 65.6858 27.1521C66.2622 26.1509 67.0434 25.3696 68.0295 24.8083C69.0157 24.247 70.1154 23.9664 71.329 23.9664C72.6944 23.9664 73.889 24.2698 74.913 24.8766C75.9447 25.4834 76.7145 26.3443 77.2228 27.4593C77.7385 28.5668 77.9244 29.8373 77.7803 31.2709H68.0344C68.0617 31.842 68.2042 32.3616 68.4619 32.8296C68.7502 33.3454 69.1522 33.7474 69.6679 34.0356C70.1838 34.3239 70.7602 34.468 71.3974 34.468C71.8828 34.4604 72.3342 34.377 72.7513 34.2178C73.1685 34.0509 73.5212 33.8271 73.8094 33.5464C74.1053 33.2658 74.3139 32.9473 74.4353 32.5908H77.6893C77.4921 33.463 77.0977 34.2405 76.506 34.9231C75.9143 35.5983 75.171 36.1254 74.2759 36.5046C73.3809 36.8839 72.4024 37.0698 71.3405 37.0621ZM68.4733 28.142C68.2915 28.459 68.1655 28.8003 68.0954 29.166H74.5558C74.5089 28.704 74.3663 28.283 74.128 27.9031C73.8549 27.4555 73.4833 27.1104 73.013 26.8677C72.5428 26.6174 72.0118 26.4922 71.4202 26.4922C70.7906 26.4922 70.2179 26.6363 69.702 26.9246C69.1863 27.2128 68.7767 27.6186 68.4733 28.142Z" fill="currentColor"/>
<path d="M94.517 24.2281C94.517 23.2117 94.7483 22.309 95.211 21.5202C95.6736 20.7237 96.3223 20.1055 97.1566 19.6656C97.9985 19.2181 98.9809 18.9867 100.103 18.9716V21.7363C99.58 21.7439 99.1325 21.8539 98.7609 22.0663C98.3968 22.2711 98.1161 22.5707 97.9189 22.9651C97.7374 23.3283 97.6394 23.7492 97.625 24.2281H100.035V26.8563H97.6232V36.7664H94.517V26.8563H92.5145V24.2281H94.517Z" fill="currentColor"/>
<path fill-rule="evenodd" clip-rule="evenodd" d="M112.334 37.0393C111.067 37.0393 109.933 36.7625 108.932 36.2088C107.938 35.6475 107.157 34.8738 106.588 33.8877C106.027 32.8941 105.746 31.7677 105.746 30.5085C105.746 29.2418 106.027 28.1116 106.588 27.118C107.157 26.1167 107.938 25.3392 108.932 24.7855C109.933 24.2318 111.067 23.9549 112.334 23.9549C113.608 23.9549 114.746 24.2318 115.747 24.7855C116.756 25.3392 117.541 26.1129 118.103 27.1066C118.664 28.1002 118.948 29.2342 118.956 30.5085C118.948 31.7677 118.664 32.8941 118.103 33.8877C117.549 34.8738 116.768 35.6475 115.759 36.2088C114.75 36.7625 113.608 37.0393 112.334 37.0393ZM112.334 34.1836C113.002 34.1836 113.593 34.0318 114.109 33.7285C114.625 33.4175 115.023 32.9851 115.304 32.4313C115.584 31.8701 115.725 31.2291 115.725 30.5085C115.725 29.7803 115.584 29.1356 115.304 28.5743C115.023 28.013 114.625 27.5807 114.109 27.2772C113.593 26.9663 113.002 26.8108 112.334 26.8108C111.674 26.8108 111.086 26.9663 110.57 27.2772C110.062 27.5807 109.668 28.013 109.387 28.5743C109.107 29.1356 108.97 29.7803 108.978 30.5085C108.978 31.2291 109.118 31.8701 109.399 32.4313C109.687 32.9851 110.081 33.4175 110.582 33.7285C111.09 34.0318 111.674 34.1836 112.334 34.1836Z" fill="currentColor"/>
<path d="M122.312 24.2281H118.854L122.597 36.7664H125.623L128.085 28.7581L130.743 36.7664H133.724L137.479 24.2281H134.35L132.22 32.0324L129.867 24.2281H126.841L124.499 32.2043L122.312 24.2281Z" fill="currentColor"/>
</svg>
