<svg width="24" height="24" viewBox="0 0 24 24" fill="none" xmlns="http://www.w3.org/2000/svg">
<path d="M12.7068 2.29302C12.614 2.20007 12.5038 2.12633 12.3825 2.07602C12.2612 2.02571 12.1311 1.99982 11.9998 1.99982C11.8685 1.99982 11.7384 2.02571 11.6171 2.07602C11.4958 2.12633 11.3856 2.20007 11.2928 2.29302L2.29279 11.293C2.15298 11.4329 2.05777 11.611 2.0192 11.805C1.98064 11.9989 2.00044 12.2 2.07611 12.3827C2.15178 12.5654 2.27992 12.7215 2.44433 12.8314C2.60874 12.9413 2.80204 13 2.99979 13H3.99979V20C3.99979 21.103 4.89679 22 5.99979 22H17.9998C19.1028 22 19.9998 21.103 19.9998 20V13H20.9998C21.1978 13.0005 21.3914 12.9421 21.5561 12.8323C21.7208 12.7225 21.8492 12.5662 21.925 12.3833C22.0007 12.2004 22.0204 11.9991 21.9816 11.805C21.9427 11.6109 21.8471 11.4327 21.7068 11.293L12.7068 2.29302ZM18.0008 20H5.99979V10.414L11.9998 4.41402L17.9998 10.414L18.0008 20Z" fill="black"/>
<path d="M12.9998 10H10.9998V13H7.99982V15H10.9998V18H12.9998V15H15.9998V13H12.9998V10Z" fill="black"/>
</svg>
