<svg width="18" height="20" viewBox="0 0 18 20" fill="none" xmlns="http://www.w3.org/2000/svg">
<path d="M0 17C0 19.201 1.794 20 3 20H18V18H3.012C2.55 17.988 2 17.806 2 17C2 16.194 2.55 16.012 3.012 16H18V2C18 0.897 17.103 0 16 0H3C1.794 0 0 0.799 0 3V17ZM3 2H16V14H2V3C2 2.194 2.55 2.012 3 2Z" fill="black"/>
<path d="M8.99702 12L12.347 8.71099C12.5536 8.51234 12.7179 8.27404 12.8301 8.01036C12.9424 7.74668 13.0002 7.46306 13.0002 7.17649C13.0002 6.88991 12.9424 6.60629 12.8301 6.34261C12.7179 6.07894 12.5536 5.84063 12.347 5.64199C11.9306 5.23099 11.3691 5.00055 10.784 5.00055C10.199 5.00055 9.63743 5.23099 9.22102 5.64199L8.99702 5.85999L8.77302 5.64099C8.35679 5.23005 7.79543 4.99963 7.21052 4.99963C6.62562 4.99963 6.06426 5.23005 5.64802 5.64099C5.44147 5.83963 5.27715 6.07794 5.16491 6.34161C5.05267 6.60529 4.99481 6.88891 4.99481 7.17549C4.99481 7.46206 5.05267 7.74568 5.16491 8.00936C5.27715 8.27304 5.44147 8.51134 5.64802 8.70999L8.99702 12Z" fill="black"/>
</svg>
