<svg width="24" height="24" viewBox="0 0 24 24" fill="none" xmlns="http://www.w3.org/2000/svg">
<path d="M8.64802 14.711L11.997 18L15.347 14.711C15.5536 14.5123 15.7179 14.274 15.8301 14.0104C15.9424 13.7467 16.0002 13.4631 16.0002 13.1765C16.0002 12.8899 15.9424 12.6063 15.8301 12.3426C15.7179 12.0789 15.5536 11.8406 15.347 11.642C14.9306 11.231 14.3691 11.0005 13.784 11.0005C13.199 11.0005 12.6374 11.231 12.221 11.642L11.997 11.861L11.773 11.642C11.3568 11.2311 10.7954 11.0006 10.2105 11.0006C9.62562 11.0006 9.06426 11.2311 8.64802 11.642C8.44147 11.8406 8.27715 12.0789 8.16491 12.3426C8.05267 12.6063 7.99481 12.8899 7.99481 13.1765C7.99481 13.4631 8.05267 13.7467 8.16491 14.0104C8.27715 14.274 8.44147 14.5123 8.64802 14.711Z" fill="black"/>
<path d="M19 4H17V2H15V4H9V2H7V4H5C3.897 4 3 4.897 3 6V20C3 21.103 3.897 22 5 22H19C20.103 22 21 21.103 21 20V6C21 4.897 20.103 4 19 4ZM19.002 20H5V8H19L19.002 20Z" fill="black"/>
</svg>
