<svg width="20" height="14" viewBox="0 0 20 14" fill="none" xmlns="http://www.w3.org/2000/svg">
<path d="M14.97 0.757014C14.9178 0.546842 14.7987 0.35932 14.6307 0.222694C14.4627 0.0860689 14.2548 0.00773865 14.0384 -0.00049758C13.822 -0.00873381 13.6088 0.05357 13.4309 0.177029C13.253 0.300488 13.12 0.478417 13.052 0.684014L9.866 10.238L6.914 3.59401C6.83363 3.41482 6.70237 3.2632 6.53654 3.15799C6.37071 3.05279 6.17762 2.99863 5.98127 3.00225C5.78491 3.00587 5.59395 3.06712 5.43212 3.17837C5.27028 3.28962 5.14471 3.44598 5.071 3.62801L3.323 8.00001H0V10H3.323C4.146 10 4.875 9.50601 5.179 8.74301L6.048 6.57101L9.085 13.406C9.247 13.769 9.606 14 10 14L10.048 13.999C10.2495 13.9894 10.4433 13.9191 10.604 13.7971C10.7646 13.6752 10.8846 13.5075 10.948 13.316L13.862 4.57401L14.841 8.48501C14.9484 8.91812 15.1978 9.30273 15.5495 9.57737C15.9012 9.85201 16.3348 10.0008 16.781 10H20V8.00001H16.78L14.97 0.757014Z" fill="black"/>
</svg>
