<svg width="20" height="19" viewBox="0 0 20 19" fill="none" xmlns="http://www.w3.org/2000/svg">
<path d="M10.0005 1.59511C8.91087 0.593213 7.48468 0.0371559 6.00447 0.0371094C5.22101 0.0379251 4.44544 0.193669 3.72241 0.495378C2.99937 0.797087 2.34313 1.2388 1.79147 1.79511C-0.561531 4.15811 -0.560531 7.85411 1.79347 10.2071L9.12547 17.5391C9.29547 17.8381 9.62347 18.0311 10.0005 18.0311C10.1553 18.0296 10.3076 17.9918 10.4451 17.9208C10.5827 17.8498 10.7016 17.7475 10.7925 17.6221L18.2075 10.2071C20.5615 7.85311 20.5615 4.15811 18.2055 1.79111C17.6541 1.23583 16.9984 0.795006 16.276 0.493993C15.5537 0.192979 14.779 0.037709 13.9965 0.0371094C12.5163 0.0373513 11.0902 0.593382 10.0005 1.59511ZM16.7915 3.20511C18.3545 4.77611 18.3555 7.23011 16.7935 8.79311L10.0005 15.5861L3.20747 8.79311C1.64547 7.23011 1.64647 4.77611 3.20547 3.20911C3.96547 2.45311 4.95947 2.03711 6.00447 2.03711C7.04947 2.03711 8.03947 2.45311 8.79347 3.20711L9.29347 3.70711C9.38626 3.80006 9.49646 3.87379 9.61778 3.9241C9.73909 3.97441 9.86914 4.00031 10.0005 4.00031C10.1318 4.00031 10.2618 3.97441 10.3832 3.9241C10.5045 3.87379 10.6147 3.80006 10.7075 3.70711L11.2075 3.20711C12.7195 1.69811 15.2815 1.70211 16.7915 3.20511Z" fill="black"/>
</svg>
