<svg width="19" height="18" viewBox="0 0 19 18" fill="none" xmlns="http://www.w3.org/2000/svg">
<path d="M0 0V17C0 17.2652 0.105357 17.5196 0.292893 17.7071C0.48043 17.8946 0.734784 18 1 18H18V16H2V0H0Z" fill="black"/>
<path d="M12.293 11.707C12.3858 11.7999 12.496 11.8737 12.6173 11.924C12.7387 11.9743 12.8687 12.0002 13 12.0002C13.1314 12.0002 13.2614 11.9743 13.3827 11.924C13.504 11.8737 13.6142 11.7999 13.707 11.707L18.707 6.70697L17.293 5.29297L13 9.58597L10.707 7.29297C10.6142 7.20002 10.504 7.12629 10.3827 7.07597C10.2614 7.02566 10.1314 6.99977 10 6.99977C9.8687 6.99977 9.73865 7.02566 9.61734 7.07597C9.49602 7.12629 9.38582 7.20002 9.29303 7.29297L4.29303 12.293L5.70703 13.707L10 9.41397L12.293 11.707Z" fill="black"/>
</svg>
