<svg width="12" height="15" viewBox="0 0 12 15" fill="none" xmlns="http://www.w3.org/2000/svg">
<path d="M0.983023 14.5902C1.09903 14.6506 1.22928 14.6782 1.3598 14.6701C1.49031 14.662 1.61615 14.6185 1.72383 14.5443L11.0466 8.09007C11.1419 8.02407 11.2197 7.93597 11.2735 7.8333C11.3273 7.73064 11.3554 7.61647 11.3554 7.50058C11.3554 7.38469 11.3273 7.27052 11.2735 7.16786C11.2197 7.0652 11.1419 6.97709 11.0466 6.91109L1.72383 0.456846C1.61636 0.381872 1.49037 0.337843 1.35959 0.329557C1.22881 0.321272 1.09827 0.349049 0.9822 0.40986C0.866127 0.470671 0.768976 0.562181 0.70134 0.674415C0.633704 0.786648 0.598179 0.915296 0.598637 1.04633V13.9548C0.598616 14.0857 0.634425 14.2141 0.702183 14.3261C0.769941 14.4382 0.867064 14.5295 0.983023 14.5902ZM2.03291 2.41535L9.37856 7.50058L2.03291 12.5858V2.41535Z" fill="black"/>
</svg>
