<svg width="14" height="15" viewBox="0 0 14 15" fill="none" xmlns="http://www.w3.org/2000/svg">
<path d="M12.7575 6.14004C12.6026 5.77479 12.4131 5.42515 12.1917 5.09589L11.0027 5.89837C11.3454 6.40777 11.5858 6.97893 11.7105 7.58006C11.8376 8.20667 11.8376 8.85243 11.7105 9.47904C11.6482 9.78171 11.556 10.0774 11.4351 10.3618C11.3177 10.6413 11.1728 10.9084 11.0027 11.1593C10.6628 11.6606 10.2305 12.0926 9.72906 12.4322C9.22009 12.7747 8.64944 13.0151 8.04881 13.14C7.42252 13.2655 6.77755 13.2655 6.15126 13.14C5.24986 12.9549 4.42271 12.509 3.77251 11.8578C3.34301 11.428 3.00021 10.9197 2.76278 10.3604C2.64298 10.076 2.55123 9.78057 2.48883 9.47832C2.29952 8.54503 2.39496 7.57638 2.76278 6.69798C2.9993 6.13881 3.34195 5.6308 3.77179 5.20203C4.20144 4.77326 4.70924 4.43075 5.26775 4.19301C5.55101 4.07325 5.84863 3.98074 6.14983 3.91907C6.22656 3.90329 6.30473 3.89612 6.38218 3.88393V6.06475L9.96787 3.19619L6.38218 0.327637V2.43459C6.20784 2.45389 6.03438 2.48045 5.86225 2.51419C5.07638 2.67523 4.32996 2.98959 3.66566 3.4393C2.4856 4.23534 1.61861 5.41649 1.21286 6.78089C0.807109 8.14529 0.887783 9.60826 1.44109 10.9198C1.74914 11.65 2.19606 12.3134 2.75704 12.8733C3.31727 13.4324 3.97973 13.8787 4.70838 14.1878C5.85389 14.6724 7.11971 14.7972 8.33781 14.5456C9.31288 14.3441 10.2244 13.9089 10.9942 13.2773C11.7639 12.6457 12.3688 11.8367 12.7568 10.9198C12.9146 10.5469 13.0358 10.1589 13.1154 9.76661C13.2817 8.95029 13.2817 8.10882 13.1154 7.29249C13.0337 6.89766 12.9138 6.5117 12.7575 6.14004Z" fill="black"/>
</svg>
