<svg width="20" height="18" viewBox="0 0 20 18" fill="none" xmlns="http://www.w3.org/2000/svg">
<path d="M9.00094 7H11.0009V12H9.00094V7ZM8.99994 13H10.9999V15H8.99994V13Z" fill="black"/>
<path d="M11.7679 1.19994C11.4199 0.544939 10.7419 0.137939 9.99995 0.137939C9.25795 0.137939 8.57995 0.54494 8.23195 1.20094L0.893949 15.0639C0.731117 15.3684 0.650458 15.71 0.659927 16.0551C0.669397 16.4002 0.768668 16.7369 0.947949 17.0319C1.12465 17.3283 1.37559 17.5735 1.676 17.7432C1.97641 17.913 2.3159 18.0015 2.66095 17.9999H17.3389C18.0469 17.9999 18.6879 17.6379 19.0529 17.0319C19.2319 16.7368 19.331 16.4001 19.3405 16.0551C19.35 15.71 19.2695 15.3685 19.1069 15.0639L11.7679 1.19994ZM2.66095 15.9999L9.99995 2.13694L17.3439 15.9999H2.66095Z" fill="black"/>
</svg>
